<svg xmlns="http://www.w3.org/2000/svg" width="2239.145430709347" height="1782.1769754625416" baseProfile="full" version="1.1" viewBox="2836.118687,-5282.906251,2239.145431,1782.176975"><defs><style type="text/css">polyline,line,rect,path,polygon,.polygon{fill:none;stroke:white;stroke-width:1px;stroke-linejoin:round;}</style></defs><g transform="scale(1,-1)"><g id="contours" class="ID ELEV"><polyline points="3453.026106289944,5282.9062506944465 3453.026106289944,5260.057827932106 3453.026101212518,5260.0578203159685 3453.0260996367647,5260.057827932106 3453.0260996367647,5282.9062506944465" class="contours" style="fill:none;stroke:white;stroke-width:1px;stroke-linejoin:round"/><polyline points="4407.719657714628,5282.9062506944465 4407.719657714628,5260.057827932106 4366.963011706129,5224.988155785258 4321.266166181449,5239.061979988333 4296.20660573243,5260.057827932106 4296.20660573243,5282.9062506944465" class="contours" style="fill:none;stroke:white;stroke-width:1px;stroke-linejoin:round"/><polyline points="3488.568092176158,5282.9062506944465 3488.568092176158,5260.057827932106 3457.18035989658,5214.360982407426 3453.026101212518,5191.512536796685 3451.552009421399,5214.360982407426 3441.995828154836,5260.057827932106 3441.995828154836,5282.9062506944465" class="contours" style="fill:none;stroke:white;stroke-width:1px;stroke-linejoin:round"/><polyline points="5014.030344335605,5282.9062506944465 5014.030344335605,5260.057827932106 5006.718849051656,5251.9936787218685 4991.665770525879,5214.360982407426 4961.022003526976,5182.596101981733 4915.325158002295,5169.88543342238 4869.628312477615,5171.04684018757 4823.931466952935,5178.8388251441 4778.234621428254,5210.605077295808 4771.0193300296205,5214.360982407426 4732.537775903574,5226.753347295475 4717.61635695674,5214.360982407426 4686.840930378893,5191.512559298897 4641.144084854212,5184.076682414739 4598.135289066277,5214.360982407426 4595.447239329533,5216.567037018962 4551.654429035046,5260.057827932106 4551.654429035046,5282.9062506944465" class="contours" style="fill:none;stroke:white;stroke-width:1px;stroke-linejoin:round"/><polyline points="5075.264117338677,5229.076915711983 5052.415694576337,5229.076915711983 5039.260542076808,5214.360982407426 5006.718849051656,5185.337310249858 4991.296163687078,5168.664136882745 4961.022003526976,5139.831603396935 4915.325158002295,5145.036790617143 4869.628312477615,5147.637980966481 4823.931466952935,5147.643587941392 4778.234621428254,5138.7534743575 4732.537775903574,5145.815712043276 4686.840930378893,5146.120359757237 4641.144084854212,5147.431259164207 4601.4826717573205,5168.664136882745 4595.447239329533,5171.769747743646 4549.750393804852,5199.128700565865 4513.192917385107,5214.360982407426 4504.053548280171,5221.731441363019 4476.422897497806,5260.057827932106 4476.422897497806,5282.9062506944465" class="contours" style="fill:none;stroke:white;stroke-width:1px;stroke-linejoin:round"/><polyline points="5075.264117338677,5191.512558798848 5052.415694576337,5191.512558798848 5025.59363307272,5168.664136882745 5008.844283727224,5122.967291358065 5006.718849051656,5117.889864077545 4961.022003526976,5114.608112298672 4948.328435325676,5122.967291358065 4915.325158002295,5133.093296900466 4869.628312477615,5134.741938671173 4823.931466952935,5126.623039000039 4813.48647369015,5122.967291358065 4778.234621428254,5104.82295563503 4732.537775903574,5089.646674829652 4686.840930378893,5112.812436797024 4662.469279432397,5122.967291358065 4641.144084854212,5126.198381445668 4595.447239329533,5138.4577474681255 4549.750393804852,5159.209617119019 4504.053548280171,5141.246029567937 4458.35670275549,5144.471689252032 4446.606085334858,5168.664136882745 4412.659857230809,5211.096922012806 4366.963011706129,5180.787789777048 4321.266166181449,5179.416335829728 4277.261796416941,5214.360982407426 4275.5693206567685,5215.745735302113 4269.857214966182,5214.360982407426 4229.872475132087,5204.364797448901 4216.544228520722,5214.360982407426 4184.175629607407,5245.434837364209 4174.295230575043,5260.057827932106 4174.295230575043,5282.9062506944465" class="contours" style="fill:none;stroke:white;stroke-width:1px;stroke-linejoin:round"/><polyline points="3727.207174360601,5073.296807092107 3734.237458287475,5077.270445833384 3772.9040198852817,5102.4037108719585 3797.0964675159953,5122.967291358065 3809.4614963050267,5168.664136882745 3772.9040198852817,5205.2216133024895 3742.439456202161,5214.360982407426 3727.207174360601,5219.438409687946 3681.5103288359205,5227.417223985905 3635.81348331124,5241.779089722234 3590.1166377865597,5250.91845882717 3569.806928664479,5214.360982407426 3544.419792261879,5181.720378461226 3541.155731867259,5168.664136882745 3541.6502864725044,5122.967291358065 3544.419792261879,5092.502727674944 3548.9894768143467,5077.270445833384 3590.1166377865597,5045.634168162452 3635.81348331124,5064.214204254904 3681.5103288359205,5064.214204254904 3727.207174360601,5073.296807092107" class="contours" style="fill:none;stroke:white;stroke-width:1px;stroke-linejoin:round"/><polyline points="3498.7229480812234,5077.270445833384 3498.7229467371985,5077.270434409178 3498.722942167515,5077.270445833384 3498.7229467371985,5077.27045725759 3498.7229480812234,5077.270445833384" class="contours" style="fill:none;stroke:white;stroke-width:1px;stroke-linejoin:round"/><polyline points="5075.264117338677,5139.287593331164 5052.415694576337,5139.287593331164 5047.102107887422,5122.967291358065 5032.105985454257,5077.270445833384 5006.718849051656,5066.88479912323 4988.798517473351,5077.270445833384 4961.022003526976,5094.546082556129 4917.863871642556,5122.967291358065 4915.325158002295,5123.746214861326 4869.628312477615,5124.649383831366 4861.564163267377,5122.967291358065 4823.931466952935,5105.196295876244 4778.234621428254,5080.630508004316 4770.074470441704,5077.270445833384 4732.537775903574,5063.441137319336 4686.840930378893,5069.32316835083 4667.60015331587,5077.270445833384 4641.144084854212,5089.837078352672 4595.447239329533,5093.721310222269 4549.750393804852,5091.701028630652 4522.332286490043,5077.270445833384 4504.053548280171,5072.918365307224 4496.437407359391,5077.270445833384 4458.35670275549,5096.310798135334 4425.548711096746,5122.967291358065 4412.659857230809,5146.903734251945 4366.963011706129,5142.388450706054 4321.266166181449,5137.456535061013 4275.5693206567685,5154.041146314847 4229.872475132087,5150.046903520838 4184.175629607407,5161.894233842052 4163.865920485327,5168.664136882745 4149.44602700865,5214.360982407426 4138.478784082726,5235.4518341880475 4092.7819385580456,5260.05782285468 4092.781936152949,5260.057827932106 4092.781936152949,5282.9062506944465" class="contours" style="fill:none;stroke:white;stroke-width:1px;stroke-linejoin:round"/><polyline points="2836.1186866293306,5077.270491530137 2858.9671093916704,5077.270491530137 2858.9671170078086,5077.270445833384 2865.4952301809108,5031.573600308703 2858.9671093916704,5016.3413184671435 2836.1186866293306,5016.3413184671435" class="contours" style="fill:none;stroke:white;stroke-width:1px;stroke-linejoin:round"/><polyline points="3503.5331410029544,5282.9062506944465 3503.5331410029544,5260.057827932106 3498.7229467371985,5248.6336165509365 3473.7973946328275,5214.360982407426 3470.162418284273,5168.664136882745 3498.7229467371985,5122.96730049743 3498.722948121951,5122.967291358065 3504.09904621069,5077.270445833384 3498.7229487240174,5031.573600308703 3498.7229467371985,5031.5735926925645 3498.722931504927,5031.573600308703 3480.4442085273263,5077.270445833384 3498.722937597833,5122.967291358065 3453.026101212518,5151.52781981099 3449.418455513201,5168.664136882745 3445.6556422569242,5214.360982407426 3435.6928149790187,5260.057827932106 3435.6928149790187,5282.9062506944465" class="contours" style="fill:none;stroke:white;stroke-width:1px;stroke-linejoin:round"/><polyline points="3503.5331410029544,5282.9062506944465 3503.5331410029544,5260.057827932106 3498.7229467371985,5248.6336165509365 3473.7973946328275,5214.360982407426 3470.162418284273,5168.664136882745 3498.7229467371985,5122.96730049743 3498.722948121951,5122.967291358065 3504.09904621069,5077.270445833384 3498.7229487240174,5031.573600308703 3498.7229467371985,5031.5735926925645 3498.722931504927,5031.573600308703 3480.4442085273263,5077.270445833384 3498.722937597833,5122.967291358065 3453.026101212518,5151.52781981099 3449.418455513201,5168.664136882745 3445.6556422569242,5214.360982407426 3435.6928149790187,5260.057827932106 3435.6928149790187,5282.9062506944465" class="contours" style="fill:none;stroke:white;stroke-width:1px;stroke-linejoin:round"/><polyline points="5075.264117338677,5041.8553905517565 5052.415694576337,5041.8553905517565 5006.718849051656,5042.4785293543655 4961.022003526976,5069.809736359966 4952.212973064387,5077.270445833384 4915.325158002295,5104.853226465399 4869.628312477615,5100.39415079768 4826.977923321247,5077.270445833384 4823.931466952935,5074.68383193576 4778.234621428254,5046.805882150264 4732.537775903574,5035.181246008021 4714.259037693702,5031.573600308703 4686.840930378893,5019.477376493347 4641.144084854212,5001.77130974913 4595.447239329533,4995.016123888959 4549.750393804852,5001.77130974913 4504.053548280171,5015.122735919818 4484.469185912451,5031.573600308703 4458.35670275549,5045.634168162452 4418.556224395284,5077.270445833384 4412.659857230809,5081.840130385852 4366.963011706129,5089.530575120493 4321.266166181449,5089.191362057214 4275.5693206567685,5087.815871723695 4229.872475132087,5094.635247132763 4184.175629607407,5100.585162937813 4138.478784082726,5089.620944623838 4092.7819385580456,5084.886586754164 4047.085093033365,5087.815871723695 4001.388247508685,5086.40981493832 3955.691401984004,5115.351150437285 3951.121717431536,5122.967291358065 3953.704582613366,5168.664136882745 3955.691401984004,5172.179278846183 3983.1095092988126,5214.360982407426 4001.388244969971,5260.057827932106 4001.388244969971,5282.9062506944465" class="contours" style="fill:none;stroke:white;stroke-width:1px;stroke-linejoin:round"/><polyline points="5075.264117338677,5060.134128761629 5052.415694576337,5060.134128761629 5006.718849051656,5050.787046722489 4961.022003526976,5077.270445367089 4961.022002976412,5077.270445833384 4915.325158002295,5111.440159153641 4869.628312477615,5109.20318126027 4823.931466952935,5085.52126516423 4808.699185111374,5077.270445833384 4778.234621428254,5058.411430220023 4732.537775903574,5044.801634539532 4686.840930378893,5038.527468105937 4641.144084854212,5033.749640571784 4632.004715749276,5031.573600308703 4595.447239329533,5024.262105024754 4558.889762909787,5031.573600308703 4549.750393804852,5033.3311712904215 4504.053548280171,5039.189741229484 4458.35670275549,5064.381591967448 4442.141693053185,5077.270445833384 4412.659857230809,5100.118867453303 4366.963011706129,5107.363490447197 4321.266166181449,5105.08591702232 4275.5693206567685,5106.563295528692 4229.872475132087,5109.25823770066 4184.175629607407,5115.506581884647 4138.478784082726,5109.381742688565 4092.7819385580456,5115.351150437285 4074.503200348174,5122.967291358065 4047.085093033365,5162.136016093505 4037.945723928429,5168.664136882745 4025.7598984551805,5214.360982407426 4027.5007306656453,5260.057827932106 4027.5007306656453,5282.9062506944465" class="contours" style="fill:none;stroke:white;stroke-width:1px;stroke-linejoin:round"/><polyline points="5075.264117338677,5024.047061045815 5052.415694576337,5024.047061045815 5006.718849051656,5030.686282919874 5005.2205918213385,5031.573600308703 4961.022003526976,5059.08496649193 4939.549991774416,5077.270445833384 4915.325158002295,5095.38451072605 4869.628312477615,5087.731169507708 4850.334088811639,5077.270445833384 4823.931466952935,5054.853125387314 4781.386128016163,5031.573600308703 4778.234621428254,5027.003915756235 4732.537775903574,5006.514039859685 4686.840930378893,4988.564804520769 4681.464830905401,4985.8767547840225 4641.144084854212,4963.028330498454 4595.447239329533,4957.513195492842 4549.750393804852,4962.240455374706 4504.053548280171,4975.558112246192 4488.059652346533,4985.8767547840225 4458.35670275549,5010.629212776557 4434.42025986161,5031.573600308703 4412.659857230809,5047.331133248249 4366.963011706129,5057.686083465664 4321.266166181449,5057.163833802525 4275.5693206567685,5053.575785190957 4229.872475132087,5071.3740786689095 4199.407911448967,5077.270445833384 4184.175629607407,5079.135623201739 4178.082716870783,5077.270445833384 4138.478784082726,5061.637314469677 4092.7819385580456,5049.262701802128 4050.600234996802,5031.573600308703 4047.085093033365,5029.586780938065 4001.388247508685,4999.317003467752 3963.307542904784,4985.8767547840225 3955.691401984004,4981.722496099961 3940.4591201424437,4985.8767547840225 3909.9945564593236,4998.932996362502 3864.297710934643,5001.109036625583 3818.6008654099624,4993.492895704803 3785.960261463762,5031.573600308703 3818.6008654099624,5054.422027640727 3836.176575227147,5077.270445833384 3864.297710934643,5103.382928990344 3878.006764592047,5122.967291358065 3907.70971418309,5168.664136882745 3909.9945564593236,5175.192257671985 3926.122854879799,5214.360982407426 3927.1308735310786,5260.057827932106 3927.1308735310786,5282.9062506944465" class="contours" style="fill:none;stroke:white;stroke-width:1px;stroke-linejoin:round"/><polyline points="3772.904065582036,4985.8767547840225 3772.9040198852817,4985.876739551751 3772.9039970368817,4985.8767547840225 3772.9040198852817,4985.876777632423 3772.904065582036,4985.8767547840225" class="contours" style="fill:none;stroke:white;stroke-width:1px;stroke-linejoin:round"/><polyline points="5075.264117338677,5027.810330677259 5052.415694576337,5027.810330677259 5025.759201353607,5031.573600308703 5006.718849051656,5034.170011986243 4961.022003526976,5062.34902688655 4943.403942601799,5077.270445833384 4915.325158002295,5098.2662937771565 4869.628312477615,5091.585120335091 4843.22569061891,5077.270445833384 4823.931466952935,5060.888557815103 4778.234621428254,5035.200334080503 4763.002339586695,5031.573600308703 4732.537775903574,5016.832682397516 4686.840930378893,4997.9729785993795 4662.648482748179,4985.8767547840225 4641.144084854212,4973.690929310775 4595.447239329533,4968.543468550523 4549.750393804852,4973.270728432386 4504.053548280171,4985.876753309932 4504.053545995329,4985.8767547840225 4458.35670275549,5023.957459387923 4449.65254170317,5031.573600308703 4412.659857230809,5058.361406305929 4366.963011706129,5069.110294846834 4321.266166181449,5069.958950549435 4275.5693206567685,5065.423115512171 4243.581528789492,5077.270445833384 4229.872475132087,5080.012256564865 4184.175629607407,5085.663743990978 4156.757522292599,5077.270445833384 4138.478784082726,5070.05515443475 4092.7819385580456,5059.581344339959 4047.085093033365,5046.004183105971 4022.159540928994,5031.573600308703 4001.388247508685,5018.133351624974 3955.691401984004,5010.802306888394 3923.050798037804,5031.573600308703 3909.9945564593236,5042.997811689873 3864.297710934643,5065.846234452213 3860.782568971206,5077.270445833384 3864.297710934643,5080.534506228004 3894.000660525685,5122.967291358065 3909.9945564593236,5147.573285102124 3921.915472683153,5168.664136882745 3944.9392030370204,5214.360982407426 3955.691401984004,5244.825546090547 3960.7688292645244,5260.057827932106 3960.7688292645244,5282.9062506944465" class="contours" style="fill:none;stroke:white;stroke-width:1px;stroke-linejoin:round"/><polyline points="2996.0576459657123,4917.33149411314 3041.754476258121,4940.179909259342 3041.754491490393,4940.179914971447 3087.4513370150735,4956.79694399559 3127.436076849169,4985.8767547840225 3133.148182539754,4995.016123888959 3163.612746222874,5031.573600308703 3178.8450280644347,5044.629841887184 3211.485632010635,5077.270445833384 3209.309591747555,5122.967291358065 3178.8450280644347,5153.4318550411845 3142.28755164469,5122.967291358065 3133.148182539754,5107.735009516504 3110.2997369290138,5122.967291358065 3102.6836188566335,5168.664136882745 3087.4513370150735,5183.8964187243055 3064.6029028285275,5214.360982407426 3041.754491490393,5232.639720617298 2996.0576459657123,5237.20939374556 2950.3608232894317,5214.360982407426 2950.360800441032,5214.360959559026 2940.2059458799913,5168.664136882745 2941.2214313360955,5122.967291358065 2945.791115888564,5077.270445833384 2945.791115888564,5031.573600308703 2945.283373160512,4985.8767547840225 2950.360800441032,4963.028354870082 2961.7850118222023,4940.179909259342 2996.0576459657123,4917.33149411314" class="contours" style="fill:none;stroke:white;stroke-width:1px;stroke-linejoin:round"/><polyline points="4961.022003526976,4886.8669228138815 4974.0782451054565,4894.483063734661 5002.149164499188,4940.179909259342 4961.022003526976,4963.02832948297 4938.173583303349,4940.179909259342 4955.309897836391,4894.483063734661 4961.022003526976,4886.8669228138815" class="contours" style="fill:none;stroke:white;stroke-width:1px;stroke-linejoin:round"/><polyline points="2836.1186866293306,4894.483086583062 2858.9671093916704,4894.483086583062 2858.9671185310362,4894.483063734661 2858.9671093916704,4894.483018037908 2836.1186866293306,4894.483018037908" class="contours" style="fill:none;stroke:white;stroke-width:1px;stroke-linejoin:round"/><polyline points="3041.754491490393,4784.810634475429 3050.0630088585162,4803.089372685301 3041.754491490393,4848.786195361582 3030.3302801092227,4803.089372685301 3041.754491490393,4784.810634475429" class="contours" style="fill:none;stroke:white;stroke-width:1px;stroke-linejoin:round"/><polyline points="3704.358774446661,4757.39252716062 3681.5103288359205,4745.968315779451 3670.0861174547504,4757.39252716062 3681.5103196965556,4803.089372685301 3681.5103288359205,4803.089384109507 3727.207174360601,4818.321654526861 3742.439456202161,4803.089372685301 3727.207174360601,4780.24092707456 3704.358774446661,4757.39252716062" class="contours" style="fill:none;stroke:white;stroke-width:1px;stroke-linejoin:round"/><polyline points="5075.264117338677,5021.896621256418 5052.415694576337,5021.896621256418 5006.718849051656,5028.911648142217 5002.2240773607045,5031.573600308703 4961.022003526976,5057.219789123575 4937.347734158768,5077.270445833384 4915.325158002295,5093.73777755399 4869.628312477615,5085.528911892061 4854.396030636055,5077.270445833384 4823.931466952935,5051.404306857149 4787.689141191981,5031.573600308703 4778.234621428254,5017.864546651299 4732.537775903574,5000.61767269521 4694.457071299674,4985.8767547840225 4686.840930378893,4981.066560518268 4641.144084854212,4956.935419285059 4595.447239329533,4951.210182317024 4549.750393804852,4955.937442198888 4504.053548280171,4969.6617450817175 4478.920283241597,4985.8767547840225 4458.35670275549,5003.013071855778 4425.716098809289,5031.573600308703 4412.659857230809,5041.02812007243 4366.963011706129,5051.157962676423 4321.266166181449,5049.852338518575 4275.5693206567685,5046.805882150264 4229.872475132087,5065.477711504434 4184.175629607407,5074.500940044009 4138.478784082726,5056.827120203921 4092.7819385580456,5043.366334637653 4064.6608028505498,5031.573600308703 4047.085093033365,5021.639503455512 4001.388247508685,4988.564804520769 3993.7721065879045,4985.8767547840225 3955.691401984004,4965.105461363713 3909.9945564593236,4967.598016574151 3864.297710934643,4955.412191100902 3818.6009111067165,4940.179909259342 3830.0250767911325,4894.483063734661 3826.217006330742,4848.786218209982 3818.6008654099624,4833.553936368421 3795.752454071828,4803.089372685301 3772.904035117553,4757.39252716062 3772.9040198852817,4757.392519544483 3727.207174360601,4729.974419845812 3696.742610677481,4711.695681635939 3681.5103288359205,4704.07954071516 3658.6618832251806,4711.695681635939 3635.81348331124,4734.54408154988 3629.285362522,4757.39252716062 3635.81348331124,4780.24097277136 3644.9528524161765,4803.089372685301 3681.5103136036487,4848.786218209982 3681.5102831391664,4894.483063734661 3658.661894649375,4940.179909259342 3681.5103288359205,4963.028343445888 3704.358740174055,4985.8767547840225 3727.207174360601,4993.492895704803 3765.287878964502,5031.573600308703 3772.9040198852817,5035.7278589927655 3818.6008654099624,5072.700761280916 3822.1160073733995,5077.270445833384 3864.297710934643,5116.439170568824 3868.867395487111,5122.967291358065 3898.5703450781534,5168.664136882745 3909.9945564593236,5201.304740828946 3915.370655932815,5214.360982407426 3909.9945564593236,5244.825546090547 3903.4664356700832,5260.057827932106 3903.4664356700832,5282.9062506944465" class="contours" style="fill:none;stroke:white;stroke-width:1px;stroke-linejoin:round"/><polyline points="5075.264117338677,5021.896621256418 5052.415694576337,5021.896621256418 5006.718849051656,5028.911648142217 5002.2240773607045,5031.573600308703 4961.022003526976,5057.219789123575 4937.347734158768,5077.270445833384 4915.325158002295,5093.73777755399 4869.628312477615,5085.528911892061 4854.396030636055,5077.270445833384 4823.931466952935,5051.404306857149 4787.689141191981,5031.573600308703 4778.234621428254,5017.864546651299 4732.537775903574,5000.61767269521 4694.457071299674,4985.8767547840225 4686.840930378893,4981.066560518268 4641.144084854212,4956.935419285059 4595.447239329533,4951.210182317024 4549.750393804852,4955.937442198888 4504.053548280171,4969.6617450817175 4478.920283241597,4985.8767547840225 4458.35670275549,5003.013071855778 4425.716098809289,5031.573600308703 4412.659857230809,5041.02812007243 4366.963011706129,5051.157962676423 4321.266166181449,5049.852338518575 4275.5693206567685,5046.805882150264 4229.872475132087,5065.477711504434 4184.175629607407,5074.500940044009 4138.478784082726,5056.827120203921 4092.7819385580456,5043.366334637653 4064.6608028505498,5031.573600308703 4047.085093033365,5021.639503455512 4001.388247508685,4988.564804520769 3993.7721065879045,4985.8767547840225 3955.691401984004,4965.105461363713 3909.9945564593236,4967.598016574151 3864.297710934643,4955.412191100902 3818.6009111067165,4940.179909259342 3830.0250767911325,4894.483063734661 3826.217006330742,4848.786218209982 3818.6008654099624,4833.553936368421 3795.752454071828,4803.089372685301 3772.904035117553,4757.39252716062 3772.9040198852817,4757.392519544483 3727.207174360601,4729.974419845812 3696.742610677481,4711.695681635939 3681.5103288359205,4704.07954071516 3658.6618832251806,4711.695681635939 3635.81348331124,4734.54408154988 3629.285362522,4757.39252716062 3635.81348331124,4780.24097277136 3644.9528524161765,4803.089372685301 3681.5103136036487,4848.786218209982 3681.5102831391664,4894.483063734661 3658.661894649375,4940.179909259342 3681.5103288359205,4963.028343445888 3704.358740174055,4985.8767547840225 3727.207174360601,4993.492895704803 3765.287878964502,5031.573600308703 3772.9040198852817,5035.7278589927655 3818.6008654099624,5072.700761280916 3822.1160073733995,5077.270445833384 3864.297710934643,5116.439170568824 3868.867395487111,5122.967291358065 3898.5703450781534,5168.664136882745 3909.9945564593236,5201.304740828946 3915.370655932815,5214.360982407426 3909.9945564593236,5244.825546090547 3903.4664356700832,5260.057827932106 3903.4664356700832,5282.9062506944465" class="contours" style="fill:none;stroke:white;stroke-width:1px;stroke-linejoin:round"/><polyline points="5075.264117338677,4661.844577427197 5052.415694576337,4661.844577427197 5044.107177208213,4665.998836111258 5052.415694576337,4672.091748847883 5075.264117338677,4672.091748847883" class="contours" style="fill:none;stroke:white;stroke-width:1px;stroke-linejoin:round"/><polyline points="2836.1186866293306,4825.937818296041 2858.9671093916704,4825.937818296041 2881.8155550024107,4803.089372685301 2904.663954916351,4757.392572857375 2904.6639625324897,4757.39252716062 2904.663954916351,4757.392481463867 2895.5245858114154,4711.695681635939 2897.0478139955712,4665.998836111258 2904.663954916351,4643.150436197319 2908.818213600413,4620.3019905865785 2916.088166297521,4574.605145061898 2935.1285185994716,4528.908299537217 2904.663954916351,4517.484088156047 2858.9671093916704,4506.059865350671 2836.1186866293306,4506.059865350671" class="contours" style="fill:none;stroke:white;stroke-width:1px;stroke-linejoin:round"/><polyline points="5075.264117338677,5005.230712888594 5052.415694576337,5005.230712888594 5006.718849051656,5015.158228615372 4979.001090290785,5031.573600308703 4961.022003526976,5042.764664518829 4920.280237637501,5077.270445833384 4915.325158002295,5080.97559547052 4898.874293613411,5077.270445833384 4869.628312477615,5063.475171712726 4832.055350601767,5031.573600308703 4823.931466952935,4998.339530836209 4817.076940124233,4985.8767547840225 4778.234623415073,4940.179909259342 4778.234621428254,4940.179907431469 4732.537775903574,4917.331483958288 4686.840930378893,4904.637918295703 4656.376366695773,4894.483063734661 4641.144084854212,4891.219003340042 4610.679521171092,4894.483063734661 4595.447239329533,4896.310937555649 4549.750393804852,4918.854714681158 4504.053548280171,4930.1266032439125 4458.35670275549,4940.1799080567935 4458.356697678064,4940.179909259342 4412.659857230809,4960.743489745449 4366.963011706129,4970.644472942463 4321.266166181449,4972.820513205543 4275.5693206567685,4969.259720047776 4245.104756973647,4985.8767547840225 4229.872475132087,5001.109036625583 4184.175629607407,5031.573598231574 4138.478784082726,5016.3413184671435 4092.7819385580456,4989.532502425997 4086.689025821422,4985.8767547840225 4047.0850954384623,4940.179909259342 4047.085093033365,4940.179886410942 4035.660881652195,4894.483063734661 4001.388247508685,4874.898701366941 3978.539827602397,4848.786218209982 3968.15417803619,4803.089372685301 3958.37945172075,4757.39252716062 3955.691401984004,4753.877385197184 3923.434805143053,4711.695681635939 3909.9945564593236,4697.415417409477 3878.5779751611058,4665.998836111258 3864.297710934643,4653.305267909959 3818.6008654099624,4623.817132550015 3814.0311808574943,4620.3019905865785 3772.9040198852817,4597.453565285525 3731.7768589130696,4574.605145061898 3727.207174360601,4572.618325691259 3681.5103288359205,4559.372863220337 3635.81348331124,4541.964541115697 3609.70100015428,4528.908299537217 3590.1166377865597,4519.116118353357 3544.419792261879,4515.199245879813 3498.7229467371985,4515.4680508534875 3453.026101212518,4509.323937169497 3425.6079938977095,4528.908299537217 3425.6079938977095,4574.605145061898 3453.026101212518,4608.877779205408 3459.554222001758,4620.3019905865785 3453.026101212518,4643.150390500518 3430.1776556017776,4665.998836111258 3407.3292556878373,4711.695635939186 3407.329249975733,4711.695681635939 3399.7131147670575,4757.39252716062 3399.7131147670575,4803.089372685301 3384.480810077097,4848.786218209982 3361.632410163157,4894.483018037908 3361.632402547018,4894.483063734661 3361.632410163157,4894.483067249803 3361.6324558599104,4894.483063734661 3407.3292556878373,4871.6346638207215 3410.5933160824575,4894.483063734661 3436.1904212823724,4940.179909259342 3420.657502299203,4985.8767547840225 3414.2530201612735,5031.573600308703 3423.73325151721,5077.270445833384 3423.3231516214755,5122.967291358065 3412.139449953593,5168.664136882745 3407.3292556878373,5188.973846004826 3400.405491214401,5214.360982407426 3389.8569323989886,5260.057827932106 3389.8569323989886,5282.9062506944465" class="contours" style="fill:none;stroke:white;stroke-width:1px;stroke-linejoin:round"/><polyline points="3133.148182539754,4432.944923935388 3178.8449823676806,4437.514608487856 3178.8450280644347,4437.514623720128 3201.693443210637,4483.211454012537 3206.263135379243,4528.908299537217 3187.9843971693704,4574.605145061898 3178.8450280644347,4589.837426903458 3148.380464381314,4620.3019905865785 3133.148182539754,4665.998790414505 3133.148159691354,4665.998836111258 3087.4513370150735,4696.463399794379 3041.754491490393,4688.847247449394 2996.057668814112,4665.998836111258 2996.0576459657123,4665.998790414505 2988.441505044932,4620.3019905865785 2996.0576459657123,4608.877779205408 3030.3302801092227,4574.605145061898 3041.754491490393,4551.756745147957 3064.602937101133,4528.908299537217 3087.4513370150735,4506.059899623277 3096.5907061200096,4483.211454012537 3124.008813434818,4437.514608487856 3133.148182539754,4432.944923935388" class="contours" style="fill:none;stroke:white;stroke-width:1px;stroke-linejoin:round"/><polyline points="5075.264117338677,4992.865684099563 5052.415694576337,4992.865684099563 5006.718849051656,5004.954078643841 4961.771132142135,5031.573600308703 4961.022003526976,5032.039894650792 4915.325158002295,5064.967448961354 4869.628312477615,5043.64446516428 4855.411516092159,5031.573600308703 4843.37693313365,4985.8767547840225 4823.931468015651,4940.179909259342 4823.931466952935,4940.179907501772 4778.234621428254,4898.138811376636 4772.522515737669,4894.483063734661 4732.537775903574,4870.788403092235 4686.840930378893,4856.733495692534 4641.144084854212,4853.682308801911 4595.447239329533,4869.962805160443 4551.737213175489,4894.483063734661 4549.750393804852,4895.498549190766 4504.053548280171,4909.10605430256 4458.35670275549,4912.521292231246 4412.659857230809,4918.119363143979 4366.963011706129,4917.331484419873 4321.266166181449,4924.947627417782 4275.5693206567685,4925.491637483552 4229.872475132087,4927.717133207157 4218.448263750917,4940.179909259342 4184.175629607407,4983.471657651145 4138.478784082726,4980.164649093438 4100.093433841995,4940.179909259342 4092.7819385580456,4917.331480784897 4085.4704432740973,4894.483063734661 4057.2399475944057,4848.786218209982 4047.085093033365,4839.6468491050455 4015.295983103152,4803.089372685301 4013.691244380714,4757.39252716062 4001.388247508685,4725.404735293344 3991.5960663248243,4711.695681635939 3955.691401984004,4683.769831593079 3938.8557220538587,4665.998836111258 3909.9945564593236,4639.886352954299 3888.3486822634222,4620.3019905865785 3864.297710934643,4602.726280769393 3818.6008654099624,4576.591964432536 3815.55440904165,4574.605145061898 3772.9040198852817,4549.014911568077 3731.015244820991,4528.908299537217 3727.207174360601,4526.831170195186 3681.5103288359205,4502.45223107556 3644.9528524161765,4483.211454012537 3635.81348331124,4476.181170085662 3590.1166377865597,4446.653977592792 3544.419792261879,4455.793346697728 3498.722954353337,4437.514608487856 3498.7229467371985,4437.514599348491 3453.026101212518,4395.972021647238 3443.8867321075822,4391.8177629631755 3407.3292556878373,4378.761521384696 3361.632410163157,4366.892210858805 3315.935564638476,4365.705279806215 3270.2387191137955,4373.539024753303 3251.9599809039237,4391.8177629631755 3263.7105983245556,4437.514608487856 3270.2387191137955,4446.653977592792 3288.5174573236677,4483.211454012537 3291.0100125341046,4528.908299537217 3288.5174573236677,4574.605145061898 3285.471000955356,4620.3019905865785 3270.2387191137955,4665.998820878988 3270.23870997443,4665.998836111258 3247.390288735317,4711.695681635939 3232.1580145098956,4757.39252716062 3224.5418735891153,4765.0086680814 3178.8450280644347,4785.953055613545 3133.148182539754,4780.240946114891 3110.299755969344,4803.089372685301 3097.996762905384,4848.786218209982 3102.6836188566335,4894.483063734661 3133.148182539754,4920.595546891622 3148.380464381314,4940.179909259342 3178.8450280644347,4979.348633994783 3185.3731488536746,4985.8767547840225 3224.5418735891153,5005.461117151743 3265.1612918332758,5031.573600308703 3270.2387191137955,5038.1017210979435 3309.407443849236,5077.270445833384 3315.935564638476,5092.502727674944 3361.632410163157,5111.543079976895 3366.202094715625,5122.967291358065 3369.57968764571,5168.664136882745 3368.5561746365934,5214.360982407426 3361.632410163157,5247.001586353626 3346.4001283215966,5260.057827932106 3346.4001283215966,5282.9062506944465" class="contours" style="fill:none;stroke:white;stroke-width:1px;stroke-linejoin:round"/><polyline points="5075.264117338677,4729.168004924788 5052.415694576337,4729.168004924788 5006.718849051656,4754.623021371246 5002.149164499188,4757.39252716062 4961.022003526976,4769.855303212806 4915.325158002295,4777.584156578502 4871.91315475385,4757.39252716062 4887.46122780432,4711.695681635939 4869.628312477615,4675.138205216195 4855.567744623868,4665.998836111258 4823.931466952935,4656.859467006323 4778.234621428254,4645.598458644884 4732.537775903574,4632.327476250967 4686.840930378893,4628.968633703328 4641.144084854212,4645.967342182632 4596.83199222422,4665.998836111258 4595.447239329533,4666.691212558602 4549.750393804852,4684.650609794802 4504.053548280171,4676.879037426659 4485.013195978221,4665.998836111258 4458.35670275549,4647.182487954037 4412.659857230809,4631.054189533563 4386.54737407385,4620.3019905865785 4366.963011706129,4602.023252376706 4321.266166181449,4584.22553359341 4290.801602498328,4574.605145061898 4275.5693206567685,4568.0770242726585 4229.872475132087,4554.61277514485 4184.175629607407,4540.332510918387 4158.788493204806,4528.908299537217 4138.478784082726,4512.29126480097 4121.643104152581,4483.211454012537 4114.542341188846,4437.514608487856 4129.910625546849,4391.8177629631755 4138.478784082726,4381.2723370728645 4184.175629607407,4346.120920294547 4184.175635319511,4346.120917438496 4229.872475132087,4315.656353755375 4252.7209036065315,4300.424071913815 4275.5693206567685,4269.959508230694 4321.266166181449,4266.151437770303 4366.963011706129,4278.663669283014 4412.659857230809,4279.333220133192 4458.35670275549,4271.4827364148505 4504.053548280171,4263.295384925012 4549.750393804852,4256.071251257507 4558.889762909787,4254.727226389134 4595.447239329533,4246.023065336814 4641.144084854212,4236.033062310856 4686.840930378893,4227.309119074325 4732.537775903574,4236.448488179262 4778.234621428254,4251.4631659945135 4823.931466952935,4250.572967705072 4869.628266780861,4254.727226389134 4869.628312477615,4254.72723781334 4877.936829845739,4300.424071913815 4890.719164258237,4346.120917438496 4915.325158002295,4366.1132873555425 4949.597792145807,4391.8177629631755 4961.022003526976,4405.52681662058 4982.34719810516,4437.514608487856 5006.718849051656,4460.363034106249 5039.952918524152,4483.211454012537 5052.415694576337,4489.739574801776 5075.264117338677,4489.739574801776" class="contours" style="fill:none;stroke:white;stroke-width:1px;stroke-linejoin:round"/><polyline points="3091.4249757563502,4254.727226389134 3087.4513370150735,4247.111085468354 3041.754491490393,4215.3771649651035 3010.2744423511685,4254.727226389134 3020.500144734727,4300.424071913815 3041.754491490393,4329.905907736189 3087.4513370150735,4337.812400070371 3103.9022014039583,4300.424071913815 3091.4249757563502,4254.727226389134" class="contours" style="fill:none;stroke:white;stroke-width:1px;stroke-linejoin:round"/><polyline points="3041.754493066146,4254.727226389134 3041.754491490393,4254.727225119777 3041.7544904749075,4254.727226389134 3041.754491490393,4254.727230543392 3041.754493066146,4254.727226389134" class="contours" style="fill:none;stroke:white;stroke-width:1px;stroke-linejoin:round"/><polyline points="3041.754493066146,4254.727226389134 3041.754491490393,4254.727225119777 3041.7544904749075,4254.727226389134 3041.754491490393,4254.727230543392 3041.754493066146,4254.727226389134" class="contours" style="fill:none;stroke:white;stroke-width:1px;stroke-linejoin:round"/><polyline points="3113.2799888333707,4209.030380864453 3087.4513370150735,4169.426448076397 3041.754491490393,4184.83793323374 3020.1086172944915,4209.030380864453 2996.0576459657123,4240.545446743543 2986.493189925663,4254.727226389134 2996.057644491621,4300.424071913815 2996.0576459657123,4300.424074452528 3023.4757532805206,4346.120917438496 3041.754491490393,4374.98208303303 3087.4513370150735,4389.740633621145 3133.148182539754,4364.399655648367 3163.612746222874,4346.120917438496 3173.13292237385,4300.424071913815 3141.456699907878,4254.727226389134 3133.148182539754,4247.111085468354 3113.2799888333707,4209.030380864453" class="contours" style="fill:none;stroke:white;stroke-width:1px;stroke-linejoin:round"/><polyline points="2836.1186866293306,4102.404407973532 2858.9671093916704,4102.404407973532 2904.663954916351,4071.9398595226835 2904.663959486035,4071.9398442904117 2904.663954916351,4071.9398290581403 2870.3913207728406,4026.2429987657315 2858.9671093916704,4003.394553154991 2836.1186866293306,4003.394553154991" class="contours" style="fill:none;stroke:white;stroke-width:1px;stroke-linejoin:round"/><polyline points="4001.38825664805,3843.4556166670086 4001.388247508685,3843.455611589583 4001.3882018119307,3843.4556166670086 3955.691401984004,3851.071757587789 3909.9945564593236,3873.920180350129 3891.7158182494513,3889.1524621916897 3864.297710934643,3912.000877337892 3818.6008654099624,3934.849302004266 3818.6008539857567,3934.84930771637 3772.9040198852817,3980.546141816845 3772.9040046530104,3980.546153241051 3772.9040198852817,3980.5461760894505 3818.6008425615623,4026.2429987657315 3818.6008654099624,4026.243003843157 3818.6009111067165,4026.2429987657315 3864.297710934643,4017.103629660795 3909.9945564593236,4000.1305156087706 3955.691401984004,3987.0742740302903 3964.8307710889403,3980.546153241051 4001.388247508685,3950.0815895579303 4031.8528111918054,3934.84930771637 4047.085093033365,3912.00090780243 4052.7971987239503,3889.1524621916897 4047.085093033365,3881.53632127091 4001.38825664805,3843.4556166670086" class="contours" style="fill:none;stroke:white;stroke-width:1px;stroke-linejoin:round"/><polyline points="5075.264117338677,4984.084721626193 5052.415694576337,4984.084721626193 5049.369238208025,4985.8767547840225 5006.718849051656,4998.299198227625 4961.022003526976,5022.928251155386 4943.731305220341,5031.573600308703 4915.325158002295,5051.785666598466 4871.53234770781,5031.573600308703 4869.628312477615,5028.058458345266 4857.961032769186,4985.8767547840225 4839.872227019684,4940.179909259342 4823.931466952935,4913.816344533565 4802.987079420789,4894.483063734661 4778.234621428254,4876.481276103727 4736.692034587636,4848.786218209982 4732.537775903574,4844.978147749591 4686.840930378893,4830.168984848075 4641.144084854212,4834.355635412714 4606.8714507107015,4848.786218209982 4595.447239329533,4853.244447041658 4549.750393804852,4878.4891678010235 4507.100004648482,4894.483063734661 4504.053548280171,4895.3970006451555 4458.356748452244,4894.483063734661 4458.35670275549,4894.4830623066355 4412.659857230809,4894.483061657533 4366.963011706129,4886.8669228138815 4330.405535286385,4894.483063734661 4321.266166181449,4896.387098964857 4275.5693206567685,4901.011184523903 4229.872475132087,4896.5601930766925 4189.887735297992,4940.179909259342 4184.175629607407,4947.395200657977 4138.478784082726,4951.6041206405125 4127.511541156802,4940.179909259342 4108.996948260352,4894.483063734661 4094.6098123790325,4848.786218209982 4092.7819385580456,4846.381121077104 4047.085093033365,4805.374214961535 4045.098273662727,4803.089372685301 4040.054809106491,4757.39252716062 4026.313799613056,4711.695681635939 4001.388247508685,4686.770129531568 3976.0011111060844,4665.998836111258 3955.691401984004,4648.590514006619 3924.425139256591,4620.3019905865785 3909.9945564593236,4608.877779205408 3864.297710934643,4576.362716043616 3861.251254566331,4574.605145061898 3818.6008654099624,4549.014911568077 3785.08984535853,4528.908299537217 3772.9040198852817,4521.292158616437 3727.207174360601,4495.674230064723 3706.116322579979,4483.211454012537 3681.5103288359205,4467.217558078898 3646.5656822582237,4437.514608487856 3635.81348331124,4429.206091119732 3590.1166377865597,4416.423756707235 3544.4197955259388,4391.8177629631755 3544.419792261879,4391.817760424462 3498.7229467371985,4367.766791634396 3453.026101212518,4349.1673738068075 3445.409960291738,4346.120917438496 3407.3292556878373,4333.427349237195 3361.632410163157,4315.656353755375 3328.9918062169563,4300.424071913815 3315.935564638476,4294.331159177191 3270.2387191137955,4273.767578691084 3237.598115167595,4254.727226389134 3224.5418735891153,4248.63431365251 3178.8450280644347,4233.636374608512 3152.188534841704,4209.030380864453 3133.148182539754,4195.590132180724 3111.2136966879075,4163.333535339772 3087.4513370150735,4137.504883521475 3045.018551885013,4163.333535339772 3041.754491490393,4164.677560208146 3002.070388797907,4209.030380864453 2996.0576459657123,4216.909147334226 2970.552429858914,4254.727226389134 2973.946269098931,4300.424071913815 2996.0576459657123,4338.504776517715 3000.6273305181808,4346.120917438496 3017.3828405438967,4391.8177629631755 2996.0576459657123,4423.805554830451 2976.473283597992,4437.514608487856 2950.360800441032,4452.746890329417 2913.803324021287,4437.514608487856 2904.663954916351,4414.666162877116 2881.8155550024107,4391.8177629631755 2868.106478496607,4346.120917438496 2893.239743535181,4300.424071913815 2904.663954916351,4269.959508230694 2906.9487971925855,4254.727226389134 2904.663957201193,4209.030380864453 2914.8188094773914,4163.333535339772 2950.360800441032,4136.677042117042 2965.5930822825917,4117.636689815093 2971.132093861341,4071.9398442904117 2962.8235764932174,4026.2429987657315 2950.360800441032,3998.8248914509227 2942.052283072908,3980.546153241051 2922.2396647335363,3934.84930771637 2907.928015310971,3889.1524621916897 2904.663954916351,3882.6243414024498 2874.199391233231,3843.4556166670086 2858.9671093916704,3830.9928406148233 2836.1186866293306,3830.9928406148233" class="contours" style="fill:none;stroke:white;stroke-width:1px;stroke-linejoin:round"/><polyline points="5075.264117338677,4758.11787391498 5052.415694576337,4758.11787391498 5006.718849051656,4771.89946224782 4961.022003526976,4785.087585054366 4915.325158002295,4800.963938009734 4903.9009466211255,4803.089372685301 4869.628312477615,4806.650165843068 4862.218013203343,4803.089372685301 4845.637468577158,4757.39252716062 4860.4889433726785,4711.695681635939 4823.931466952935,4682.0544845388495 4786.802779964131,4665.998836111258 4778.234621428254,4663.550790815294 4732.537775903574,4649.964855225407 4686.840930378893,4646.301919936827 4641.144084854212,4659.738994258563 4627.296555907339,4665.998836111258 4595.447239329533,4681.923494400163 4549.750393804852,4705.167560846699 4504.053548280171,4700.81548032054 4458.35670275549,4673.946113593813 4427.892139072369,4665.998836111258 4412.659857230809,4660.622736637767 4366.963011706129,4647.381602749352 4321.266166181449,4630.96458787567 4275.569327184887,4620.3019905865785 4275.5693206567685,4620.301988301736 4229.872475132087,4607.245749008098 4184.175629607407,4587.933391673263 4155.095818818974,4574.605145061898 4138.478784082726,4566.296627693773 4092.7819385580456,4531.447013177477 4090.0938888213,4528.908299537217 4067.394802155445,4483.211454012537 4065.3638312432377,4437.514608487856 4071.136064362144,4391.8177629631755 4084.213780022168,4346.120917438496 4078.721370704298,4300.424071913815 4080.3191625058603,4254.727226389134 4092.7819385580456,4243.303015007964 4138.478784082726,4209.030385018712 4138.478790610845,4209.030380864453 4184.175629607407,4192.194700934308 4229.872475132087,4174.085734286757 4248.151213341959,4163.333535339772 4275.5693206567685,4148.101253498213 4321.266166181449,4129.060901196262 4344.114594655893,4117.636689815093 4366.963011706129,4104.580448236612 4412.659857230809,4091.524206658132 4449.217333650554,4117.636689815093 4452.644597064906,4163.333535339772 4435.508272377012,4209.030380864453 4458.35670275549,4218.822562048314 4504.053548280171,4216.245672263088 4538.326182423681,4209.030380864453 4549.750393804852,4197.606169483283 4595.447239329533,4163.333544479138 4595.447254561803,4163.333535339772 4618.295684940272,4117.636689815093 4595.447239329533,4102.404407973532 4549.750393804852,4094.7882442043524 4504.053593976924,4071.9398442904117 4504.053548280171,4071.9397985936575 4492.629336899,4026.2429987657315 4492.629336899,3980.546153241051 4490.997306701691,3934.84930771637 4469.78091413666,3889.1524621916897 4458.35670275549,3873.920180350129 4440.077964545619,3843.4556166670086 4412.659880079209,3797.758771142328 4458.35670275549,3752.0619484660474 4504.053525431771,3797.758771142328 4504.053548280171,3797.7587825665337 4549.750393804852,3828.223334825449 4572.598793718792,3843.4556166670086 4595.447239329533,3854.8798280481788 4641.144084854212,3873.920180350129 4659.422823064085,3889.1524621916897 4686.840930378893,3908.7368245594093 4717.305494062014,3934.84930771637 4732.537775903574,3946.27351909754 4771.706500639015,3980.546153241051 4778.234621428254,3985.6235805215706 4823.931461240831,4026.2429987657315 4823.931466952935,4026.2430063818697 4836.39424300512,4071.9398442904117 4861.060153941738,4117.636689815093 4869.628312477615,4126.20484835097 4888.7915057621585,4163.333535339772 4903.9009466211255,4209.030380864453 4915.325158002295,4234.417517267054 4921.41807073892,4254.727226389134 4925.480012563336,4300.424071913815 4961.022003526976,4335.9660628774545 4968.05228745385,4346.120917438496 5002.366768525497,4391.8177629631755 5006.718849051656,4397.529868653761 5052.415694576337,4422.282326646296 5075.264117338677,4422.282326646296" class="contours" style="fill:none;stroke:white;stroke-width:1px;stroke-linejoin:round"/><polyline points="4412.659857230809,3740.6377142364777 4458.356657058737,3752.061925617648 4412.659857230809,3797.7587254455743 4389.81145731687,3752.061925617648 4412.659857230809,3740.6377142364777" class="contours" style="fill:none;stroke:white;stroke-width:1px;stroke-linejoin:round"/><polyline points="5075.264117338677,4955.412191100902 5052.415694576337,4955.412191100902 5006.718849051656,4981.307070231555 5001.006743361072,4985.8767547840225 4961.022003526976,5003.167453090659 4915.325158002295,5015.755461473237 4894.329310058522,4985.8767547840225 4875.340418168201,4940.179909259342 4869.628312477615,4909.715345576222 4865.654673736339,4894.483063734661 4823.931466952935,4850.863347552012 4820.416324989497,4848.786218209982 4778.234621428254,4829.877178682527 4749.462533505307,4803.089372685301 4732.537775903574,4779.038401356521 4686.840930378893,4769.855303212806 4641.144084854212,4790.033131106821 4621.559722486492,4803.089372685301 4595.447239329533,4813.24422724634 4549.750393804852,4836.323442157795 4519.28583012173,4848.786218209982 4504.053548280171,4852.8182928151 4458.356717987762,4848.786218209982 4458.35670275549,4848.7862149459215 4412.659857230809,4816.145614263781 4366.963011706129,4819.9250526154465 4321.266166181449,4827.140344014079 4275.5693206567685,4829.96987005276 4229.872475132087,4832.657919789506 4184.175629607407,4843.074112519395 4144.190889773311,4803.089372685301 4138.478784082726,4798.011945404781 4108.014220399606,4757.39252716062 4092.7819385580456,4731.28004400366 4087.2983170950843,4711.695681635939 4047.085093033365,4667.985655481897 4045.098273662727,4665.998836111258 4001.388247508685,4630.094171770438 3990.4210045827613,4620.3019905865785 3955.691401984004,4589.293416837689 3937.8100276482596,4574.605145061898 3909.9945564593236,4547.948651839168 3881.434028006398,4528.908299537217 3864.297710934643,4513.676017695658 3818.600869218032,4483.211454012537 3818.6008654099624,4483.211451473823 3772.9040198852817,4454.350288418002 3748.298026141223,4437.514608487856 3727.207174360601,4423.0840256905885 3690.0784873717985,4391.8177629631755 3681.5103288359205,4381.2723370728645 3635.81348331124,4361.353199280055 3590.1166377865597,4350.690601990963 3584.4045320959744,4346.120917438496 3544.419792261879,4303.470528282127 3538.707686571294,4300.424071913815 3498.7229467371985,4277.575645887415 3453.026101212518,4263.295384925012 3433.441738844798,4254.727226389134 3407.3292556878373,4240.666658535386 3361.632410163157,4215.558501653693 3346.4001283215966,4209.030380864453 3315.935564638476,4192.413346128206 3270.2387191137955,4167.141605800163 3262.6225781930157,4163.333535339772 3224.5418735891153,4140.485108007749 3191.9012696429145,4117.636689815093 3178.8450280644347,4107.481835254052 3133.148182539754,4089.076161362167 3117.915900698194,4071.9398442904117 3107.7610461371537,4026.2429987657315 3087.4513370150735,3989.6855223459866 3082.3739097345533,3980.546153241051 3041.7544980185116,3934.84930771637 3041.754491490393,3934.849298577005 3020.9831980700837,3889.1524621916897 2996.0576510431383,3843.4556166670086 2996.0576459657123,3843.4556090508704 2961.7850118222023,3797.758771142328 2950.360800441032,3784.702529563848 2924.9736640384317,3752.061925617648 2904.663954916351,3735.4448908814006 2858.9671093916704,3713.981221013747 2836.1186866293306,3713.981221013747" class="contours" style="fill:none;stroke:white;stroke-width:1px;stroke-linejoin:round"/><polyline points="5075.264117338677,4848.786209070616 5052.415694576337,4848.786209070616 5052.4156717279375,4848.786218209982 5052.415688864233,4894.483063734661 5035.5800146461925,4940.179909259342 5006.718849051656,4953.888962916746 4966.734109217561,4985.8767547840225 4961.022003526976,4988.346854542114 4944.404968790729,4985.8767547840225 4915.325158002295,4956.79694399559 4909.613052311711,4940.179909259342 4915.325158002295,4903.622432839598 4918.181210847588,4894.483063734661 4915.325158002295,4889.913379182194 4883.688880331363,4848.786218209982 4869.628312477615,4846.412356104803 4823.931466952935,4830.972193683411 4785.673642792737,4803.089372685301 4778.234621428254,4784.273024528079 4759.955883218381,4757.39252716062 4732.537775903574,4727.590236601046 4686.840930378893,4714.100778768817 4641.144084854212,4716.265366188408 4595.447239329533,4755.564653339632 4592.400782961219,4757.39252716062 4549.750393804852,4786.472337949053 4504.053548280171,4792.934518124261 4458.35670601955,4757.39252716062 4458.35670275549,4757.392525584866 4412.659857230809,4748.253158055684 4366.963011706129,4749.77638623984 4321.266166181449,4757.392524304568 4275.5693206567685,4757.392523645478 4229.872475132087,4743.331959306872 4184.175629607407,4719.31182255672 4175.036260502471,4711.695681635939 4138.478784082726,4693.4169434260675 4099.310059347286,4665.998836111258 4092.7819385580456,4662.613884590912 4047.085093033365,4632.094724915529 4033.0245251796177,4620.3019905865785 4001.388247508685,4592.88388327177 3981.0785383866046,4574.605145061898 3955.691401984004,4543.448204931434 3940.4591201424437,4528.908299537217 3909.9945564593236,4488.923559703122 3903.4664356700832,4483.211454012537 3864.297710934643,4446.653977592792 3849.065429093083,4437.514608487856 3818.6008654099624,4414.666181917446 3784.328231266452,4391.8177629631755 3772.9040198852817,4382.678393858239 3727.207180072706,4346.120917438496 3727.207174360601,4346.120902206224 3710.070857288846,4300.424071913815 3681.5103288359205,4262.343367309914 3666.278046994361,4254.727226389134 3635.81348331124,4239.494944547574 3590.116649210765,4209.030380864453 3590.1166377865597,4209.030371725088 3544.419792261879,4193.798099022893 3498.7229467371985,4176.389776918253 3475.874535399064,4163.333535339772 3453.026101212518,4140.485101153227 3407.3292785362373,4117.636689815093 3453.026101212518,4071.939867138811 3498.7229467371985,4071.9398595226835 3498.7229695855985,4071.9398442904117 3544.419792261879,4041.475280607291 3559.652074103439,4026.2429987657315 3544.419807494151,3980.546153241051 3544.419792261879,3980.546148671367 3498.7229467371985,3960.23644411897 3453.026101212518,3940.561413406955 3407.3293013845914,3934.84930771637 3407.3292556878373,3934.8493031466865 3407.329209991083,3934.84930771637 3361.632410163157,3942.46544863715 3315.935564638476,3943.988676821306 3293.087164724536,3934.84930771637 3270.2387191137955,3925.709938611434 3224.5418735891153,3902.2087037701694 3194.0773099059943,3889.1524621916897 3178.8450280644347,3880.013093086753 3133.14819396396,3843.4556166670086 3133.148182539754,3843.455593818609 3120.091940961274,3797.758771142328 3087.451346154439,3752.061925617648 3087.4513370150735,3752.0619180015096 3041.754491490393,3713.981221013747 3030.3302801092227,3706.365080092967 2996.0576459657123,3683.5166497144887 2961.7850118222023,3660.668234568287 2950.360800441032,3654.9561288777013 2904.663954916351,3630.203670885166 2858.9671093916704,3619.1256477276684 2836.1186866293306,3619.1256477276684" class="contours" style="fill:none;stroke:white;stroke-width:1px;stroke-linejoin:round"/><polyline points="4001.3882018119307,3500.729275231905 4001.3882018119307,3523.577697994245 3955.691401984004,3546.426097908185 3932.842956373264,3569.2745435189254 3909.9945564593236,3573.0826139793157 3864.297710934643,3581.737319571111 3818.6008654099624,3586.410860590681 3772.9040198852817,3596.6926508337338 3754.62528167541,3614.9713890436065 3750.055589506803,3660.668234568287 3732.9192800511864,3706.365080092967 3727.207174360601,3712.0771857835525 3687.222434526506,3752.061925617648 3681.5103288359205,3755.8699960780373 3635.81348331124,3777.449062020248 3590.1166377865597,3797.7587646142097 3544.419792261879,3797.7587646142097 3498.7229467371985,3754.749975354394 3496.73612736656,3752.061925617648 3477.6320949565766,3706.365080092967 3475.874531590997,3660.668234568287 3498.7229467371985,3637.819819422085 3518.3073091049187,3614.9713890436065 3544.419792261879,3578.413912623862 3552.035933182659,3569.2745435189254 3571.8378995766875,3523.577697994245 3571.8378995766875,3500.729275231905" class="contours" style="fill:none;stroke:white;stroke-width:1px;stroke-linejoin:round"/><polyline points="5075.264117338677,4768.27272847602 5052.415694576337,4768.27272847602 5006.718849051656,4782.05431680886 4961.022003526976,4794.780855317177 4938.173578860601,4803.089372685301 4915.325158002295,4812.8815538691615 4869.628312477615,4814.958683211191 4844.927314896707,4803.089372685301 4829.64357264352,4757.39252716062 4839.163748794495,4711.695681635939 4823.931466952935,4699.345182845485 4778.234621428254,4679.226870342088 4748.666074324049,4665.998836111258 4732.537775903574,4661.188641845503 4686.840930378893,4657.33219299451 4653.329910327461,4665.998836111258 4641.144084854212,4669.262896505879 4595.447239329533,4691.616764662974 4558.635891545762,4711.695681635939 4549.750393804852,4718.649549433173 4504.053548280171,4715.946550987072 4497.525427490931,4711.695681635939 4458.35670275549,4687.85384918828 4412.659857230809,4676.626009489092 4366.963011706129,4669.806906571649 4355.538800324959,4665.998836111258 4321.266166181449,4652.289782453855 4275.5693206567685,4641.6271851647625 4229.872475132087,4633.358232165058 4196.6384056595925,4620.3019905865785 4184.175629607407,4614.589884895993 4138.478784082726,4592.180854879083 4103.327364448357,4574.605145061898 4092.7819385580456,4566.989004141118 4052.461192506857,4528.908299537217 4047.085093033365,4517.484088156047 4033.376039375961,4483.211454012537 4030.9567946128896,4437.514608487856 4035.660881652195,4391.8177629631755 4044.038636665053,4346.120917438496 4034.391524832065,4300.424071913815 4029.94877596161,4254.727226389134 4047.085093033365,4229.801674284763 4069.933520365389,4209.030380864453 4092.7819385580456,4193.798099022893 4138.478784082726,4171.39768455001 4165.896891397535,4163.333535339772 4184.175629607407,4156.303251412899 4229.872475132087,4132.868971656652 4262.513079078289,4117.636689815093 4275.5693206567685,4109.328172446969 4321.266166181449,4084.996085868892 4344.114594655893,4071.9398442904117 4366.963011706129,4049.0914272401756 4393.07549486309,4026.2429987657315 4412.659857230809,3980.5461684733227 4412.6598629429145,3980.546153241051 4412.659857230809,3980.546138008779 4389.811442084609,3934.84930771637 4366.963018234249,3889.1524621916897 4366.963011706129,3889.152454575551 4327.794286970689,3843.4556166670086 4321.266166181449,3835.839475746229 4292.705637728523,3797.758771142328 4275.5693206567685,3774.91034076385 4255.984958289047,3752.061925617648 4229.872475132087,3729.213497143203 4203.7599919751265,3706.365080092967 4184.175629607407,3686.7807177252466 4153.711065924287,3660.668234568287 4138.478784082726,3647.611992989807 4092.7819385580456,3625.516814933917 4065.3638312432377,3614.9713890436065 4047.085093033365,3607.355248122826 4001.388247508685,3603.5471776624363 3955.691401984004,3614.971385528465 3955.6913867517324,3614.9713890436065 3909.9945564593236,3622.587529964386 3864.297710934643,3636.062240824228 3832.309919067366,3660.668234568287 3818.6008654099624,3683.5166497144887 3804.8918117525577,3706.365080092967 3772.9040198852817,3738.3528719602436 3759.1949662278776,3752.061925617648 3727.207174360601,3778.718418840378 3698.646645907676,3797.758771142328 3681.5103288359205,3806.8981402472646 3635.81348331124,3828.223334825449 3590.1166377865597,3840.409160298697 3544.419792261879,3835.391467456771 3504.4350524277834,3797.758771142328 3498.7229467371985,3792.382671668837 3468.920656177624,3752.061925617648 3453.026101212518,3727.6902746711517 3436.1904212823724,3706.365080092967 3407.3292556878373,3669.807603673223 3399.2651064775996,3660.668234568287 3379.911148373029,3614.9713890436065 3407.3292556878373,3569.2745587511968 3407.3292709201087,3569.2745435189254 3407.3292709201087,3523.577697994245 3407.3292709201087,3500.729275231905" class="contours" style="fill:none;stroke:white;stroke-width:1px;stroke-linejoin:round"/><polyline points="4659.422823064085,3500.729275231905 4659.422823064085,3523.577697994245 4641.144084854212,3569.2745206705254 4641.144039157459,3569.2745435189254 4595.447239329533,3592.122943432866 4549.750393804852,3614.971366195206 4549.750348108098,3614.9713890436065 4549.750393804852,3614.9713966597446 4595.447239329533,3622.587529964386 4641.144084854212,3637.819823230152 4663.992496192348,3660.668234568287 4686.840930378893,3691.132798251407 4694.457071299674,3706.365080092967 4732.537766764208,3752.061925617648 4732.537775903574,3752.0619408499197 4749.674092975329,3797.758771142328 4778.234610004049,3843.4556166670086 4778.234621428254,3843.4556623637627 4785.850762349034,3889.1524621916897 4806.79514988118,3934.84930771637 4823.931466952935,3954.4336700840904 4836.117292426183,3980.546153241051 4857.602826813226,4026.2429987657315 4865.474053793553,4071.9398442904117 4869.628312477615,4078.9701282172855 4888.245545839522,4117.636689815093 4909.428790837821,4163.333535339772 4915.325158002295,4177.394103193521 4927.421381817652,4209.030380864453 4942.7432653171045,4254.727226389134 4961.022000988263,4300.424071913815 4961.022003526976,4300.424074452528 4992.658281197909,4346.120917438496 5006.718849051656,4364.399655648367 5045.887573787098,4391.8177629631755 5052.415694576337,4395.625833423565 5075.264117338677,4395.625833423565" class="contours" style="fill:none;stroke:white;stroke-width:1px;stroke-linejoin:round"/><polyline points="4321.266143333048,3500.729275231905 4321.266143333048,3523.577697994245 4298.417731994902,3569.2745435189254 4321.266166181449,3582.330785097406 4366.963011706129,3584.506825360486 4412.659857230809,3587.5532817287976 4458.35670275549,3599.7391072020455 4504.053548280171,3569.274589215679 4504.053571128571,3569.2745435189254 4504.053548280171,3569.2745320947197 4458.35670275549,3546.42610933238 4412.659857230809,3538.8099798358053 4366.963057402883,3523.577697994245 4366.963057402883,3500.729275231905" class="contours" style="fill:none;stroke:white;stroke-width:1px;stroke-linejoin:round"/><polyline points="5075.264117338677,4785.681050580661 5052.415694576337,4785.681050580661 5006.718849051656,4799.462638913501 4993.278600367927,4803.089372685301 4961.022003526976,4817.519955482569 4915.325158002295,4832.465916236881 4869.628312477615,4829.201855842261 4823.931466952935,4808.511032323821 4816.492445588452,4803.089372685301 4801.083045393143,4757.39252716062 4786.298770638492,4711.695681635939 4778.234621428254,4708.088035936622 4732.537775903574,4687.089687891881 4686.840930378893,4680.488079814206 4641.144084854212,4688.847258057584 4595.447239329533,4708.233799399221 4589.100455228881,4711.695681635939 4549.750393804852,4742.491381880833 4504.053548280171,4741.451767093871 4458.356704387521,4711.695681635939 4458.35670275549,4711.69568064253 4412.659857230809,4702.13122559589 4366.963011706129,4700.27147025477 4321.266166181449,4690.4792890709095 4275.5693206567685,4681.23111795282 4229.872475132087,4673.614977032039 4207.024058081851,4665.998836111258 4184.175629607407,4658.68734082731 4138.478784082726,4634.924981154477 4108.014220399606,4620.3019905865785 4092.7819385580456,4612.99049530263 4047.085093033365,4580.317250752483 4040.230566204663,4574.605145061898 4001.388247508685,4535.76282636592 3995.904626045723,4528.908299537217 3979.6278448778844,4483.211454012537 3964.2595605198817,4437.514608487856 3955.6914057920735,4391.8177629631755 3955.691401984004,4391.817717266422 3948.075261063224,4346.120917438496 3909.9945564593236,4308.040212834594 3903.4664356700832,4300.424071913815 3903.4664356700832,4254.727226389134 3909.9945564593236,4239.494944547574 3925.2268383008836,4209.030380864453 3932.8430020700634,4163.333535339772 3955.691401984004,4154.194166234836 4001.388247508685,4148.101253498213 4047.085093033365,4127.791544376132 4069.9335272199114,4117.636689815093 4092.7819385580456,4104.580448236612 4138.478784082726,4071.939850818531 4138.478793222092,4071.9398442904117 4184.175629607407,4033.859139686511 4195.599840988577,4026.2429987657315 4229.872475132087,3991.970364622221 4237.488616052868,3980.546153241051 4242.928716710568,3934.84930771637 4229.872475132087,3916.570569506498 4212.736158060332,3889.1524621916897 4184.175629607407,3851.071757587789 4177.647508818167,3843.4556166670086 4138.478784082726,3809.182982523498 4123.246502241166,3797.758771142328 4092.7819385580456,3761.201294722584 4086.2538177688057,3752.061925617648 4067.394802155445,3706.365080092967 4047.085093033365,3680.252596936007 4001.388262740956,3660.668234568287 4001.388247508685,3660.6682322834445 4001.388236084479,3660.668234568287 3955.691401984004,3677.285269304534 3909.9945564593236,3694.940868711797 3897.531780407138,3706.365080092967 3864.297710934643,3736.8296437760873 3850.237143080895,3752.061925617648 3818.6008654099624,3786.3345597611583 3806.1380893577766,3797.758771142328 3772.9040198852817,3825.8799068498242 3747.5168834826814,3843.4556166670086 3727.207174360601,3857.516184520757 3681.5103288359205,3880.013093086753 3635.81348331124,3889.1524597865923 3635.8134604628403,3889.1524621916897 3590.1166377865597,3893.962656457445 3559.652074103439,3889.1524621916897 3544.419792261879,3887.0753328496585 3498.7229467371985,3861.7343548768813 3479.1385843694784,3843.4556166670086 3453.026101212518,3802.8361984228486 3448.45641666005,3797.758771142328 3418.2094570032377,3752.061925617648 3407.3292556878373,3738.621676933918 3368.160530952397,3706.365080092967 3361.632410163157,3698.748939172187 3328.9918062169563,3660.668234568287 3315.935564638476,3648.4824090950387 3270.2387191137955,3623.2799064117294 3257.1824775353157,3614.9713890436065 3224.5418735891153,3576.8906844397056 3218.013752799875,3569.2745435189254 3213.117662207945,3523.577697994245 3213.117662207945,3500.729275231905" class="contours" style="fill:none;stroke:white;stroke-width:1px;stroke-linejoin:round"/><polyline points="4753.628627684196,3500.729275231905 4753.628627684196,3523.577697994245 4763.002339586695,3569.2745435189254 4778.234621428254,3599.7391072020455 4787.37399053319,3614.9713890436065 4793.466903269814,3660.668234568287 4794.851656164501,3706.365080092967 4813.386041062624,3752.061925617648 4823.931466952935,3769.198242689403 4844.702760373244,3797.758771142328 4869.628309213555,3843.4556166670086 4869.628312477615,3843.4556242831472 4892.476731431886,3889.1524621916897 4895.740795634576,3934.84930771637 4900.894575205028,3980.546153241051 4905.804981851321,4026.2429987657315 4911.517087541905,4071.9398442904117 4915.325158002295,4081.0792133953482 4931.942192738544,4117.636689815093 4943.885686455221,4163.333535339772 4959.677978658603,4209.030380864453 4961.022003526976,4212.545522827891 4988.440110841785,4254.727226389134 5006.718849051656,4285.191790072255 5018.143060432827,4300.424071913815 5041.535493260938,4346.120917438496 5052.415694576337,4354.5832962393615 5075.264117338677,4354.5832962393615" class="contours" style="fill:none;stroke:white;stroke-width:1px;stroke-linejoin:round"/><polyline points="5075.264117338677,4797.286598650421 5052.415694576337,4797.286598650421 5033.1749175133145,4803.089372685301 5006.718849051656,4825.937793370512 4961.022003526976,4836.760732545592 4915.325158002295,4845.522157815361 4869.628312477615,4838.697304262973 4823.931466952935,4820.903397211871 4799.4889681839195,4803.089372685301 4781.84226712757,4757.39252716062 4778.234621428254,4748.824368624742 4745.231344104874,4711.695681635939 4732.537775903574,4705.837111696878 4686.840930378893,4698.320995140911 4641.144084854212,4701.90350045208 4617.302252406553,4711.695681635939 4595.447239329533,4731.8022936667985 4552.796850173164,4757.39252716062 4549.750393804852,4759.469656502652 4504.053548280171,4759.931240800881 4500.78948788555,4757.39252716062 4458.35670275549,4736.907734339212 4412.659857230809,4724.490798382851 4366.963011706129,4725.023928247305 4321.266166181449,4720.263840171818 4275.56933588904,4711.695681635939 4275.5693206567685,4711.695679731904 4229.872475132087,4704.07954071516 4184.175629607407,4689.840668558918 4141.993926046163,4665.998836111258 4138.478784082726,4664.170962290272 4092.7819385580456,4640.611699708659 4060.5253417170948,4620.3019905865785 4047.085093033365,4610.781814435602 4003.6730897849184,4574.605145061898 4001.388247508685,4572.320302785663 3966.6586449099277,4528.908299537217 3955.691401984004,4503.982747432846 3941.4111377575414,4483.211454012537 3909.9945564593236,4441.322678948246 3905.8402977752617,4437.514608487856 3870.009816625228,4391.8177629631755 3864.297710934643,4384.201622042396 3818.6008745493277,4346.120917438496 3818.6008654099624,4346.120906014289 3788.1363017268422,4300.424071913815 3795.7524502637607,4254.727226389134 3772.9040290246476,4209.030380864453 3772.9040198852817,4209.030365632181 3727.2071895928725,4163.333535339772 3750.0556199713415,4117.636689815093 3772.9040198852817,4110.020548894312 3818.6008654099624,4092.249553412492 3864.297710934643,4081.0792133953482 3894.7622746177635,4071.9398442904117 3909.9945564593236,4067.3701597379436 3955.691401984004,4055.322809554164 4001.388247508685,4037.6672101469017 4024.2366816952303,4026.2429987657315 4047.085093033365,4011.0107169241705 4092.7819385580456,3980.546159769169 4092.7819461741838,3980.546153241051 4131.950663293486,3934.84930771637 4123.246502241166,3889.1524621916897 4092.7819385580456,3854.8798280481788 4083.64256945311,3843.4556166670086 4047.085093033365,3810.221547194514 4027.5007306656453,3797.758771142328 4001.388247508685,3774.9103426678844 3955.6914134082094,3752.061925617648 3955.691401984004,3752.0619205402218 3955.6913867517324,3752.061925617648 3909.9945564593236,3774.91034076385 3887.1461260808446,3797.758771142328 3864.297710934643,3820.60718628853 3844.713348566923,3843.4556166670086 3818.6008654099624,3863.7653257890893 3772.9040198852817,3889.1524580374316 3772.904013357163,3889.1524621916897 3727.207174360601,3918.232272980122 3681.5103288359205,3934.8493042012283 3681.5102831391664,3934.84930771637 3635.81348331124,3940.561413406955 3612.9650833972996,3934.84930771637 3590.1166377865597,3932.444210583492 3544.419792261879,3927.23316679559 3498.7229467371985,3910.477656769874 3458.7382069031028,3889.1524621916897 3453.026101212518,3884.07503491117 3407.3292556878373,3869.568099823969 3361.632410163157,3858.6878985085696 3331.167846480036,3843.4556166670086 3315.935564638476,3832.0314052858384 3270.2387343460673,3797.758771142328 3270.2387191137955,3797.7587559100566 3224.5418888213867,3752.061925617648 3224.5418735891153,3752.0619027692483 3178.8450509128343,3706.365080092967 3178.8450280644347,3706.365068668762 3133.148182539754,3672.0924459494568 3121.723971158584,3660.668234568287 3087.4513370150735,3633.2501272534782 3041.754514338793,3614.9713890436065 3041.754491490393,3614.9713776194008 2996.0576459657123,3587.5532817287976 2950.3608232894317,3569.2745435189254 2950.3608232894317,3523.577697994245 2950.3608232894317,3500.729275231905" class="contours" style="fill:none;stroke:white;stroke-width:1px;stroke-linejoin:round"/><polyline points="4854.396030636055,3500.729275231905 4854.396030636055,3523.577697994245 4863.100191688375,3569.2745435189254 4869.628306765511,3614.9713890436065 4869.628312477615,3614.971411892006 4884.860594319176,3660.668234568287 4902.268916423815,3706.365080092967 4915.325151474177,3752.061925617648 4915.325158002295,3752.061937041853 4941.437641159256,3797.758771142328 4961.022003526976,3832.0314052858384 4966.734109217561,3843.4556166670086 4991.486567210098,3889.1524621916897 4997.579479946721,3934.84930771637 4961.022003526976,3980.546141816845 4961.021998957292,3980.546153241051 4957.213933066586,4026.2429987657315 4961.022003526976,4041.475280607291 4971.176858088016,4071.9398442904117 4971.176858088016,4117.636689815093 4979.300741736848,4163.333535339772 4999.102708130877,4209.030380864453 5006.718849051656,4221.493156916639 5052.415688864233,4254.727226389134 5052.415694576337,4254.72723781334 5075.264117338677,4254.72723781334" class="contours" style="fill:none;stroke:white;stroke-width:1px;stroke-linejoin:round"/><polyline points="4966.734109217561,3500.729275231905 4966.734109217561,3523.577697994245 4966.734109217561,3569.2745435189254 4968.638144447757,3614.9713890436065 4988.440110841785,3660.668234568287 4997.579479946721,3706.365080092967 5006.718841435518,3752.061925617648 5006.718849051656,3752.0619484660474 5037.1834127347765,3797.758771142328 5052.415694576337,3820.6072167530683 5075.264117338677,3820.6072167530683" class="contours" style="fill:none;stroke:white;stroke-width:1px;stroke-linejoin:round"/></g></g></svg>