<svg xmlns="http://www.w3.org/2000/svg" width="2212.7996804526865" height="1804.282816369112" baseProfile="full" version="1.1" viewBox="13651.465595,-14109.284046,2212.799680,1804.282816"><defs><style type="text/css">polyline,line,rect,path,polygon,.polygon{fill:none;stroke:white;stroke-width:1px;stroke-linejoin:round;}</style></defs><g transform="scale(1,-1)"><g id="contours" class="ID ELEV"><polyline points="14059.982476200292,14109.284045841498 14059.982476200292,14092.262509838014 14042.96092317529,14086.58866450352 14031.6132325063,14092.262509838014 14031.6132325063,14109.284045841498" class="contours" style="fill:none;stroke:white;stroke-width:1px;stroke-linejoin:round"/><polyline points="14059.982476200292,14109.284045841498 14059.982476200292,14092.262509838014 14042.96092317529,14086.58866450352 14031.6132325063,14092.262509838014 14031.6132325063,14109.284045841498" class="contours" style="fill:none;stroke:white;stroke-width:1px;stroke-linejoin:round"/><polyline points="15864.265275547885,14063.082733832045 15847.243739544401,14063.082733832045 15813.200667537436,14067.94602983304 15779.157595530474,14080.914819169027 15767.809904861484,14092.262509838014 15767.809904861484,14109.284045841498" class="contours" style="fill:none;stroke:white;stroke-width:1px;stroke-linejoin:round"/><polyline points="15864.265275547885,14082.535917836023 15847.243739544401,14082.535917836023 15813.200667537436,14087.399213837021 15801.85297686845,14092.262509838014 15801.85297686845,14109.284045841498" class="contours" style="fill:none;stroke:white;stroke-width:1px;stroke-linejoin:round"/><polyline points="14182.915774759475,14109.284045841498 14182.915774759475,14092.262509838014 14179.133211203147,14087.399213837021 14153.600907197922,14058.219437831052 14145.090139196183,14052.029788375237 14111.047067189218,14042.745314191523 14077.003995182253,14033.460840007805 14056.578151978074,14024.176365824087 14042.96092317529,14017.986716368276 14008.917851168324,14015.665597822344 13974.874779161359,14024.176359015475 13940.831707154397,14024.176354476404 13906.788635147432,14024.176354476404 13906.788618125913,14024.176365824087 13884.093253809455,14058.219437831052 13872.745563140468,14075.240956813013 13855.724010115466,14092.262509838014 13855.724010115466,14109.284045841498" class="contours" style="fill:none;stroke:white;stroke-width:1px;stroke-linejoin:round"/><polyline points="15864.265275547885,13990.133259774118 15847.243739544401,13990.133259774118 15847.243732735791,13990.133293817122 15847.243739544401,13990.133305164805 15864.265275547885,13990.133305164805" class="contours" style="fill:none;stroke:white;stroke-width:1px;stroke-linejoin:round"/><polyline points="15864.265275547885,13933.394840472183 15847.243739544401,13933.394840472183 15830.222195030155,13956.090221810158 15826.817896340222,13990.133293817122 15847.243731033639,14024.176365824087 15813.200667537436,14051.410823429656 15796.179114512435,14058.219437831052 15779.157595530474,14063.893283165546 15750.788368858002,14092.262509838014 15750.788368858002,14109.284045841498" class="contours" style="fill:none;stroke:white;stroke-width:1px;stroke-linejoin:round"/><polyline points="14728.077747315449,14109.284045841498 14728.077747315449,14092.262509838014 14757.865435321542,14079.023537390864 14791.908507328504,14060.651085831547 14797.582352663001,14058.219437831052 14825.95157933547,14036.942517826697 14851.483883340694,14024.176365824087 14825.95157933547,14007.15482414676 14791.908507328504,13993.537601017817 14786.23466199401,13990.133293817122 14757.865435321542,13974.659170177592 14737.439592117364,13956.090221810158 14757.865435321542,13926.910445804187 14761.64799887787,13922.047149803193 14791.908507328504,13897.288551979946 14825.95157933547,13894.812692197622 14859.994651342435,13906.916895577875 14894.037723349398,13907.45726180021 14928.080795356364,13920.786295284415 14929.296619356612,13922.047149803193 14959.99617536289,13956.090221810158 14962.123867363329,13958.217913810593 14996.16693937029,13982.568166704463 15003.732066482951,13990.133293817122 15013.999024707273,14024.176365824087 15011.64106300982,14058.219437831052 15007.51463003928,14092.262509838014 15007.51463003928,14109.284045841498" class="contours" style="fill:none;stroke:white;stroke-width:1px;stroke-linejoin:round"/><polyline points="14315.305507741768,14109.284045841498 14315.305507741768,14092.262509838014 14315.305510578688,14058.219437831052 14315.305499231004,14058.219429320287 14281.26242722404,14041.197893316807 14258.567045886064,14024.176365824087 14247.219355217074,14007.154812799086 14213.176317253114,13990.133293817122 14213.176283210112,13990.13328700851 14179.133211203147,13985.877909816252 14145.090139196183,13983.32467941573 14111.047067189218,13976.516065014337 14077.004000856095,13956.090221810158 14077.003995182253,13956.090215001544 14055.727075177901,13922.047149803193 14042.96092317529,13907.45726180021 14027.830668949971,13888.004077796228 14008.917851168324,13875.845837793742 13974.874779161359,13867.199978236416 13940.831707154397,13878.120605278078 13926.241819151412,13888.004077796228 13906.788635147432,13905.765680582472 13880.040507141961,13922.047149803193 13872.745563140468,13927.42237169903 13838.702491133503,13945.451761807983 13804.659419126538,13952.768946492406 13781.964037788563,13956.090221810158 13770.616347119576,13959.67370307405 13736.573275112609,13972.48133055425 13713.877893774634,13990.133293817122 13702.530203105644,14008.464178743949 13673.350427099676,14024.176365824087 13668.487131098682,14027.271190551994 13651.465595095198,14027.271190551994" class="contours" style="fill:none;stroke:white;stroke-width:1px;stroke-linejoin:round"/><polyline points="14226.793512012899,14109.284045841498 14226.793512012899,14092.262509838014 14213.176283210112,14078.645281035231 14198.586395207127,14058.219437831052 14179.133211203147,14038.76625382707 14153.600907197922,14024.176365824087 14145.090139196183,14020.77205862339 14111.047067189218,14011.797066912464 14077.003995182253,14000.346215419211 14051.471691177032,13990.133293817122 14042.96092317529,13984.459448482628 14008.917851168324,13970.680109813144 13974.874779161359,13961.764067144652 13966.364011159621,13956.090221810158 13957.853251668643,13922.047149803193 13974.874779161359,13888.004094817748 13974.874784835205,13888.004077796228 13974.874779161359,13888.004075904946 13974.874762139842,13888.004077796228 13940.831707154397,13905.025605288947 13906.788635147432,13922.04714832306 13906.788632715785,13922.047149803193 13872.745563140468,13947.13151865043 13844.376336467996,13956.090221810158 13838.702491133503,13959.872785366488 13804.659419126538,13973.111755381991 13770.616347119576,13979.38285002545 13736.573275112609,13986.350730260792 13731.709979111616,13990.133293817122 13723.807123109998,14024.176365824087 13736.573241069607,14058.219437831052 13702.530203105644,14069.567128500039 13668.487131098682,14066.73020583279 13651.465595095198,14066.73020583279" class="contours" style="fill:none;stroke:white;stroke-width:1px;stroke-linejoin:round"/><polyline points="14564.954693948745,14109.284045841498 14564.954693948745,14092.262509838014 14577.175283899962,14058.219437831052 14558.470299280749,14024.176365824087 14553.607003279754,14016.611238711428 14531.943230184414,13990.133293817122 14519.563931272793,13976.516065014337 14485.520859265827,13971.802408890295 14451.477787258862,13970.274835146392 14417.434715251899,13965.374695993874 14391.902411246674,13956.090221810158 14383.391643244933,13953.25329914291 14349.348571237968,13934.205389805678 14337.190331235483,13922.047149803193 14315.305499231004,13901.621306599014 14296.736550863568,13888.004077796228 14281.26242722404,13879.898584461236 14247.219355217074,13877.79115619414 14213.176283210112,13875.237925793617 14179.133211203147,13861.817099329333 14145.090150543865,13853.961005789264 14145.090139196183,13853.961003661572 14111.047067189218,13849.955938494328 14077.003995182253,13842.613315120276 14042.96092317529,13828.79873517542 14008.917851168324,13822.187471916097 13974.874779161359,13827.774027322368 13940.831707154397,13843.539657215704 13925.812704798383,13853.961005789264 13906.788635147432,13868.661423246818 13882.472155142455,13888.004077796228 13872.745563140468,13895.741139615991 13838.702491133503,13912.412318103108 13804.659419126538,13922.047149122332 13804.659415343976,13922.047149803193 13770.616347119576,13929.010505440981 13736.573275112609,13939.068685097445 13707.393499106642,13956.090221810158 13702.530203105644,13960.095289105095 13668.487131098682,13978.461383414735 13651.465595095198,13978.461383414735" class="contours" style="fill:none;stroke:white;stroke-width:1px;stroke-linejoin:round"/><polyline points="14597.37666728871,14109.284045841498 14597.37666728871,14092.262509838014 14621.693147293683,14066.73020583279 14642.970067298038,14058.219437831052 14655.736219300648,14024.17637717177 14655.736224163942,14024.176365824087 14655.736219300648,14024.176364121933 14621.693147293683,14020.17129852915 14587.65007528672,14003.750522619908 14578.571922751527,13990.133293817122 14576.302384617731,13956.090221810158 14587.65007528672,13928.855764204585 14590.486997953965,13922.047149803193 14587.65007528672,13916.3733044687 14553.607003279754,13899.351768465216 14519.563931272793,13903.134332021546 14485.520859265827,13906.916895577875 14451.477787258862,13908.429921000406 14417.434715251899,13907.862536466959 14383.391643244933,13903.716264876366 14349.348571237968,13890.435725796726 14346.72987339128,13888.004077796228 14315.305499231004,13863.973674026607 14290.98901922603,13853.961005789264 14281.26242722404,13850.556698588569 14247.219355217074,13845.950871199391 14213.176283210112,13834.507821785284 14183.996507204143,13819.917933782299 14179.133211203147,13817.915400134832 14145.090139196183,13815.054637781306 14111.047067189218,13812.622989780808 14077.003995182253,13808.570243113312 14042.96092317529,13804.205746702164 14008.917851168324,13802.347315972254 13974.874779161359,13810.63345959858 13962.619273238854,13819.917933782299 13940.831707154397,13831.034038927432 13907.789901971164,13853.961005789264 13906.788635147432,13854.734711971241 13872.745563140468,13882.083543534149 13863.018971138477,13888.004077796228 13838.702491133503,13900.850520063008 13804.659419126538,13909.791643880686 13770.616347119576,13915.2385354018 13750.190503915397,13922.047149803193 13736.573275112609,13926.302533804064 13702.530203105644,13944.465758198025 13677.44583425841,13956.090221810158 13668.487131098682,13960.953517811153 13651.465595095198,13960.953517811153" class="contours" style="fill:none;stroke:white;stroke-width:1px;stroke-linejoin:round"/><polyline points="14616.829851292689,14109.284045841498 14616.829851292689,14092.262509838014 14621.693147293683,14087.156049036968 14655.736219300648,14069.567128500039 14686.374984106915,14058.219437831052 14689.779291307614,14052.545592496555 14705.253414947143,14024.176365824087 14689.779291307614,14014.71995693326 14655.736219300648,14003.750522619908 14621.693147293683,13996.140894759528 14612.408673109967,13990.133293817122 14605.806380357102,13956.090221810158 14621.693147293683,13926.302533804064 14625.097454494382,13922.047149803193 14648.927604899256,13888.004077796228 14621.693147293683,13870.982537537364 14587.65007528672,13869.6731928694 14553.607003279754,13866.119245791751 14519.563931272793,13867.054495022712 14485.520859265827,13868.1456191255 14451.477787258862,13872.291890716091 14417.434715251899,13874.91058856278 14383.391643244933,13872.291890716091 14349.348571237968,13859.198401482645 14341.78344412531,13853.961005789264 14315.305499231004,13839.067161786217 14281.26242722404,13830.13085538439 14247.219355217074,13821.920467429769 14242.356059216081,13819.917933782299 14213.176283210112,13807.90273189749 14179.133211203147,13793.88499636521 14145.090147706947,13785.874861775337 14145.090139196183,13785.874859647645 14111.047067189218,13783.256163928645 14077.003995182253,13785.874859156638 14077.003978160734,13785.874861775337 14042.96092317529,13788.493559622026 14008.917851168324,13789.169352614717 13974.874779161359,13798.25416068696 13946.27859867551,13819.917933782299 13940.831707154397,13822.696960068582 13906.788635147432,13845.252312950273 13896.667721848064,13853.961005789264 13872.745563140468,13873.202742141028 13848.429083135494,13888.004077796228 13838.702491133503,13893.142654702942 13804.659419126538,13901.621306599014 13770.616347119576,13906.160382866608 13736.573275112609,13916.671927907357 13726.84668311062,13922.047149803193 13702.530203105644,13934.501932244764 13668.487131098682,13948.643299808633 13651.465595095198,13948.643299808633" class="contours" style="fill:none;stroke:white;stroke-width:1px;stroke-linejoin:round"/><polyline points="15864.265275547885,13785.874827732332 15847.243739544401,13785.874827732332 15847.243732735791,13785.874861775337 15835.896048875413,13819.917933782299 15841.569894209908,13853.961005789264 15847.243739544401,13865.30869645825 15864.265275547885,13865.30869645825" class="contours" style="fill:none;stroke:white;stroke-width:1px;stroke-linejoin:round"/><polyline points="14655.73622355603,14109.284045841498 14655.73622355603,14092.262509838014 14689.779291307614,14081.368726795785 14723.822363314577,14067.503912014767 14740.843902154982,14058.219437831052 14757.865435321542,14029.03966182508 14761.64799887787,14024.176365824087 14757.865435321542,14021.557667977395 14723.822363314577,13996.941908218516 14711.056211311965,13990.133293817122 14689.779291307614,13973.111754409332 14655.736226109258,13956.090221810158 14689.779291307614,13937.17740402851 14706.800831566477,13922.047149803193 14723.822363314577,13910.699459134206 14751.056820920146,13888.004077796228 14757.865435321542,13874.386848993443 14768.07835692363,13853.961005789264 14757.865435321542,13839.37111778628 14723.822363314577,13823.012758510207 14689.779325350617,13819.917933782299 14689.779291307614,13819.917931350652 14655.736219300648,13817.29923593561 14621.693147293683,13814.244088447806 14587.65007528672,13813.728284326487 14553.607003279754,13816.513626581604 14519.563931272793,13816.513626581604 14485.520859265827,13819.917930377995 14485.520842244308,13819.917933782299 14451.477787258862,13825.15532947568 14417.434715251899,13827.774027322368 14383.391643244933,13822.754856449548 14376.58302884354,13819.917933782299 14349.348571237968,13810.19134178031 14315.305499231004,13800.768705778382 14281.26242722404,13795.887530012677 14247.219355217074,13787.766143553501 14242.963971216204,13785.874861775337 14213.176283210112,13773.332677351716 14179.133211203147,13760.7904929281 14154.81673119817,13751.831789768372 14145.090139196183,13748.24830850448 14111.047067189218,13739.065637765761 14077.003995182253,13734.810250360584 14042.96092317529,13751.831784905075 14042.960917501447,13751.831789768372 14008.917851168324,13761.558381770363 13974.874779161359,13774.527171106347 13964.661857559271,13785.874861775337 13940.831707154397,13802.896396562994 13923.81016993509,13819.917933782299 13906.788635147432,13831.001724668287 13880.10622735819,13853.961005789264 13872.745563140468,13859.881540051347 13838.702491133503,13879.27508497393 13810.333264461035,13888.004077796228 13804.659419126538,13889.365800676507 13770.616347119576,13892.543154063826 13736.573275112609,13900.546262219848 13702.530203105644,13917.791765802323 13692.317281503556,13922.047149803193 13668.487131098682,13929.494071804716 13651.465595095198,13929.494071804716" class="contours" style="fill:none;stroke:white;stroke-width:1px;stroke-linejoin:round"/><polyline points="15864.265275547885,13717.788683718403 15847.243739544401,13717.788683718403 15847.243728196718,13717.788717761407 15847.243739544401,13717.788751804412 15864.265275547885,13717.788751804412" class="contours" style="fill:none;stroke:white;stroke-width:1px;stroke-linejoin:round"/><polyline points="15864.265275547885,13661.050264416468 15847.243739544401,13661.050264416468 15824.548358206426,13683.745645754443 15813.200667537436,13717.788683718403 15813.200656189752,13717.788717761407 15813.200667537436,13717.788751804412 15824.548358206426,13751.831789768372 15826.817896340222,13785.874861775337 15818.874512871933,13819.917933782299 15824.548358206426,13853.961005789264 15838.73297154266,13888.004077796228 15830.222195030155,13922.047149803193 15813.200667537436,13944.74253114117 15807.526822202943,13956.090221810158 15806.392053136044,13990.133293817122 15813.200667537436,14007.154846842122 15821.711435539179,14024.176365824087 15813.200667537436,14030.984980225478 15779.157595530474,14044.602209028266 15765.540366727688,14058.219437831052 15745.114523523509,14078.645281035231 15736.603755521766,14092.262509838014 15736.603755521766,14109.284045841498" class="contours" style="fill:none;stroke:white;stroke-width:1px;stroke-linejoin:round"/><polyline points="15864.265275547885,13564.594876708548 15847.243739544401,13564.594876708548 15830.2221865194,13581.616429733549 15830.2221865194,13615.659501740512 15830.2221865194,13649.702573747478 15813.200667537436,13666.724092729442 15796.179114512435,13683.745645754443 15790.50528619946,13717.788717761407 15804.689899535695,13751.831789768372 15813.200656189752,13785.874861775337 15801.85297686845,13819.917933782299 15813.200659026674,13853.961005789264 15813.200667537436,13853.961039832267 15821.711435539179,13888.004077796228 15813.200667537436,13922.04711576019 15813.200662674144,13922.047149803193 15796.179125860112,13956.090221810158 15792.774824333257,13990.133293817122 15796.179114512435,14024.176365824087 15779.157595530474,14030.984980225478 15751.9231379249,14058.219437831052 15745.114523523509,14065.028052232445 15728.092983264643,14092.262509838014 15728.092983264643,14109.284045841498" class="contours" style="fill:none;stroke:white;stroke-width:1px;stroke-linejoin:round"/><polyline points="15864.265275547885,13564.594876708548 15847.243739544401,13564.594876708548 15830.2221865194,13581.616429733549 15830.2221865194,13615.659501740512 15830.2221865194,13649.702573747478 15813.200667537436,13666.724092729442 15796.179114512435,13683.745645754443 15790.50528619946,13717.788717761407 15804.689899535695,13751.831789768372 15813.200656189752,13785.874861775337 15801.85297686845,13819.917933782299 15813.200659026674,13853.961005789264 15813.200667537436,13853.961039832267 15821.711435539179,13888.004077796228 15813.200667537436,13922.04711576019 15813.200662674144,13922.047149803193 15796.179125860112,13956.090221810158 15792.774824333257,13990.133293817122 15796.179114512435,14024.176365824087 15779.157595530474,14030.984980225478 15751.9231379249,14058.219437831052 15745.114523523509,14065.028052232445 15728.092983264643,14092.262509838014 15728.092983264643,14109.284045841498" class="contours" style="fill:none;stroke:white;stroke-width:1px;stroke-linejoin:round"/><polyline points="13651.465595095198,13329.697696882013 13668.487131098682,13329.697696882013 13702.530203105644,13336.506311283405 13712.256795107634,13309.271853677836 13702.530203105644,13289.818669673854 13693.24572892193,13275.228781670869 13678.213723100673,13241.185709663907 13668.487131098682,13229.838018994917 13651.465595095198,13229.838018994917" class="contours" style="fill:none;stroke:white;stroke-width:1px;stroke-linejoin:round"/><polyline points="14383.391643244933,13168.236269648982 14394.739333913923,13173.099565649976 14417.434715251899,13195.794946987951 14440.130096589875,13207.142637656942 14451.477787258862,13215.653405658682 14485.520859265827,13237.781402463208 14490.38415526682,13241.185709663907 14519.563931272793,13270.365485669876 14528.07469927453,13275.228781670869 14553.607003279754,13289.818669673854 14587.650066775957,13309.271853677836 14587.65007528672,13309.271859351678 14621.693147293683,13339.532362128468 14625.948531294554,13343.314925684797 14655.736219300648,13373.102613690893 14664.24698730239,13377.357997691763 14689.779291307614,13394.379539369089 14710.205134511792,13411.401069698728 14723.822363314577,13434.096451036705 14730.630977715971,13445.444141705691 14723.822363314577,13462.465660687656 14689.779291307614,13459.061370508478 14655.736219300648,13472.678599311264 14621.693147293683,13479.487206904043 14621.693130272164,13479.487213712657 14587.65007528672,13493.104442515443 14553.607003279754,13499.913056916836 14519.563931272793,13513.530277208856 14519.563897229787,13513.530285719622 14485.520859265827,13522.041053721361 14451.477787258862,13524.877976388609 14417.434715251899,13541.89951239209 14408.923947250158,13547.573357726584 14383.391643244933,13562.16324572957 14349.348571237968,13574.807815332155 14332.327018212967,13581.616429733549 14315.305499231004,13586.479725734544 14281.26242722404,13587.290275068042 14264.240908242078,13581.616429733549 14247.219355217074,13574.807815332155 14213.176283210112,13554.381972127976 14179.133245246152,13547.573357726584 14179.133211203147,13547.573349215822 14179.133177160144,13547.573357726584 14145.090139196183,13553.247203061077 14111.047067189218,13562.16324572957 14077.003995182253,13558.921048395574 14042.96092317529,13561.190586529372 14008.917851168324,13574.807815332155 13974.874779161359,13576.753133732553 13940.831707154397,13564.594889474683 13906.788635147432,13560.339509729198 13872.745563140468,13570.26873906456 13838.702491133503,13567.999200930763 13804.659430474221,13547.573357726584 13804.659419126538,13547.573349215822 13770.616355630338,13513.530285719622 13770.616347119576,13513.530274371939 13756.02645911659,13479.487213712657 13743.381889514001,13445.444141705691 13750.190503915397,13411.401069698728 13766.833783563246,13377.357997691763 13770.616347119576,13343.314959727802 13770.616351982868,13343.314925684797 13770.616347119576,13343.314914337114 13764.60874617717,13309.271853677836 13747.920965781599,13275.228781670869 13736.573275112609,13258.207239993544 13730.565674170204,13241.185709663907 13726.360353510521,13207.142637656942 13719.551756130648,13173.099565649976 13736.573275112609,13156.078046668013 13770.616313076569,13173.099565649976 13770.616347119576,13173.09957699766 13804.659419126538,13173.09957699766 13804.659453169543,13173.099565649976 13838.702491133503,13161.75187498099 13872.745563140468,13156.078038157259 13906.788635147432,13159.482336847192 13940.831707154397,13166.290951248584 13974.874779161359,13159.482336847192 14008.917851168324,13147.567261644755 14042.96092317529,13139.056500451625 14077.003995182253,13152.673722445797 14085.514763183994,13173.099565649976 14111.047062933834,13207.142637656942 14111.047067189218,13207.142641439503 14138.90048974037,13241.185709663907 14145.090139196183,13246.049005664901 14179.133211203147,13261.302070395293 14213.176283210112,13258.207247558668 14243.815048016379,13241.185709663907 14247.219355217074,13239.39396903196 14281.26242722404,13231.173041426564 14315.305499231004,13222.27289188226 14338.000880568981,13207.142637656942 14349.348571237968,13184.447256318965 14360.696261906956,13173.099565649976 14383.391643244933,13168.236269648982" class="contours" style="fill:none;stroke:white;stroke-width:1px;stroke-linejoin:round"/><polyline points="13651.465595095198,12891.470515410543 13668.487131098682,12891.470515410543 13702.530203105644,12896.499605593392 13719.551722087608,12900.754989594261 13736.573275112609,12912.10268026325 13770.616347119576,12900.755000941945 13770.616381162577,12900.754989594261 13804.659419126538,12897.350682393564 13838.702491133503,12896.215913326667 13855.724018626222,12900.754989594261 13872.745563140468,12923.450370932236 13881.256331142207,12934.798061601226 13906.788623799748,12968.841133608188 13906.788635147432,12968.841140416802 13940.831707154397,12991.536514946169 13974.874779161359,12968.841144955872 14008.917851168324,12968.841139282034 14042.960917501447,13002.884205615155 14042.96092317529,13002.88421047845 14069.438868069596,13036.92727762212 14077.003995182253,13043.11692707793 14111.047063406657,13070.970349629082 14111.047067189218,13070.970352247781 14145.090139196183,13097.15732809598 14153.600907197922,13105.013421636047 14145.090139196183,13139.05648229533 14145.090136764535,13139.056493643013 14136.579371194443,13173.099565649976 14145.090139196183,13192.012383431624 14153.600907197922,13207.142637656942 14179.133211203147,13224.904240443184 14213.176283210112,13216.869229658932 14230.197822050515,13207.142637656942 14247.219355217074,13196.392193865267 14281.26242722404,13186.716794452763 14299.418732294422,13173.099565649976 14315.305499231004,13153.241106979249 14327.463739233492,13139.056493643013 14349.348571237968,13122.930827955503 14383.391643244933,13118.630650438834 14417.434715251899,13131.491366530352 14429.814014163521,13139.056493643013 14451.477787258862,13153.074229175292 14482.426034537919,13173.099565649976 14485.520859265827,13175.227257650413 14519.563931272793,13197.129969419599 14533.748544609027,13207.142637656942 14553.607003279754,13222.036481659987 14581.460425830908,13241.185709663907 14587.65007528672,13245.441093664776 14621.693147293683,13270.97339767 14627.366992628178,13275.228781670869 14655.736219300648,13299.545261675845 14666.211010687408,13309.271853677836 14689.779291307614,13327.294656505052 14712.47467264559,13343.314925684797 14723.822363314577,13351.325060274674 14757.865432702845,13377.357997691763 14757.865435321542,13377.35800031046 14791.908507328504,13408.96942169823 14795.691070884835,13411.401069698728 14825.95157933547,13434.096451036705 14845.404763339451,13445.444141705691 14859.994651342435,13458.210293708304 14888.363878014905,13479.487213712657 14894.037723349398,13485.16105904715 14922.40695002187,13513.530285719622 14928.080795356364,13520.338900121014 14955.315252961935,13547.573357726584 14962.123833320324,13581.616429733549 14928.080795356364,13586.479725734544 14894.037723349398,13592.964120402536 14859.994651342435,13608.85088733912 14825.95157933547,13615.65949748513 14791.908507328504,13611.876938184183 14757.865435321542,13598.637961481649 14723.822363314577,13594.382581736161 14689.779291307614,13610.796205739518 14684.105445973117,13615.659501740512 14661.410064635142,13649.702573747478 14655.736219300648,13658.213341749219 14621.693147293683,13669.155757751456 14587.65007528672,13670.979493751829 14553.607003279754,13673.532724152352 14519.563931272793,13673.532724152352 14485.520859265827,13666.724106346652 14451.477787258862,13662.0818726591 14417.434715251899,13663.319802550264 14383.391643244933,13675.234877752702 14360.696261906956,13683.745645754443 14349.348571237968,13688.001029755313 14315.305499231004,13690.554260155835 14292.61011789303,13683.745645754443 14281.26242722404,13680.650821026537 14247.219355217074,13671.366346842819 14213.176283210112,13671.366346842819 14179.133211203147,13669.561032418205 14145.090139196183,13658.213341749219 14111.047078536902,13649.702573747478 14111.047067189218,13649.702570910555 14077.003995182253,13647.08387590079 14042.96092317529,13639.064113745302 14008.917851168324,13637.687371862668 13974.874779161359,13642.407629745985 13940.831707154397,13646.607749019571 13906.788635147432,13646.607749019571 13895.440944478445,13649.702573747478 13872.745563140468,13657.267700860135 13856.858796203884,13683.745645754443 13849.340951135679,13717.788717761407 13838.702491133503,13751.83178295976 13838.70248262274,13751.831789768372 13804.659419126538,13765.449018571158 13770.616355630338,13751.831789768372 13770.616347119576,13751.83178295976 13751.703529337929,13717.788717761407 13736.573279367994,13683.745645754443 13736.573275112609,13683.745637243677 13702.530203105644,13661.050264416468 13668.487131098682,13683.745611711438 13651.465595095198,13683.745611711438" class="contours" style="fill:none;stroke:white;stroke-width:1px;stroke-linejoin:round"/><polyline points="13651.465595095198,12825.103718467675 13668.487131098682,12825.103718467675 13702.530203105644,12824.56335224534 13736.573275112609,12820.289546668711 13770.616347119576,12818.651110048053 13797.09429201388,12832.668845580332 13804.659419126538,12836.252326844224 13838.702491133503,12848.271920250192 13872.745563140468,12855.880031039627 13894.409336235809,12866.711917587298 13906.788635147432,12874.722052177172 13940.831707154397,12898.323341593765 13947.64032155579,12900.754989594261 13974.874779161359,12907.239384262253 14008.917851168324,12907.921952122044 14042.96092317529,12913.134288505886 14072.748611181383,12934.798061601226 14077.003995182253,12941.606676002619 14104.238452787826,12968.841133608188 14111.047067189218,12977.35190160993 14136.579371194443,13002.884205615155 14145.090139196183,13011.394973616896 14179.133211203147,13002.88423965816 14213.176283210112,13002.884222636676 14247.219355217074,13002.884222636676 14281.26242722404,13014.231896284144 14315.305482209484,13036.92727762212 14315.305499231004,13036.927288969804 14349.348571237968,13050.544506424903 14383.391643244933,13053.948819299445 14417.434703904215,13070.970349629082 14417.434715251899,13070.970352466005 14451.477787258862,13087.99188988795 14470.930971262842,13105.013421636047 14485.520859265827,13114.297895819765 14519.563927017407,13139.056493643013 14519.563931272793,13139.05649607466 14553.607003279754,13159.482336847192 14570.628535027856,13173.099565649976 14587.65007528672,13184.447256318965 14614.88453289229,13207.142637656942 14621.693147293683,13212.005933657936 14655.736219300648,13234.377095262513 14664.24698730239,13241.185709663907 14689.779291307614,13261.611552868082 14709.232475311592,13275.228781670869 14723.822363314577,13285.44170327296 14750.300308208882,13309.271853677836 14757.865435321542,13314.945699012329 14791.908507328504,13339.910618484102 14796.163891329377,13343.314925684797 14825.95157933547,13364.97869878014 14848.646960673446,13377.357997691763 14859.994651342435,13382.595393385143 14894.037723349398,13402.11659551501 14904.25064495149,13411.401069698728 14928.080795356364,13435.231220103604 14938.293716958451,13445.444141705691 14962.123867363329,13475.231829711784 14965.906430919658,13479.487213712657 14996.16693937029,13506.721671318228 15003.732066482951,13513.530285719622 15030.210011377258,13540.008230613927 15041.557702046244,13547.573357726584 15064.253083384223,13564.59489798545 15083.706267388201,13581.616429733549 15098.296155391185,13596.206317736534 15120.991536729161,13615.659501740512 15132.33922739815,13632.681046254758 15143.686918067137,13649.702573747478 15143.686918067137,13683.745645754443 15132.33922739815,13697.362874557228 15098.296155391185,13712.925421760412 15064.253083384223,13717.788712898113 15064.253049341218,13717.788717761407 15030.210011377258,13723.462563095902 14996.166973413297,13717.788717761407 14996.16693937029,13717.788712087562 14962.123867363329,13705.022565758796 14928.080795356364,13697.362874557228 14894.037723349398,13696.124944666066 14859.994651342435,13697.930259090677 14825.95157933547,13697.930259090677 14791.908507328504,13695.09333642343 14762.728731322535,13717.788717761407 14757.865435321542,13751.831755725367 14757.865430458245,13751.831789768372 14723.822363314577,13778.309734662676 14689.779291307614,13777.364093773596 14655.736219300648,13770.400738135808 14621.693147293683,13764.211088679993 14587.65007528672,13761.11626395209 14553.607003279754,13758.640404169764 14519.563931272793,13758.640404169764 14485.520859265827,13756.087173769241 14451.477787258862,13761.558381770363 14417.434715251899,13773.108709772723 14383.391643244933,13776.59038759162 14349.348571237968,13768.853323340205 14315.305499231004,13763.179480437359 14281.26242722404,13758.640404169764 14247.219366564757,13751.831789768372 14247.219355217074,13751.831786931449 14213.176283210112,13739.673549765883 14179.133211203147,13727.80138599875 14145.090146004793,13717.788717761407 14145.090139196183,13717.788715758874 14111.047067189218,13704.549745314254 14077.003995182253,13693.758313991786 14042.96092317529,13689.419491088936 14008.917851168324,13709.277949759664 13999.191259166335,13717.788717761407 13974.874779161359,13734.810250360584 13946.50555248889,13751.831789768372 13940.831707154397,13760.342557770113 13934.448631153089,13785.874861775337 13906.788635147432,13813.534857780993 13900.781034205027,13819.917933782299 13872.745563140468,13840.639803699583 13858.155675137481,13853.961005789264 13838.702491133503,13864.435797176024 13804.659419126538,13870.395592275385 13770.616347119576,13870.171992459249 13736.573275112609,13879.493309794489 13721.983387109625,13888.004077796228 13702.530203105644,13893.677923130723 13668.487131098682,13899.351768465216 13651.465595095198,13899.351768465216" class="contours" style="fill:none;stroke:white;stroke-width:1px;stroke-linejoin:round"/><polyline points="13651.465595095198,12791.330829571876 13668.487131098682,12791.330829571876 13702.530203105644,12796.734491795203 13736.573275112609,12793.98353648151 13770.616347119576,12784.608038041088 13804.659419126538,12793.762477572374 13808.441982682869,12798.625773573367 13838.702491133503,12818.078957577349 13872.745563140468,12826.995000245839 13906.788618125913,12832.668845580332 13906.788635147432,12832.66884819903 13940.831707154397,12832.668854091096 13940.831724175914,12832.668845580332 13961.257550358576,12798.625773573367 13974.874779161359,12764.582718587922 13974.874783416744,12764.582701566405 13995.300622365537,12730.53962955944 14008.917851168324,12722.028861557697 14042.96092317529,12720.32670795735 14068.493227180512,12730.53962955944 14077.003995182253,12733.943936760135 14111.047067189218,12740.26622156143 14145.090139196183,12750.965472763619 14179.133194181628,12764.582701566405 14179.133211203147,12764.582710077168 14213.176283210112,12773.093469568146 14247.219355217074,12773.093469568146 14281.26242722404,12775.930392235392 14315.305499231004,12777.348853569016 14349.348571237968,12775.930392235392 14383.391643244933,12777.348853569016 14417.434715251899,12781.60424182527 14451.477787258862,12792.951928238874 14459.988555260603,12798.625773573367 14468.499306240827,12832.668845580332 14451.477787258862,12866.711883544293 14451.477753215859,12866.711917587298 14451.477787258862,12866.711951630301 14459.988555260603,12900.754989594261 14478.712244864435,12934.798061601226 14485.520859265827,12951.819614626227 14492.329473667218,12968.841133608188 14511.05316327105,13002.884205615155 14519.563931272793,13014.231896284144 14536.585458765509,13036.92727762212 14553.607003279754,13053.948822136366 14576.302384617731,13070.970349629082 14587.65007528672,13082.318040298072 14604.671602779437,13105.013421636047 14621.693147293683,13118.630650438834 14655.736207952965,13139.056493643013 14655.736219300648,13139.056502153777 14689.779282796848,13173.099565649976 14689.779291307614,13173.099574160738 14723.822354803813,13207.142637656942 14723.822363314577,13207.142643330784 14757.865435321542,13236.32241366291 14763.539280656036,13241.185709663907 14791.908507328504,13269.554936336375 14796.7718033295,13275.228781670869 14825.95157933547,13304.408557676838 14831.625424669963,13309.271853677836 14859.994651342435,13328.184671459481 14882.690032680412,13343.314925684797 14894.037723349398,13349.50457514061 14928.080795356364,13373.953690491067 14931.863358912693,13377.357997691763 14962.123867363329,13407.618506142397 14966.379251364198,13411.401069698728 14996.16693937029,13437.879014593032 15004.677707372033,13445.444141705691 15030.210011377258,13468.139523043666 15044.799899380241,13479.487213712657 15064.253083384223,13494.617467937975 15088.569563389194,13513.530285719622 15098.296155391185,13521.09541283228 15128.083843397279,13547.573357726584 15132.33922739815,13550.97766492728 15166.382299405113,13578.779507066301 15169.47712413302,13581.616429733549 15197.330546684172,13615.659501740512 15200.425371412079,13622.468116141907 15214.042600214865,13649.702573747478 15225.957675417303,13683.745645754443 15228.794598084547,13717.788717761407 15214.042600214865,13751.831789768372 15200.425371412079,13760.342557770113 15166.382299405113,13771.28497377235 15149.36075772779,13785.874861775337 15132.33922739815,13811.407165780558 15098.296155391185,13819.917926973689 15064.253083384223,13791.54870710983 15030.210011377258,13788.002553775772 15018.862320708267,13785.874861775337 14996.16693937029,13780.637466081957 14962.123867363329,13762.30658115513 14928.080803867126,13751.831789768372 14928.080795356364,13751.831786673547 14894.037723349398,13748.736965040465 14859.994651342435,13751.831786364064 14859.994634320914,13751.831789768372 14825.95157933547,13785.874844753816 14825.951575080087,13785.874861775337 14825.951574472176,13819.917933782299 14825.95157933547,13819.917940590913 14837.29927000446,13853.961005789264 14859.994651342435,13873.986342263948 14894.037723349398,13886.523944230708 14897.442030550097,13888.004077796228 14928.080795356364,13899.351768465216 14949.96562736084,13922.047149803193 14962.123867363329,13935.140639036641 14989.3583249689,13956.090221810158 14996.16693937029,13961.133639885264 15025.16659330215,13990.133293817122 15030.210011377258,14002.512592728746 15036.829497600833,14024.176365824087 15046.491480597977,14058.219437831052 15064.253083384223,14085.453895436622 15067.444621384873,14092.262509838014 15067.444621384873,14109.284045841498" class="contours" style="fill:none;stroke:white;stroke-width:1px;stroke-linejoin:round"/><polyline points="13651.465595095198,12722.028861557697 13668.487131098682,12722.028861557697 13674.160976433175,12730.53962955944 13702.530203105644,12758.908856231908 13719.551722087608,12764.582701566405 13736.573275112609,12766.130113930358 13740.355838668938,12764.582701566405 13770.616347119576,12743.633118792886 13794.93282712455,12730.53962955944 13804.659419126538,12722.028861557697 13838.702491133503,12707.844248221463 13855.724035647749,12696.496557552477 13872.745563140468,12673.801176214498 13889.767116165469,12662.453485545511 13906.788635147432,12651.105794876521 13940.831707154397,12636.921181540287 13974.874779161359,12628.41042034716 13974.874813204364,12628.410413538546 14008.917851168324,12617.06272286956 14042.96092317529,12611.388886045828 14077.003995182253,12605.71503220057 14111.047067189218,12607.133493534195 14145.090139196183,12611.388881790448 14179.133202692383,12628.410413538546 14179.133211203147,12628.41042034716 14207.502437875619,12662.453485545511 14213.176283210112,12670.964253547252 14247.219343869394,12696.496557552477 14247.219355217074,12696.496561807859 14281.26242722404,12700.751941553346 14315.305499231004,12709.262709555087 14349.348571237968,12713.51809781134 14383.391643244933,12719.191938890453 14417.434715251899,12722.974502446781 14451.477787258862,12722.974502446781 14485.520859265827,12715.949741556455 14519.563931272793,12696.496568900156 14545.096235278013,12730.53962955944 14553.607003279754,12737.34824396083 14587.65007528672,12751.816549563791 14621.693147293683,12757.77408716501 14627.366992628178,12764.582701566405 14621.693147293683,12775.930392235392 14614.88453289229,12798.625773573367 14587.65007528672,12832.668841324949 14587.650071882412,12832.668845580332 14553.607003279754,12863.617092859391 14550.202696079059,12866.711917587298 14553.606998416462,12900.754989594261 14553.607003279754,12900.754994457557 14587.65007528672,12919.667807375909 14621.693147293683,12923.450370932236 14655.736219300648,12925.719909066034 14689.779291307614,12932.670369600792 14698.290059309353,12934.798061601226 14723.822363314577,12955.223904805405 14746.517744652552,12968.841133608188 14757.865435321542,12980.188824277178 14774.886962814258,13002.884205615155 14791.908507328504,13025.57958695313 14803.256197997494,13036.92727762212 14825.95157933547,13059.622658960096 14837.29927000446,13070.970349629082 14859.994634320914,13105.013421636047 14859.994634320914,13139.056493643013 14859.994651342435,13139.056527686016 14871.342342011421,13173.099565649976 14894.03770632788,13207.142637656942 14894.037723349398,13207.142649004625 14928.08078400868,13241.185709663907 14928.080795356364,13241.18574370691 14945.102314338328,13275.228781670869 14953.613099361588,13309.271853677836 14962.123867363329,13317.782621679577 14996.166928022609,13343.314925684797 14996.16693937029,13343.31493703248 15030.210000029574,13377.357997691763 15030.210011377258,13377.358006202527 15057.444468982827,13411.401069698728 15064.253083384223,13418.20968410012 15091.487540989792,13445.444141705691 15098.296155391185,13450.307437706688 15127.475931397154,13479.487213712657 15132.33922739815,13483.742597713526 15158.817172292454,13513.530285719622 15166.382299405113,13521.09541283228 15196.16998741121,13547.573357726584 15200.425371412079,13551.355921282913 15225.183969235326,13581.616429733549 15234.468443419044,13596.206317736534 15248.085672221827,13615.659501740512 15268.511515426006,13641.191805745737 15275.320129827402,13649.702573747478 15294.989460320312,13683.745645754443 15302.554587432971,13700.767190268689 15308.744236888782,13717.788717761407 15310.41068097304,13751.831789768372 15302.554587432971,13768.853320098011 15285.533045755647,13785.874861775337 15268.511515426006,13794.385629777076 15234.468443419044,13810.63345959858 15208.93613941382,13819.917933782299 15200.425371412079,13823.322240982996 15166.382299405113,13853.961000925969 15166.382295149731,13853.961005789264 15132.33922739815,13869.981274969012 15098.296155391185,13866.727157791876 15079.727207023752,13853.961005789264 15064.253083384223,13840.867516555818 15030.210011377258,13827.212877783792 14996.16693937029,13822.754856449548 14987.65617136855,13819.917933782299 14962.123867363329,13811.407165780558 14928.080795356364,13801.348985414867 14894.037723349398,13804.44381014277 14875.12490556775,13819.917933782299 14882.690032680412,13853.961005789264 14894.037723349398,13859.881540051347 14928.080795356364,13870.98254368403 14946.10359818358,13888.004077796228 14962.123867363329,13905.025615927403 14973.471558032315,13922.047149803193 14996.16693937029,13940.203454873574 15019.997089775166,13956.090221810158 15030.210011377258,13966.303143412246 15043.091173758268,13990.133293817122 15053.851033604316,14024.176365824087 15064.253083384223,14046.20423594624 15070.442732840032,14058.219437831052 15086.59384938879,14092.262509838014 15086.59384938879,14109.284045841498" class="contours" style="fill:none;stroke:white;stroke-width:1px;stroke-linejoin:round"/><polyline points="14485.520859265827,12458.195087546728 14492.329473667218,12492.23812551069 14485.520859265827,12503.585816179677 14474.173168596837,12492.23812551069 14485.520859265827,12458.195087546728" class="contours" style="fill:none;stroke:white;stroke-width:1px;stroke-linejoin:round"/><polyline points="15864.265275547885,12430.960595898154 15847.243739544401,12430.960595898154 15813.200667537436,12449.684285501982 15796.179114512435,12458.195053503725 15779.157595530474,12466.705821505466 15745.114523523509,12492.238116999924 15745.114515012745,12492.23812551069 15745.114523523509,12492.238159553692 15753.62529152525,12526.281197517654 15770.646827528732,12560.324269524617 15779.157578508954,12594.367341531582 15779.15758418279,12628.410413538546 15779.15758872186,12662.453485545511 15779.15758872186,12696.496557552477 15772.348981129078,12730.53962955944 15779.15758701971,12764.582701566405 15779.157595530474,12764.582708375015 15813.200667537436,12778.199930369188 15838.73297154266,12798.625773573367 15832.653851541418,12832.668845580332 15813.200667537436,12866.711909076535 15813.200661863593,12866.711917587298 15813.200667537436,12866.711951630301 15830.2221865194,12900.754989594261 15847.243739544401,12907.563603995655 15864.265275547885,12907.563603995655" class="contours" style="fill:none;stroke:white;stroke-width:1px;stroke-linejoin:round"/><polyline points="14394.739333913923,12305.001229472386 14394.739333913923,12322.022765475867 14403.817486449112,12356.06583748283 14417.434715251899,12378.761218820808 14424.24332965329,12390.108909489796 14451.477787258862,12417.343367095367 14457.151632593357,12424.15198149676 14485.520842244308,12458.195053503725 14451.477787258862,12475.216580996444 14437.860558456077,12458.195053503725 14417.434715251899,12432.662749498502 14410.626100850504,12424.15198149676 14383.391643244933,12401.456600158785 14372.043952575943,12390.108909489796 14349.348571237968,12367.413528151821 14338.000880568981,12356.06583748283 14315.305507741768,12322.022765475867 14315.305507741768,12305.001229472386" class="contours" style="fill:none;stroke:white;stroke-width:1px;stroke-linejoin:round"/><polyline points="13651.465595095198,12619.899645536805 13668.487131098682,12619.899645536805 13702.530203105644,12617.06272286956 13736.573241069607,12628.410413538546 13736.573258091092,12662.453485545511 13736.573268303999,12696.496557552477 13736.573275112609,12696.496574573996 13736.573309155616,12696.496557552477 13770.616347119576,12662.453519588515 13770.616358467258,12662.453485545511 13787.637900144577,12628.410413538546 13804.659419126538,12617.06272286956 13827.354800464514,12594.367341531582 13838.702491133503,12577.345822549618 13872.745563140468,12560.324278035381 13872.74557448815,12560.324269524617 13889.767116165469,12526.281197517654 13906.788635147432,12492.238159553692 13906.788669190437,12492.23812551069 13940.831707154397,12475.216606528726 13974.874779161359,12475.21659801797 14008.917851168324,12466.705821505466 14042.96092317529,12458.195064851408 14042.960957218293,12458.195053503725 14077.003995182253,12441.17353452176 14111.047067189218,12424.152015539765 14145.090139196183,12441.17353452176 14162.111658178146,12458.195053503725 14179.133194181628,12492.23812551069 14179.133211203147,12492.238159553692 14213.176249167107,12526.281197517654 14213.176283210112,12526.281214539173 14247.219355217074,12543.302750542654 14281.262393181038,12560.324269524617 14281.26242722404,12560.324286546138 14315.305482209484,12594.367341531582 14315.305499231004,12594.367352879266 14349.348571237968,12611.388894556583 14366.370090219933,12628.410413538546 14383.391643244933,12639.758104207534 14417.434698230378,12662.453485545511 14417.434715251899,12662.453492354121 14451.477787258862,12662.453492354121 14451.477804280383,12662.453485545511 14468.499340283863,12628.410413538546 14462.82547792785,12594.367341531582 14451.477794067474,12560.324269524617 14451.477787258862,12560.324261013855 14424.24332965329,12526.281197517654 14417.434715251899,12517.770429515913 14391.902411246674,12492.23812551069 14383.391643244933,12480.8904348417 14366.370115752214,12458.195053503725 14349.348571237968,12435.499672165748 14340.837803236227,12424.15198149676 14315.305499231004,12398.619677491537 14303.957808562016,12390.108909489796 14281.26242722404,12373.08736497555 14264.24089973132,12356.06583748283 14254.02796961847,12322.022765475867 14254.02796961847,12305.001229472386" class="contours" style="fill:none;stroke:white;stroke-width:1px;stroke-linejoin:round"/><polyline points="14536.585450254754,12305.001229472386 14536.585450254754,12322.022765475867 14553.606969236753,12356.06583748283 14553.607003279754,12356.065871525834 14587.65007528672,12356.065871525834 14592.513371287714,12390.108909489796 14591.90545928759,12424.15198149676 14593.323920621213,12458.195053503725 14604.671594268682,12492.23812551069 14621.69311325068,12526.281197517654 14621.693135946,12560.324269524617 14621.693147293683,12560.3242808723 14655.736219300648,12583.019650862594 14664.24698730239,12594.367341531582 14689.779282796848,12628.410413538546 14689.779291307614,12628.410430560067 14699.5058833096,12662.453485545511 14711.056211311965,12696.496557552477 14701.1269819766,12730.53962955944 14689.779291307614,12745.669883784758 14675.594677971376,12764.582701566405 14655.736219300648,12786.246474661744 14646.009627298658,12798.625773573367 14621.693147293683,12826.995000245839 14616.829851292689,12832.668845580332 14587.65007528672,12866.711914750374 14587.650072191896,12866.711917587298 14587.65007528672,12866.711922450591 14621.693147293683,12891.02839759227 14655.736219300648,12899.052835993914 14664.24698730239,12900.754989594261 14689.779291307614,12907.138065595567 14723.822363314577,12914.372218397048 14757.865435321542,12924.323270214467 14791.908498817742,12934.798061601226 14791.908507328504,12934.798068409837 14820.277734000976,12968.841133608188 14825.95157933547,12974.514978942685 14859.994651342435,12998.628821614286 14868.505419344177,13002.884205615155 14894.037723349398,13023.310048819332 14911.059250842118,13036.92727762212 14928.080788547753,13070.970349629082 14928.080795356364,13070.970360976766 14948.506638560542,13105.013421636047 14962.123867363329,13118.630650438834 14987.65617136855,13139.056493643013 14996.16693937029,13145.865108044405 15018.862320708267,13173.099565649976 15030.210011377258,13186.716794452763 15044.799899380241,13207.142637656942 15064.25307657561,13241.185709663907 15064.253083384223,13241.185721011587 15098.296144043501,13275.228781670869 15098.296155391185,13275.228793018552 15123.828459396409,13309.271853677836 15132.33922739815,13320.619544346822 15149.360754890868,13343.314925684797 15166.382299405113,13360.336470199043 15179.9995282079,13377.357997691763 15200.425371412079,13402.890301696987 15203.829678612774,13411.401069698728 15213.191523414689,13445.444141705691 15234.468434908278,13479.487213712657 15234.468443419044,13479.487222223419 15261.702901024615,13513.530285719622 15268.511515426006,13530.551838744623 15272.294078982335,13547.573357726584 15277.022283427748,13581.616429733549 15294.04381943123,13615.659501740512 15302.554587432971,13627.007192409503 15313.02937881973,13649.702573747478 15330.923814105441,13683.745645754443 15336.597659439934,13697.362874557228 15341.70412024098,13717.788717761407 15339.692484167841,13751.831789768372 15336.597659439934,13758.640404169764 15320.577390260189,13785.874861775337 15302.554587432971,13807.759693779813 15281.27766742862,13819.917933782299 15268.511515426006,13826.726548183691 15234.468443419044,13843.486214402506 15215.015259415062,13853.961005789264 15200.425371412079,13864.173927391354 15166.382299405113,13888.004074959308 15166.382288057432,13888.004077796228 15132.33922739815,13893.379299692064 15098.296155391185,13892.259461797099 15086.948464722198,13888.004077796228 15064.253083384223,13875.624778884605 15030.210011377258,13856.79792845651 14996.16693937029,13857.055830517169 14971.850459365316,13888.004077796228 14990.493094035797,13922.047149803193 14996.16693937029,13926.586226070787 15030.210011377258,13944.74253114117 15040.96045516893,13956.090221810158 15054.132170084855,13990.133293817122 15064.253083384223,14021.339443156838 15065.316929384438,14024.176365824087 15082.822031751655,14058.219437831052 15098.296155391185,14090.13481783758 15099.2162384184,14092.262509838014 15099.2162384184,14109.284045841498" class="contours" style="fill:none;stroke:white;stroke-width:1px;stroke-linejoin:round"/><polyline points="14642.970067298038,12305.001229472386 14642.970067298038,12322.022765475867 14647.225451298908,12356.06583748283 14645.723551063305,12390.108909489796 14641.402294245085,12424.15198149676 14646.279810409826,12458.195053503725 14655.736219300648,12477.107871285372 14662.22061396864,12492.23812551069 14681.268523305873,12526.281197517654 14689.779291307614,12538.660496429278 14709.637749978341,12560.324269524617 14723.822363314577,12579.237087306265 14738.952617539895,12594.367341531582 14757.86543153898,12628.410413538546 14757.865435321542,12628.41042488623 14767.14990950526,12662.453485545511 14765.72152886161,12696.496557552477 14757.865435321542,12722.028861557697 14754.770610593634,12730.53962955944 14723.822363314577,12764.582698162098 14723.82236069588,12764.582701566405 14689.779291307614,12796.194125572873 14687.509753173816,12798.625773573367 14658.831044028555,12832.668845580332 14655.736219300648,12849.690364562297 14651.953655744319,12866.711917587298 14655.736219300648,12868.414071187644 14689.779291307614,12876.438509589287 14723.822363314577,12878.059608256284 14757.865435321542,12877.186708974055 14791.908507328504,12870.116224787995 14803.256197997494,12866.711917587298 14825.95157933547,12849.690390094578 14848.646960673446,12832.668845580332 14859.994651342435,12798.625807616372 14866.803265743827,12832.668845580332 14880.420494546614,12866.711917587298 14874.58453934542,12900.754989594261 14879.447835346413,12934.798061601226 14894.037723349398,12947.564213603837 14918.354203354373,12968.841133608188 14928.080795356364,12974.514978942685 14962.123867363329,12997.210360280662 14968.31351681914,13002.884205615155 14984.819248701304,13036.92727762212 14996.16693937029,13064.16173522769 14999.00386203754,13070.970349629082 15030.210011377258,13102.1764989688 15033.30483610516,13105.013421636047 15064.253083384223,13135.961668915106 15067.657390584918,13139.056493643013 15091.487540989792,13173.099565649976 15098.296155391185,13186.716794452763 15105.104769792579,13207.142637656942 15124.483133858083,13241.185709663907 15132.33922739815,13249.696477665646 15157.871531403374,13275.228781670869 15166.382299405113,13283.739549672611 15191.914603410338,13309.271853677836 15200.425371412079,13318.556327861554 15219.878555416059,13343.314925684797 15234.468443419044,13361.883874052233 15243.924852309867,13377.357997691763 15251.489977531242,13411.401069698728 15262.128439424703,13445.444141705691 15268.511515426006,13454.72861588941 15285.533049301797,13479.487213712657 15302.554587432971,13502.182595050632 15310.11971454563,13513.530285719622 15323.831507437324,13547.573357726584 15336.597656603015,13581.616429733549 15336.597659439934,13581.616438244313 15344.607794029811,13615.659501740512 15353.619193552136,13649.702573747478 15365.265509551064,13683.745645754443 15370.6407314469,13709.277949759664 15371.901585965677,13717.788717761407 15370.6407314469,13729.136408430395 15367.545906718993,13751.831789768372 15351.398995095136,13785.874861775337 15336.597659439934,13807.151781779688 15325.847215648264,13819.917933782299 15302.554587432971,13844.50459689844 15287.080463793443,13853.961005789264 15268.511515426006,13867.578234592049 15240.658092874855,13888.004077796228 15234.468443419044,13893.677923130723 15200.425371412079,13922.047146708368 15200.425360064395,13922.047149803193 15166.382299405113,13929.90324334326 15132.33922739815,13926.910445804187 15098.296155391185,13933.394840472183 15077.34657261767,13956.090221810158 15074.614018342862,13990.133293817122 15084.466157388355,14024.176365824087 15098.296155391185,14051.836361829744 15102.381324032021,14058.219437831052 15115.777732908276,14092.262509838014 15115.777732908276,14109.284045841498" class="contours" style="fill:none;stroke:white;stroke-width:1px;stroke-linejoin:round"/><polyline points="14740.843890807297,12305.001229472386 14740.843890807297,12322.022765475867 14749.3546673198,12356.06583748283 14746.517744652552,12390.108909489796 14723.822363314577,12412.804290827773 14720.41805611388,12424.15198149676 14723.822363314577,12441.17353452176 14757.865435321542,12435.499672165748 14791.908490306987,12458.195053503725 14791.908507328504,12458.195062014487 14819.142964934077,12492.23812551069 14825.95157933547,12496.49350951156 14852.429524229774,12526.281197517654 14859.994651342435,12537.628888186642 14875.12490556775,12560.324269524617 14888.363878014905,12594.367341531582 14883.82480174731,12628.410413538546 14869.721243344424,12662.453485545511 14894.037717675556,12696.496557552477 14894.037723349398,12696.496560647298 14928.080795356364,12711.086445555462 14962.123867363329,12722.028861557697 14996.166905327289,12730.53962955944 14996.16693937029,12730.539638070202 15015.620123374272,12764.582701566405 15013.188469699931,12798.625773573367 15002.975553771686,12832.668845580332 14996.16693937029,12849.690364562297 14992.384375813963,12866.711917587298 14991.303643369298,12900.754989594261 14996.16693937029,12905.010373595132 15030.210011377258,12923.450370932236 15047.231538869977,12934.798061601226 15064.253079601658,12968.841133608188 15064.253083384223,12968.841144955872 15084.678926588398,13002.884205615155 15098.296155391185,13016.501434417942 15132.33922739815,13025.57958695313 15149.360746380113,13036.92727762212 15166.382299405113,13048.274968291107 15200.425371412079,13036.927311665122 15200.42540545508,13036.92727762212 15234.468443419044,13030.118663220725 15245.81613408803,13036.92727762212 15268.511498404489,13070.970349629082 15234.468443419044,13087.991877121802 15211.773062081065,13105.013421636047 15206.099216746572,13139.056493643013 15210.15196341407,13173.099565649976 15225.957675417303,13207.142637656942 15234.468443419044,13215.653405658682 15260.000747424265,13241.185709663907 15268.511511170625,13275.228781670869 15268.511515426006,13275.228793018552 15288.937358630184,13309.271853677836 15302.554587432971,13331.96723501581 15309.363201834363,13343.314925684797 15319.576120032147,13377.357997691763 15324.218360528312,13411.401069698728 15336.597659439934,13434.096451036705 15347.945350108925,13445.444141705691 15370.6407314469,13472.678599311264 15376.314576781397,13479.487213712657 15400.901239897536,13513.530285719622 15404.683803453865,13524.877976388609 15414.410395455852,13547.573357726584 15419.814057679181,13581.616429733549 15425.109646658044,13615.659501740512 15429.44240127711,13649.702573747478 15429.00028345884,13683.745645754443 15429.648722925638,13717.788717761407 15429.00028345884,13751.831789768372 15429.00028345884,13785.874861775337 15438.726841417825,13819.917933782299 15404.683803453865,13853.960971746259 15404.683792106181,13853.961005789264 15370.6407314469,13888.004066448548 15370.64072463829,13888.004077796228 15336.597659439934,13922.047142994583 15336.597653766092,13922.047149803193 15313.902278101958,13956.090221810158 15302.554587432971,13967.437912479145 15268.511515426006,13981.622525815379 15257.163824757019,13990.133293817122 15234.468443419044,14005.26354804244 15213.191523414689,14024.176365824087 15200.425371412079,14036.942517826697 15176.108891407104,14058.219437831052 15166.382299405113,14067.94602983304 15159.289992736996,14092.262509838014 15159.289992736996,14109.284045841498" class="contours" style="fill:none;stroke:white;stroke-width:1px;stroke-linejoin:round"/><polyline points="14911.059242331363,12305.001229472386 14911.059242331363,12322.022765475867 14911.059242331363,12356.06583748283 14911.059242331363,12390.108909489796 14928.080795356364,12407.130462514797 14945.102314338328,12424.15198149676 14962.123867363329,12441.17353452176 14979.14538634529,12458.195053503725 14984.819248701304,12492.23812551069 14987.65617136855,12526.281197517654 14996.166928022609,12560.324269524617 14996.16693937029,12560.324303567622 15004.677707372033,12594.367341531582 15021.699243375515,12628.410413538546 15030.210011377258,12645.431966563547 15064.253049341218,12662.453485545511 15055.74231538248,12696.496557552477 15059.389787383225,12730.53962955944 15064.253083384223,12747.56118258444 15072.76385138596,12764.582701566405 15086.948464722198,12798.625773573367 15098.296155391185,12815.647326598371 15132.339193355145,12832.668845580332 15132.33922739815,12832.668856928016 15132.339261441153,12832.668845580332 15166.382299405113,12815.647326598371 15200.425371412079,12798.625790594888 15234.468443419044,12798.625807616372 15268.511481383004,12832.668845580332 15268.511515426006,12832.668862601851 15302.554587432971,12844.016536249323 15336.597659439934,12855.36422691831 15353.619178421899,12866.711917587298 15370.6407314469,12883.733470612298 15387.662250428864,12900.754989594261 15370.6407314469,12934.798027558221 15370.640697403898,12934.798061601226 15336.597659439934,12943.308829602967 15302.554587432971,12951.819589093946 15268.511515426006,12968.841122260508 15268.511508617396,12968.841133608188 15268.511515426006,12968.841144955872 15288.937358630184,13002.884205615155 15302.554587432971,13016.501434417942 15317.144475435956,13036.92727762212 15328.086891438195,13070.970349629082 15336.59765092917,13105.013421636047 15336.597659439934,13105.013438657566 15353.619186932654,13139.056493643013 15370.640720099216,13173.099565649976 15370.6407314469,13173.099599692981 15387.662250428864,13207.142637656942 15404.683786432344,13241.185709663907 15404.683803453865,13241.185726685424 15438.72685843931,13275.228781670869 15438.726875460829,13275.228793018552 15472.76993612011,13309.271853677836 15472.769947467794,13309.271887720837 15481.280715469535,13343.314925684797 15472.769947467794,13360.336444666762 15455.748394442793,13377.357997691763 15438.726875460829,13388.705688360753 15421.705330946585,13411.401069698728 15418.30103225665,13445.444141705691 15438.726875460829,13470.976445710916 15444.400720795324,13479.487213712657 15467.0961021333,13513.530285719622 15472.769947467794,13524.877976388609 15486.38717627058,13547.573357726584 15493.195790671973,13581.616429733549 15493.195790671973,13615.659501740512 15506.81301947476,13638.35488307849 15513.621633876151,13649.702573747478 15540.856082970959,13683.745645754443 15540.85609148172,13683.745662775962 15557.87761897444,13717.788717761407 15563.5514728197,13751.831789768372 15557.877610463685,13785.874861775337 15563.5514728197,13819.917933782299 15574.899152141003,13853.961005789264 15574.899163488686,13853.961039832267 15591.920682470649,13888.004077796228 15574.899163488686,13905.025596778192 15563.5514728197,13922.047149803193 15540.85609148172,13935.66437860598 15506.81301947476,13956.090213299392 15506.813010963993,13956.090221810158 15484.117638136782,13990.133293817122 15472.769947467794,14001.48098448611 15438.726875460829,14001.48098448611 15416.031494122852,14024.176365824087 15416.031494122852,14058.219437831052 15404.683803453865,14066.73020583279 15370.6407314469,14069.567128500039 15336.597659439934,14063.893283165546 15302.554621475974,14058.219437831052 15302.554587432971,14058.219429320287 15268.511515426006,14058.219426483369 15268.511498404489,14058.219437831052 15234.468443419044,14071.836666633835 15200.425371412079,14087.399213837021 15195.562075411084,14092.262509838014 15195.562075411084,14109.284045841498" class="contours" style="fill:none;stroke:white;stroke-width:1px;stroke-linejoin:round"/><polyline points="15098.296121348183,12305.001229472386 15098.296121348183,12322.022765475867 15098.296155391185,12322.02279951887 15132.339193355145,12356.06583748283 15132.33922739815,12356.065871525834 15149.360746380113,12390.108909489796 15166.382282383594,12424.15198149676 15166.38226536211,12458.195053503725 15132.33922739815,12475.216572485688 15115.31767437315,12492.23812551069 15115.31767437315,12526.281197517654 15132.33922739815,12543.302750542654 15149.360746380113,12560.324269524617 15166.382299405113,12577.345822549618 15183.403818387078,12594.367341531582 15191.914603410338,12628.410413538546 15200.425362901315,12662.453485545511 15200.425371412079,12662.453519588515 15234.468409376039,12696.496557552477 15234.468443419044,12696.496568900156 15234.468460440561,12696.496557552477 15268.511515426006,12662.45350256703 15302.554587432971,12679.475030059757 15313.902278101958,12696.496557552477 15336.597659439934,12723.731015158048 15343.406273841329,12730.53962955944 15370.6407314469,12757.77408716501 15379.15149944864,12764.582701566405 15396.173035452124,12798.625773573367 15404.683803453865,12809.973464242357 15418.30103225665,12832.668845580332 15438.726875460829,12853.094688784511 15450.074566129817,12866.711917587298 15467.0961021333,12900.754989594261 15452.344104263615,12934.798061601226 15438.726875460829,12957.493442939201 15430.216107459086,12968.841133608188 15416.031494122852,13002.884205615155 15404.683803453865,13036.927243579115 15404.683786432344,13036.92727762212 15404.683803453865,13036.927294643638 15438.726875460829,13036.927311665122 15472.769913424789,13070.970349629082 15472.769947467794,13070.970383672087 15506.812985431754,13105.013421636047 15506.81301947476,13105.013438657566 15529.508400812734,13139.056493643013 15540.85609148172,13156.078046668013 15557.877610463685,13173.099565649976 15574.899154977924,13207.142637656942 15574.899163488686,13207.142649004625 15600.43146749391,13241.185709663907 15608.942235495651,13247.9943240653 15642.98529899185,13275.228781670869 15642.985307502615,13275.228790181633 15655.36460641424,13309.271853677836 15642.985307502615,13343.314917174035 15642.985296154931,13343.314925684797 15608.942235495651,13353.527847286889 15574.899163488686,13358.445179910115 15546.529936816218,13377.357997691763 15540.85609148172,13388.705688360753 15527.238862678938,13411.401069698728 15506.81301947476,13445.444130358008 15506.813008127076,13445.444141705691 15506.81301947476,13445.444175748697 15540.85605743872,13479.487213712657 15540.85609148172,13479.487247755658 15557.877610463685,13513.530285719622 15557.87761897444,13547.573357726584 15557.87761897444,13581.616429733549 15574.899163488686,13604.311811071526 15608.942201452646,13615.659501740512 15608.942235495651,13615.659513088196 15642.985307502615,13632.681046254758 15660.006834995334,13649.702573747478 15677.028368161897,13683.745645754443 15677.028368161897,13717.788717761407 15677.028370998818,13751.831789768372 15677.02837950958,13751.831823811373 15683.836993910973,13785.874861775337 15694.049909839217,13819.917933782299 15697.454222713759,13853.961005789264 15711.071440168862,13888.004077796228 15699.723760847557,13922.047149803193 15677.02837950958,13944.74253114117 15668.51761150784,13956.090221810158 15642.985307502615,13990.133282469438 15642.985273459612,13990.133293817122 15608.942235495651,14007.154812799086 15591.920682470649,14024.176365824087 15574.899163488686,14058.219403788047 15574.899154977924,14058.219437831052 15552.203782150711,14092.262509838014 15552.203782150711,14109.284045841498" class="contours" style="fill:none;stroke:white;stroke-width:1px;stroke-linejoin:round"/><polyline points="15336.597642418415,12305.001229472386 15336.597642418415,12322.022765475867 15319.576106414934,12356.06583748283 15313.902278101958,12390.108909489796 15325.249968770948,12424.15198149676 15336.597659439934,12441.17353452176 15353.619178421899,12458.195053503725 15370.6407314469,12469.542744172712 15404.683786432344,12492.23812551069 15404.683803453865,12492.238142532207 15421.705330946585,12526.281197517654 15421.705330946585,12560.324269524617 15421.705330946585,12594.367341531582 15404.683803453865,12628.410396517027 15404.683792106181,12628.410413538546 15391.066574651079,12662.453485545511 15404.683803453865,12679.475030059757 15438.72685843931,12696.496557552477 15438.726875460829,12696.49656322632 15472.769947467794,12710.113786355261 15498.302251473018,12730.53962955944 15498.302251473018,12764.582701566405 15506.81301947476,12781.604254591406 15515.3237874765,12798.625773573367 15540.856082970959,12832.668845580332 15540.85609148172,12832.668862601851 15554.473320284507,12866.711917587298 15574.899163488686,12892.24422159252 15608.942201452646,12900.754989594261 15608.942235495651,12900.755006615782 15642.985290481096,12934.798061601226 15642.985307502615,12934.79809564423 15651.496075504356,12968.841133608188 15642.985307502615,13002.884171572152 15642.985290481096,13002.884205615155 15642.985307502615,13002.88423965816 15660.00682648458,13036.92727762212 15677.028368161897,13070.970349629082 15677.02837950958,13070.970366650603 15688.376070178567,13105.013421636047 15692.158633734898,13139.056493643013 15711.07144665325,13173.099565649976 15711.071451516544,13173.099571323819 15736.603755521766,13207.142637656942 15745.114516714897,13241.185709663907 15711.071451516544,13275.228774862258 15711.07144665325,13275.228781670869 15702.560683514805,13309.271853677836 15711.071447261162,13343.314925684797 15711.071451516544,13343.314934195563 15745.114523523509,13366.010307022774 15767.809904861484,13377.357997691763 15779.15758701971,13411.401069698728 15779.157595530474,13411.401086720247 15801.85297686845,13445.444141705691 15813.200667537436,13462.465694730692 15830.2221865194,13479.487213712657 15847.243739544401,13496.508766737657 15864.265275547885,13496.508766737657" class="contours" style="fill:none;stroke:white;stroke-width:1px;stroke-linejoin:round"/><polyline points="15336.597642418415,12305.001229472386 15336.597642418415,12322.022765475867 15319.576106414934,12356.06583748283 15313.902278101958,12390.108909489796 15325.249968770948,12424.15198149676 15336.597659439934,12441.17353452176 15353.619178421899,12458.195053503725 15370.6407314469,12469.542744172712 15404.683786432344,12492.23812551069 15404.683803453865,12492.238142532207 15421.705330946585,12526.281197517654 15421.705330946585,12560.324269524617 15421.705330946585,12594.367341531582 15404.683803453865,12628.410396517027 15404.683792106181,12628.410413538546 15391.066574651079,12662.453485545511 15404.683803453865,12679.475030059757 15438.72685843931,12696.496557552477 15438.726875460829,12696.49656322632 15472.769947467794,12710.113786355261 15498.302251473018,12730.53962955944 15498.302251473018,12764.582701566405 15506.81301947476,12781.604254591406 15515.3237874765,12798.625773573367 15540.856082970959,12832.668845580332 15540.85609148172,12832.668862601851 15554.473320284507,12866.711917587298 15574.899163488686,12892.24422159252 15608.942201452646,12900.754989594261 15608.942235495651,12900.755006615782 15642.985290481096,12934.798061601226 15642.985307502615,12934.79809564423 15651.496075504356,12968.841133608188 15642.985307502615,13002.884171572152 15642.985290481096,13002.884205615155 15642.985307502615,13002.88423965816 15660.00682648458,13036.92727762212 15677.028368161897,13070.970349629082 15677.02837950958,13070.970366650603 15688.376070178567,13105.013421636047 15692.158633734898,13139.056493643013 15711.07144665325,13173.099565649976 15711.071451516544,13173.099571323819 15736.603755521766,13207.142637656942 15745.114516714897,13241.185709663907 15711.071451516544,13275.228774862258 15711.07144665325,13275.228781670869 15702.560683514805,13309.271853677836 15711.071447261162,13343.314925684797 15711.071451516544,13343.314934195563 15745.114523523509,13366.010307022774 15767.809904861484,13377.357997691763 15779.15758701971,13411.401069698728 15779.157595530474,13411.401086720247 15801.85297686845,13445.444141705691 15813.200667537436,13462.465694730692 15830.2221865194,13479.487213712657 15847.243739544401,13496.508766737657 15864.265275547885,13496.508766737657" class="contours" style="fill:none;stroke:white;stroke-width:1px;stroke-linejoin:round"/><polyline points="15404.68376941086,12305.001229472386 15404.68376941086,12322.022765475867 15370.6407314469,12356.065803439828 15370.640697403898,12356.06583748283 15336.597659439934,12390.108875446793 15336.597648092255,12390.108909489796 15336.597659439934,12390.1089435328 15347.945350108925,12424.15198149676 15370.6407314469,12446.847362834736 15387.662250428864,12458.195053503725 15404.683803453865,12469.542744172712 15438.72685843931,12492.23812551069 15438.726866950065,12526.281197517654 15438.726866950065,12560.324269524617 15438.726866950065,12594.367341531582 15421.705330946585,12628.410413538546 15404.683803453865,12662.453468523994 15404.683796645251,12662.453485545511 15404.683803453865,12662.453494056275 15438.726875460829,12682.87932874969 15472.769930446275,12696.496557552477 15472.769947467794,12696.496564361087 15506.81301947476,12713.518110577477 15515.3237874765,12730.53962955944 15515.3237874765,12764.582701566405 15532.34532347998,12798.625773573367 15540.85609148172,12809.973464242357 15552.203782150711,12832.668845580332 15568.090549087296,12866.711917587298 15574.899163488686,12875.222685589037 15608.942235495651,12889.407298925275 15631.637616833628,12900.754989594261 15642.985307502615,12912.10268026325 15656.602536305401,12934.798061601226 15668.51761150784,12968.841133608188 15665.680688840592,13002.884205615155 15677.02837950958,13019.905758640156 15711.07141747354,13036.92727762212 15711.071451516544,13036.927311665122 15722.419142185532,13070.970349629082 15711.071451516544,13082.318040298072 15699.723760847557,13105.013421636047 15699.723760847557,13139.056493643013 15711.071451516544,13159.482336847192 15719.582219518285,13173.099565649976 15745.114519268123,13207.142637656942 15745.114523523509,13207.142654678459 15754.841115525498,13241.185709663907 15745.114523523509,13258.207237156623 15728.092979009263,13275.228781670869 15711.071451516544,13297.924163008845 15708.234528849298,13309.271853677836 15711.071451516544,13320.619544346822 15728.092979009263,13343.314925684797 15745.114523523509,13354.662616353788 15779.157595530474,13360.336478709802 15796.179114512435,13377.357997691763 15796.17912302319,13411.401069698728 15813.200667537436,13434.096451036705 15824.548358206426,13445.444141705691 15847.243739544401,13468.139523043666 15864.265275547885,13468.139523043666" class="contours" style="fill:none;stroke:white;stroke-width:1px;stroke-linejoin:round"/><polyline points="15438.726864113147,12305.001229472386 15438.726864113147,12322.022765475867 15427.379184791842,12356.06583748283 15404.683803453865,12378.761218820808 15387.662250428864,12390.108909489796 15387.662250428864,12424.15198149676 15404.683803453865,12435.499672165748 15427.379184791842,12458.195053503725 15438.726875460829,12466.705821505466 15464.259179466051,12492.23812551069 15472.76993612011,12526.281197517654 15464.259179466051,12560.324269524617 15464.259179466051,12594.367341531582 15447.23764346257,12628.410413538546 15438.726875460829,12662.453451502506 15438.726864113147,12662.453485545511 15438.726875460829,12662.453492354121 15472.769947467794,12679.475027222838 15506.81301947476,12685.148866883488 15523.834546967475,12696.496557552477 15540.856082970959,12730.53962955944 15540.856082970959,12764.582701566405 15540.85609148172,12764.582718587922 15557.87761897444,12798.625773573367 15569.225318154193,12832.668845580332 15574.899163488686,12844.016536249323 15597.594544826663,12866.711917587298 15608.942235495651,12872.385762921791 15642.985307502615,12887.137760791476 15656.602536305401,12900.754989594261 15677.028372700966,12934.798061601226 15677.02837950958,12934.798078622744 15694.049907002296,12968.841133608188 15711.071434495025,13002.884205615155 15711.071451516544,13002.884216962837 15736.603755521766,13036.92727762212 15745.114523523509,13053.948830647121 15751.9231379249,13070.970349629082 15745.114523523509,13082.318040298072 15722.419142185532,13105.013421636047 15711.071451516544,13139.056459600008 15711.07144773398,13139.056493643013 15711.071451516544,13139.056500451625 15732.348371520899,13173.099565649976 15745.114523523509,13190.121107327303 15757.88067552612,13207.142637656942 15769.431003528483,13241.185709663907 15756.462214192496,13275.228781670869 15745.114523523509,13286.576472339859 15728.092979009263,13309.271853677836 15745.114523523509,13331.96723501581 15779.157595530474,13309.271870699353 15813.200667537436,13309.271865025517 15838.73297154266,13343.314925684797 15830.222195030155,13377.357997691763 15824.548358206426,13411.401069698728 15847.243739544401,13434.096451036705 15864.265275547885,13434.096451036705" class="contours" style="fill:none;stroke:white;stroke-width:1px;stroke-linejoin:round"/><polyline points="15484.117638136782,12305.001229472386 15484.117638136782,12322.022765475867 15472.769947467794,12356.065803439828 15472.769930446275,12356.06583748283 15438.726875460829,12390.108892468277 15438.72685843931,12390.108909489796 15438.72685843931,12424.15198149676 15438.726875460829,12424.15199851828 15461.422256798804,12458.195053503725 15472.769947467794,12469.542744172712 15489.791474960513,12492.23812551069 15498.302251473018,12526.281197517654 15495.465328805769,12560.324269524617 15486.38717627058,12594.367341531582 15472.769947467794,12628.410396517027 15472.76993895703,12628.410413538546 15472.76993612011,12662.453485545511 15472.769947467794,12662.453491219354 15506.81301947476,12668.127330880005 15540.85609148172,12685.148866883488 15549.366859483463,12696.496557552477 15566.388395486945,12730.53962955944 15574.899152141003,12764.582701566405 15574.899163488686,12764.582735609407 15586.246854157673,12798.625773573367 15591.920690981406,12832.668845580332 15608.942235495651,12849.690390094578 15642.985290481096,12866.711917587298 15642.985307502615,12866.71192439591 15677.028372700966,12900.754989594261 15677.02837950958,12900.755000941945 15694.049909839217,12934.798061601226 15711.071451516544,12960.33036560645 15719.582219518285,12968.841133608188 15736.603755521766,13002.884205615155 15745.114523523509,13014.231896284144 15756.462214192496,13036.92727762212 15772.348981129078,13070.970349629082 15756.462214192496,13105.013421636047 15745.114523523509,13113.524189637788 15728.092981846183,13139.056493643013 15745.114519268123,13173.099565649976 15745.114523523509,13173.099571323819 15770.646827528732,13207.142637656942 15779.157595530474,13229.838018994917 15784.831440864968,13241.185709663907 15790.50528619946,13275.228781670869 15813.200667537436,13288.846010473657 15838.73297154266,13309.271853677836 15847.243739544401,13320.619544346822 15864.265275547885,13320.619544346822" class="contours" style="fill:none;stroke:white;stroke-width:1px;stroke-linejoin:round"/><polyline points="15529.508400812734,12305.001229472386 15529.508400812734,12322.022765475867 15515.3237874765,12356.06583748283 15506.81301947476,12367.413528151821 15484.117638136782,12390.108909489796 15489.791466449758,12424.15198149676 15506.81301947476,12441.17353452176 15518.160710143746,12458.195053503725 15529.508400812734,12492.23812551069 15540.856080134037,12526.281197517654 15532.34532347998,12560.324269524617 15518.160710143746,12594.367341531582 15506.81301947476,12628.410379495543 15506.813010963993,12628.410413538546 15506.81301947476,12628.41042488623 15540.85609148172,12645.431958052792 15563.5514728197,12662.453485545511 15574.899163488686,12679.475038570512 15586.246854157673,12696.496557552477 15608.942235495651,12719.191938890453 15625.963754477614,12730.53962955944 15642.985307502615,12747.56118258444 15649.793921904009,12764.582701566405 15642.985307502615,12798.625739530366 15642.985290481096,12798.625773573367 15631.637616833628,12832.668845580332 15642.985307502615,12839.477459981725 15677.028370998818,12866.711917587298 15677.02837950958,12866.711926098062 15696.481563513558,12900.754989594261 15711.071451516544,12926.287293599486 15717.880065917938,12934.798061601226 15745.114523523509,12962.032519206798 15751.9231379249,12968.841133608188 15762.136053853148,13002.884205615155 15779.157589856632,13036.92727762212 15779.157595530474,13036.927288969804 15796.179125860112,13070.970349629082 15796.17912302319,13105.013421636047 15779.157595530474,13127.708802974024 15762.136042505474,13139.056493643013 15767.809904861484,13173.099565649976 15779.157595530474,13190.121110164222 15792.774824333257,13207.142637656942 15807.526822202943,13241.185709663907 15813.200667537436,13252.533400332894 15830.222195030155,13275.228781670869 15847.243739544401,13288.846010473657 15864.265275547885,13288.846010473657" class="contours" style="fill:none;stroke:white;stroke-width:1px;stroke-linejoin:round"/><polyline points="15608.942201452646,12305.001229472386 15608.942201452646,12322.022765475867 15574.899163488686,12339.04428445783 15557.877610463685,12356.06583748283 15540.85609148172,12373.087356464795 15529.508400812734,12390.108909489796 15540.856080134037,12424.15198149676 15540.85609148172,12424.15199851828 15574.899146467169,12458.195053503725 15574.899152141003,12492.23812551069 15568.090549087296,12526.281197517654 15566.388395486945,12560.324269524617 15563.5514728197,12594.367341531582 15574.899146467169,12628.410413538546 15574.899163488686,12628.41042488623 15608.942235495651,12645.431966563547 15625.963754477614,12662.453485545511 15642.985307502615,12679.475038570512 15651.496075504356,12696.496557552477 15677.028368161897,12730.53962955944 15677.028372700966,12764.582701566405 15670.219765108186,12798.625773573367 15677.028368161897,12832.668845580332 15677.02837950958,12832.668854091096 15711.071451516544,12844.016536249323 15724.68868031933,12866.711917587298 15715.93474751754,12900.754989594261 15745.114516714897,12934.798061601226 15745.114523523509,12934.798068409837 15779.15758872186,12968.841133608188 15779.157595530474,12968.841167651195 15785.966209931867,13002.884205615155 15806.392053136044,13036.92727762212 15813.200667537436,13053.948830647121 15818.874512871933,13070.970349629082 15826.817896340222,13105.013421636047 15824.548358206426,13139.056493643013 15813.200667537436,13173.099531606973 15813.200650515919,13173.099565649976 15813.200667537436,13173.099599692981 15824.548358206426,13207.142637656942 15838.73297154266,13241.185709663907 15847.243739544401,13252.533400332894 15864.265275547885,13252.533400332894" class="contours" style="fill:none;stroke:white;stroke-width:1px;stroke-linejoin:round"/><polyline points="15688.376070178567,12305.001229472386 15688.376070178567,12322.022765475867 15677.02837950958,12356.065803439828 15677.028362488063,12356.06583748283 15642.985307502615,12390.108892468277 15608.942235495651,12390.108898142113 15608.942201452646,12390.108909489796 15608.942235495651,12390.108926511315 15642.985307502615,12390.108926511315 15677.028362488063,12424.15198149676 15677.028368161897,12458.195053503725 15651.496075504356,12492.23812551069 15642.985307502615,12526.28116347465 15642.985290481096,12526.281197517654 15642.985290481096,12560.324269524617 15642.985290481096,12594.367341531582 15642.985307502615,12594.367358553101 15660.006834995334,12628.410413538546 15677.028370998818,12662.453485545511 15677.02837950958,12662.45350256703 15699.723760847557,12696.496557552477 15705.39760618205,12730.53962955944 15705.39760618205,12764.582701566405 15711.07144300578,12798.625773573367 15711.071451516544,12798.625782084131 15745.114523523509,12819.051616777546 15762.136051016229,12832.668845580332 15756.462214192496,12866.711917587298 15745.114523523509,12889.407298925275 15740.251227522514,12900.754989594261 15745.114523523509,12906.428834928754 15779.157595530474,12929.934765600232 15787.668363532215,12934.798061601226 15813.200660728826,12968.841133608188 15813.200667537436,12968.841167651195 15818.874512871933,13002.884205615155 15832.653851541418,13036.92727762212 15847.243733870559,13070.970349629082 15847.243739544401,13070.970366650603 15864.265275547885,13070.970366650603" class="contours" style="fill:none;stroke:white;stroke-width:1px;stroke-linejoin:round"/><polyline points="15745.11450650199,12305.001229472386 15745.11450650199,12322.022765475867 15745.11450650199,12356.06583748283 15745.11450650199,12390.108909489796 15745.114523523509,12390.1089435328 15762.136042505474,12424.15198149676 15745.114523523509,12435.499672165748 15722.419142185532,12458.195053503725 15711.071451516544,12469.542744172712 15688.376070178567,12492.23812551069 15677.02837950958,12526.28116347465 15677.028370998818,12526.281197517654 15677.02837950958,12526.281231560657 15694.049898491543,12560.324269524617 15694.049898491543,12594.367341531582 15711.071434495025,12628.410413538546 15711.071451516544,12628.410430560067 15733.766832854522,12662.453485545511 15736.603755521766,12696.496557552477 15731.497294720724,12730.53962955944 15731.497294720724,12764.582701566405 15745.114523523509,12787.27808290438 15762.136042505474,12798.625773573367 15779.157595530474,12809.973464242357 15796.17912302319,12832.668845580332 15779.157595530474,12866.711900565777 15779.157589856632,12866.711917587298 15765.540366727688,12900.754989594261 15779.157595530474,12910.481581596252 15813.200667537436,12929.124216266733 15824.548358206426,12934.798061601226 15835.896048875413,12968.841133608188 15841.569894209908,13002.884205615155 15847.243739544401,13019.905758640156 15864.265275547885,13019.905758640156" class="contours" style="fill:none;stroke:white;stroke-width:1px;stroke-linejoin:round"/></g></g></svg>