<svg xmlns="http://www.w3.org/2000/svg" width="2239.0582223165975" height="1782.1075647009652" baseProfile="full" version="1.1" viewBox="1395.235853,-5328.197368,2239.058222,1782.107565"><defs><style type="text/css">polyline,line,rect,path,polygon,.polygon{fill:none;stroke:white;stroke-width:1px;stroke-linejoin:round;}</style></defs><g transform="scale(1,-1)"><g id="contours" class="ID ELEV"><polyline points="1617.1833153813843,5328.197367827538 1617.1833153813843,5305.349834946756 1600.8636490379688,5296.210821794443 1555.1685832764056,5271.575221122992 1509.4735175148423,5272.117059847437 1463.778451753279,5305.349832258812 1418.0833859917159,5305.349832541753 1395.2358531109342,5305.349832541753" class="contours" style="fill:none;stroke:white;stroke-width:1px;stroke-linejoin:round"/><polyline points="2307.7091975371495,5328.197367827538 2307.7091975371495,5305.349834946756 2286.2896354614168,5291.265739335316 2266.5177320068947,5305.349834946756 2266.5177320068947,5328.197367827538" class="contours" style="fill:none;stroke:white;stroke-width:1px;stroke-linejoin:round"/><polyline points="1666.8676329157822,5328.197367827538 1666.8676329157822,5305.349834946756 1646.5587147995318,5288.733447397097 1600.8636490379688,5265.138177076581 1591.0718492319195,5259.654769185194 1555.1685832764056,5242.899911739287 1509.4735175148423,5236.807234227364 1463.778451753279,5259.654763473311 1463.778428905769,5259.654769185194 1418.0833859917159,5264.464776107463 1395.2358531109342,5264.464776107463" class="contours" style="fill:none;stroke:white;stroke-width:1px;stroke-linejoin:round"/><polyline points="2359.0632587113137,5328.197367827538 2359.0632587113137,5305.349834946756 2349.274726105734,5259.654769185194 2331.98470122298,5230.128726693106 2286.2896354614168,5237.181786023768 2276.283416681513,5259.654769185194 2240.5945696998538,5286.9696967633345 2220.1595092350553,5305.349834946756 2220.1595092350553,5328.197367827538" class="contours" style="fill:none;stroke:white;stroke-width:1px;stroke-linejoin:round"/><polyline points="3489.101689056113,5328.197367827538 3489.101689056113,5305.349834946756 3476.7663487231957,5259.654769185194 3474.3613452620607,5253.942885964998 3445.2826670501563,5213.959703423629 3440.0900459408886,5168.264637662067 3428.6662795004977,5156.840871221676 3426.2612760393627,5168.264637662067 3422.7701419828763,5213.959703423629 3412.9093602723724,5259.654769185194 3391.279407513764,5305.349834946756 3391.279407513764,5328.197367827538" class="contours" style="fill:none;stroke:white;stroke-width:1px;stroke-linejoin:round"/><polyline points="3565.751476785187,5116.041705363137 3574.8904899374998,5122.569571900503 3565.751476785187,5131.708585052816 3562.487543516504,5122.569571900503 3565.751476785187,5116.041705363137" class="contours" style="fill:none;stroke:white;stroke-width:1px;stroke-linejoin:round"/><polyline points="3634.294075427532,5213.959695807788 3611.44654254675,5213.959695807788 3565.751476785187,5213.959696895765 3530.2108700817494,5168.264637662067 3526.58427756099,5122.569571900503 3542.903948473911,5076.87450613894 3565.751476785187,5059.299480846032 3611.446533407741,5076.87450613894 3611.44654254675,5076.874512666805 3634.294075427532,5076.874512666805" class="contours" style="fill:none;stroke:white;stroke-width:1px;stroke-linejoin:round"/><polyline points="3478.393262829257,5076.87450613894 3474.3613452620607,5042.603206817768 3460.652825533592,5076.87450613894 3474.3613452620607,5111.145805460113 3478.393262829257,5076.87450613894" class="contours" style="fill:none;stroke:white;stroke-width:1px;stroke-linejoin:round"/><polyline points="3517.1083422648135,5328.197367827538 3517.1083422648135,5305.349834946756 3520.0564110236237,5274.886457772381 3523.571416082206,5259.654769185194 3520.0564110236237,5254.57753965613 3501.778384718999,5213.959703423629 3495.5769115085004,5168.264637662067 3499.2859265865495,5122.569571900503 3503.928740754837,5076.87450613894 3510.1227010754583,5031.179440377377 3520.0564110236237,4993.100218909408 3565.751476785187,4990.0538811919705 3611.44654254675,5004.523985349799 3634.294075427532,5004.523985349799" class="contours" style="fill:none;stroke:white;stroke-width:1px;stroke-linejoin:round"/><polyline points="2392.7494163314423,4985.484374615813 2377.679766984543,4974.833645002216 2331.98470122298,4979.164844244534 2322.165926761818,4985.484374615813 2286.2896354614168,5003.13084310097 2269.2105391000405,5031.179440377377 2260.811799698198,5076.87450613894 2286.2896354614168,5119.146720532596 2292.423201335452,5122.569571900503 2331.98470122298,5142.023906828694 2359.789717653365,5122.569571900503 2377.679766984543,5101.020194297039 2393.3610995152644,5076.87450613894 2414.0764182016023,5031.179440377377 2392.7494163314423,4985.484374615813" class="contours" style="fill:none;stroke:white;stroke-width:1px;stroke-linejoin:round"/><polyline points="3017.4106876464284,4930.650295701938 3028.8344540868193,4939.7893088542505 3063.105753407992,4952.251599516495 3108.8008134576735,4985.484374615813 3108.800819169555,4985.484383754823 3146.8800406375244,5031.179440377377 3154.495884931118,5037.707306914743 3193.6630841553156,5076.87450613894 3192.575106399088,5122.569571900503 3154.495884931118,5160.648793368473 3108.8008283085646,5122.569571900503 3108.800819169555,5122.569556668825 3108.8007963220452,5122.569571900503 3093.5691305823675,5168.264637662067 3063.105753407992,5198.7280148364425 3051.6819869676006,5213.959703423629 3017.4106876464284,5241.376742880568 2971.715621884865,5248.231002744802 2926.020556123302,5225.38346986402 2918.404711829708,5213.959703423629 2910.7888675361146,5168.264637662067 2912.312036394833,5122.569571900503 2916.8815429709894,5076.87450613894 2916.8815429709894,5031.179440377377 2915.8660970651767,4985.484374615813 2926.020556123302,4939.789331701761 2926.0205675470634,4939.7893088542505 2971.715621884865,4909.325931679875 3017.4106876464284,4930.650295701938" class="contours" style="fill:none;stroke:white;stroke-width:1px;stroke-linejoin:round"/><polyline points="3017.4106876464284,4775.287072112623 3029.872978308673,4802.704111569561 3021.2186097932254,4848.3991773311245 3017.4106876464284,4857.538190483437 3009.794843352834,4848.3991773311245 3000.275037985842,4802.704111569561 3017.4106876464284,4775.287072112623" class="contours" style="fill:none;stroke:white;stroke-width:1px;stroke-linejoin:round"/><polyline points="1395.2358531109342,4750.777900476875 1418.0833859917159,4750.777900476875 1440.9309112566557,4757.009045807998 1463.778451753279,4772.240734395185 1509.4735175148423,4795.088267275967 1518.612530667155,4802.704111569561 1509.4735175148423,4808.415994789757 1463.778451753279,4836.975410890734 1450.7227186785467,4848.3991773311245 1426.3915797665454,4894.094243092687 1418.0833859917159,4909.325931679875 1395.2358531109342,4909.325931679875" class="contours" style="fill:none;stroke:white;stroke-width:1px;stroke-linejoin:round"/><polyline points="1494.2418289276545,4711.313980046434 1463.778451753279,4688.466435741892 1448.5467631660913,4711.313980046434 1463.778451753279,4715.468076933849 1494.2418289276545,4711.313980046434" class="contours" style="fill:none;stroke:white;stroke-width:1px;stroke-linejoin:round"/><polyline points="2371.0332119646796,4665.618914284872 2331.98470122298,4632.704460786121 2286.2896354614168,4627.381500205462 2240.5945696998538,4643.830538557503 2223.893835005272,4665.618914284872 2214.5355362133396,4711.313980046434 2236.938964438929,4757.009045807998 2240.5945696998538,4762.720929028193 2259.410185013439,4802.704111569561 2269.2868202943237,4848.3991773311245 2286.2896354614168,4868.266597227456 2321.4917601962507,4894.094243092687 2331.98470122298,4916.941776710486 2355.5938185331215,4939.7893088542505 2331.98470122298,4947.3241335277 2286.2896354614168,4972.000584718959 2275.878101490428,4985.484374615813 2254.393574707058,5031.179440377377 2247.2992633217536,5076.87450613894 2264.613770933496,5122.569571900503 2286.2896354614168,5151.888371319772 2331.98470122298,5161.77985935267 2377.679766984543,5135.175107283004 2387.299780829083,5122.569571900503 2415.449858241334,5076.87450613894 2423.3748327461067,5061.855848161363 2447.4777245763817,5031.179440377377 2469.0698985076697,4999.487701220164 2514.764964269233,4988.813154240828 2516.791761540915,4985.484374615813 2527.6368137795325,4939.7893088542505 2514.764964269233,4900.622109630054 2469.0698985076697,4924.305856819341 2434.583056423471,4894.094243092687 2423.3748327461067,4865.806821430767 2419.3130491228562,4848.3991773311245 2411.1894818763567,4802.704111569561 2412.969025691493,4757.009045807998 2406.924609071944,4711.313980046434 2377.679766984543,4683.896940589497 2371.0332119646796,4665.618914284872" class="contours" style="fill:none;stroke:white;stroke-width:1px;stroke-linejoin:round"/><polyline points="2343.8238773521125,4665.618914284872 2331.98470122298,4655.6395321070595 2286.2896354614168,4645.1442705756845 2253.4327072233405,4665.618914284872 2240.5945696998538,4704.133326855332 2238.5759121762503,4711.313980046434 2240.5945696998538,4715.180485610874 2268.33800248366,4757.009045807998 2286.2896354614168,4796.992228349366 2289.1134878399407,4802.704111569561 2300.4135648786273,4848.3991773311245 2331.98470122298,4872.741408624667 2377.679766984543,4887.064232975524 2386.0571957074967,4848.3991773311245 2384.5847991440683,4802.704111569561 2383.335096905529,4757.009045807998 2377.679766984543,4746.431484289118 2366.78123118509,4711.313980046434 2343.8238773521125,4665.618914284872" class="contours" style="fill:none;stroke:white;stroke-width:1px;stroke-linejoin:round"/><polyline points="2389.24813806342,5328.197367827538 2389.24813806342,5305.349834946756 2382.1018701227586,5259.654769185194 2377.679766984543,5252.038924891599 2360.9620599986056,5213.959703423629 2349.602075974426,5168.264637662067 2377.679766984543,5154.871256318161 2402.3310524611766,5122.569571900503 2423.3748327461067,5086.49451998348 2432.7139702740174,5076.87450613894 2466.3081088187837,5031.179440377377 2469.0698985076697,5027.125845834013 2514.764964269233,5011.509378956837 2530.61083384784,4985.484374615813 2543.7266256674066,4939.7893088542505 2545.385369161002,4894.094243092687 2514.764964269233,4873.888941905601 2472.333831776353,4894.094243092687 2469.0698985076697,4895.982468950603 2466.914470877407,4894.094243092687 2442.7705800837484,4848.3991773311245 2429.183527546305,4802.704111569561 2433.3384185136656,4757.009045807998 2446.4628659730015,4711.313980046434 2423.3748336786584,4665.618914284872 2423.3748327461067,4665.618913675604 2377.679766984543,4640.746916465286 2334.3897046841153,4619.923848523308 2331.98470122298,4619.053466318325 2286.2896354614168,4593.812382373843 2248.210413993447,4619.923848523308 2240.5945696998538,4621.134313841495 2206.497236365083,4665.618914284872 2200.7719621887727,4711.313980046434 2214.091431558147,4757.009045807998 2240.5945696998538,4798.420199154414 2242.610528483452,4802.704111569561 2253.346681075174,4848.3991773311245 2286.2896354614168,4886.892303380267 2296.105612550938,4894.094243092687 2295.4286486137294,4939.7893088542505 2286.2896354614168,4943.909355767179 2254.187405717534,4985.484374615813 2245.9105798255805,5031.179440377377 2240.5945696998538,5068.857827935157 2237.9378798299954,5076.87450613894 2240.5945696998538,5084.752965753003 2249.9679165227385,5122.569571900503 2279.0452957675107,5168.264637662067 2265.346063654034,5213.959703423629 2251.267869731752,5259.654769185194 2240.5945696998538,5267.823719488936 2198.8729879175567,5305.349834946756 2198.8729879175567,5328.197367827538" class="contours" style="fill:none;stroke:white;stroke-width:1px;stroke-linejoin:round"/><polyline points="1395.2358531109342,4547.573327734166 1418.0833859917159,4547.573327734166 1463.778451753279,4567.7009162243785 1475.20221819367,4574.228782761746 1509.4735175148423,4591.364432422331 1543.7448168360147,4574.228782761746 1555.1685832764056,4570.713777703164 1570.4002718635932,4574.228782761746 1600.8636490379688,4589.4604713489325 1646.5587147995318,4601.645822218683 1692.253780561095,4592.506809066371 1726.5250798822676,4619.923848523308 1737.9488397947937,4665.618914284872 1692.253780561095,4711.31397351857 1692.2537748492134,4711.313980046434 1692.253780561095,4711.314025741409 1737.9488463226583,4738.731019503372 1760.7963677796793,4757.009045807998 1766.5082624236352,4802.704111569561 1737.9488463226583,4840.78333303753 1692.253780561095,4840.090983556294 1661.7904033867196,4848.3991773311245 1646.5587147995318,4871.246687364395 1643.0437097409501,4894.094243092687 1646.5587147995318,4916.941798820979 1653.0865813368982,4939.7893088542505 1646.5587147995318,4951.213075294641 1626.9751151874334,4985.484374615813 1608.4794933315625,5031.179440377377 1600.8636490379688,5034.694445435959 1591.724635885656,5031.179440377377 1555.1685832764056,5000.716063203002 1536.8905569717801,4985.484374615813 1509.4735175148423,4965.900775003715 1494.2418289276545,4985.484374615813 1463.778451753279,5024.651573840011 1418.0833859917159,5028.133102659939 1395.2358531109342,5028.133102659939" class="contours" style="fill:none;stroke:white;stroke-width:1px;stroke-linejoin:round"/><polyline points="3634.294075427532,4579.940665981941 3611.44654254675,4579.940665981941 3565.751522480161,4574.228782761746 3565.751476785187,4574.228778192239 3520.0564110236237,4574.22877623388 3520.0563995998627,4574.228782761746 3503.440023473964,4619.923848523308 3497.208874334921,4665.618914284872 3485.785111702451,4711.313980046434 3497.2088724309606,4757.009045807998 3474.3613452620607,4793.565098417248 3468.6494620418653,4802.704111569561 3435.1941460378634,4848.3991773311245 3428.6662795004977,4894.094220245177 3428.6662762365645,4894.094243092687 3428.6662795004977,4894.094250708528 3443.897968087685,4939.7893088542505 3428.6662795004977,4967.206348311189 3421.0504352069033,4985.484374615813 3407.895795063423,5031.179440377377 3414.60625926617,5076.87450613894 3413.815383127989,5122.569571900503 3403.413743158581,5168.264637662067 3394.7634887741765,5213.959703423629 3382.971213738934,5259.654763473311 3382.9712123949616,5259.654769185194 3366.4702177694808,5305.349834946756 3366.4702177694808,5328.197367827538" class="contours" style="fill:none;stroke:white;stroke-width:1px;stroke-linejoin:round"/><polyline points="2469.9486497723155,5328.197367827538 2469.9486497723155,5305.349834946756 2477.736204083139,5259.654769185194 2472.0500114921197,5213.959703423629 2469.0698985076697,5207.728558092508 2434.3416485288817,5168.264637662067 2440.949858039016,5122.569571900503 2469.0698985076697,5091.235812521146 2476.3546191363243,5076.87450613894 2514.764964269233,5053.420401588757 2531.9788589054383,5031.179440377377 2552.7213495389187,4985.484374615813 2560.460030030796,4962.636842279021 2570.0559938407246,4939.7893088542505 2578.174416757746,4894.094243092687 2560.460030030796,4853.476406860186 2550.2019540435062,4848.3991773311245 2514.764964269233,4830.311547133839 2479.4274467469572,4802.704111569561 2477.5713060912167,4757.009045807998 2508.781086609981,4711.313980046434 2514.764964269233,4679.8986223353595 2517.585647340935,4665.618914284872 2514.764964269233,4662.048987272249 2469.0698985076697,4622.360918697258 2465.339689057746,4619.923848523308 2423.3748327461067,4590.122718678811 2377.679766984543,4576.305831205453 2368.975944934722,4574.228782761746 2331.98470122298,4563.587466077545 2286.2896354614168,4530.610765443889 2240.5945696998538,4536.39926110668 2194.8995039382903,4570.896850883298 2188.0938558461426,4574.228782761746 2172.7734720958497,4619.923848523308 2171.5516601185136,4665.618914284872 2169.923318925759,4711.313980046434 2175.8876882564723,4757.009045807998 2192.0788208665895,4802.704111569561 2194.8995039382903,4809.231978106927 2210.1311925254786,4848.3991773311245 2223.4589200392675,4894.094243092687 2194.8995039382903,4912.556895925642 2168.724660443803,4939.7893088542505 2170.7338441605407,4985.484374615813 2194.8995039382903,5010.870522261126 2212.0839731135793,5031.179440377377 2206.0576013916952,5076.87450613894 2209.5564118240754,5122.569571900503 2204.7415181023193,5168.264637662067 2204.878886116103,5213.959703423629 2194.8995039382903,5241.96635663233 2183.7088755885197,5259.654769185194 2149.2044381767273,5301.922705014639 2147.028482664272,5305.349834946756 2147.028482664272,5328.197367827538" class="contours" style="fill:none;stroke:white;stroke-width:1px;stroke-linejoin:round"/><polyline points="2426.4211704635445,5328.197367827538 2426.4211704635445,5305.349834946756 2429.4100301108415,5259.654769185194 2423.3748327461067,5248.231002744802 2405.6045293943876,5213.959703423629 2386.383589034365,5168.264637662067 2414.9573206321347,5122.569571900503 2423.3748327461067,5108.139551133694 2453.727029711816,5076.87450613894 2469.0698985076697,5055.42580180188 2513.0725544262123,5031.179440377377 2514.764964269233,5030.574207718284 2542.2188545856557,4985.484374615813 2557.2420676532215,4939.7893088542505 2560.460030030796,4924.8887439320015 2566.700325355063,4894.094243092687 2560.460030030796,4879.785687147147 2514.764964269233,4854.305342293503 2469.0698985076697,4858.7567255704125 2463.4812933425865,4848.3991773311245 2453.58004570714,4802.704111569561 2454.9834496638796,4757.009045807998 2469.0698985076697,4724.140665172487 2477.7737205574913,4711.313980046434 2478.762791244971,4665.618914284872 2469.0698985076697,4657.089168676046 2423.3748327461067,4627.235059045159 2409.3148125117796,4619.923848523308 2377.679766984543,4605.903771528283 2331.98470122298,4591.636426861388 2311.214216785906,4574.228782761746 2286.2896354614168,4554.289117702154 2240.5945696998538,4557.748595110033 2219.205389981675,4574.228782761746 2202.0801571293932,4619.923848523308 2194.8995039382903,4640.867420330692 2190.563475800332,4665.618914284872 2186.101075127058,4711.313980046434 2194.8995036047495,4757.009045807998 2194.8995039382903,4757.009046686749 2217.3159512930197,4802.704111569561 2239.071400841135,4848.3991773311245 2240.5945696998538,4852.207099477921 2263.101094627191,4894.094243092687 2240.5945696998538,4922.545887812152 2194.8995039382903,4938.866176212603 2194.0122211079693,4939.7893088542505 2194.8995039382903,4962.636853158792 2199.976733467353,4985.484374615813 2234.3456718179305,5031.179440377377 2221.2007336498878,5076.87450613894 2234.128286809066,5122.569571900503 2240.5945696998538,5155.2089045873345 2243.938111097041,5168.264637662067 2240.5945696998538,5184.392307930854 2234.817032649541,5213.959703423629 2221.9557928760582,5259.654769185194 2194.8995039382903,5281.530066624239 2173.161074595411,5305.349834946756 2173.161074595411,5328.197367827538" class="contours" style="fill:none;stroke:white;stroke-width:1px;stroke-linejoin:round"/><polyline points="2561.662531761364,5328.197367827538 2561.662531761364,5305.349834946756 2566.4725386836335,5259.654769185194 2574.1685497592653,5213.959703423629 2577.8676741304394,5168.264637662067 2572.210189798055,5122.569571900503 2560.460030030796,5090.934526373267 2556.305933143381,5076.87450613894 2560.460030030796,5060.258118589281 2565.3810371128106,5031.179440377377 2581.0965113424704,4985.484374615813 2592.4465760638905,4939.7893088542505 2597.901801976394,4894.094243092687 2589.478064492519,4848.3991773311245 2560.460030030796,4812.9039030341955 2542.8850047378874,4802.704111569561 2536.450758189975,4757.009045807998 2560.460030030796,4720.68732686932 2566.2625780640105,4711.313980046434 2574.2311457397604,4665.618914284872 2560.460030030796,4623.731770670105 2558.231002432671,4619.923848523308 2514.764964269233,4580.32145819662 2508.237097731867,4574.228782761746 2469.0698985076697,4537.672730152494 2451.9342488470834,4528.533717000181 2423.3748327461067,4514.545431562969 2377.679766984543,4499.762749668827 2331.98470122298,4494.262417679009 2286.2896354614168,4490.926273497302 2240.5945696998538,4502.276104584956 2194.8995039382903,4524.158657512372 2160.628204617118,4528.533717000181 2149.2044381767273,4530.781015316324 2118.0242756570724,4574.228782761746 2125.128543313108,4619.923848523308 2131.7162031321786,4665.618914284872 2134.173166544634,4711.313980046434 2136.550419965833,4757.009045807998 2129.492841181543,4802.704111569561 2128.532860808401,4848.3991773311245 2144.920525761581,4894.094243092687 2121.164284186677,4939.7893088542505 2121.5617440740534,4985.484374615813 2139.8789145519186,5031.179440377377 2135.8474189541166,5076.87450613894 2108.4493795245226,5122.569571900503 2104.8149457226373,5168.264637662067 2120.1257599648234,5213.959703423629 2103.5093724151643,5226.7118147989495 2074.600249178257,5259.654769185194 2065.7612746121335,5305.349834946756 2065.7612746121335,5328.197367827538" class="contours" style="fill:none;stroke:white;stroke-width:1px;stroke-linejoin:round"/><polyline points="2529.665529191482,5328.197367827538 2529.665529191482,5305.349834946756 2533.639013170748,5259.654769185194 2539.2065110719295,5213.959703423629 2541.7133363850267,5168.264637662067 2524.219115806108,5122.569571900503 2523.0731580440624,5076.87450613894 2552.635532468885,5031.179440377377 2560.460030030796,5007.865631315355 2569.304236307228,4985.484374615813 2585.1353655420407,4939.7893088542505 2591.460206802958,4894.094243092687 2578.8047644606204,4848.3991773311245 2560.460030030796,4825.959636108928 2520.388972362964,4802.704111569561 2514.764964269233,4772.240734395185 2512.6396123733466,4757.009045807998 2514.764964269233,4753.911075247892 2546.577984736144,4711.313980046434 2554.8186638873935,4665.618914284872 2522.566560862671,4619.923848523308 2514.764964269233,4612.81572718262 2473.4218095325805,4574.228782761746 2469.0698985076697,4570.166999138495 2423.3748327461067,4541.7000918806325 2382.4897739068133,4528.533717000181 2377.679766984543,4526.841307157161 2331.98470122298,4520.373883828474 2286.2896354614168,4503.866469111195 2240.5945696998538,4513.188359095179 2210.3551879458782,4528.533717000181 2194.8995039382903,4539.481493172223 2149.2044381767273,4554.752197355177 2135.2271239437787,4574.228782761746 2140.8515766934306,4619.923848523308 2149.2044381767273,4663.080299520339 2149.5379788027244,4665.618914284872 2151.1911801663605,4711.313980046434 2153.8740069406826,4757.009045807998 2154.84580432013,4802.704111569561 2161.3276188889786,4848.3991773311245 2173.2982001237333,4894.094243092687 2149.2044381767273,4920.077711859066 2137.7806717363364,4939.7893088542505 2139.6141157329425,4985.484374615813 2149.2044381767273,5005.402736614444 2172.051970018985,5031.179440377377 2165.2594612821417,5076.87450613894 2149.2044381767273,5119.30563863182 2147.9694363993876,5122.569571900503 2146.593291561781,5168.264637662067 2149.2044381767273,5175.294647779231 2157.870743752196,5213.959703423629 2149.2044381767273,5226.52584650806 2105.032541273883,5259.654769185194 2103.5093724151643,5266.182635722559 2097.549146446265,5305.349834946756 2097.549146446265,5328.197367827538" class="contours" style="fill:none;stroke:white;stroke-width:1px;stroke-linejoin:round"/><polyline points="2496.3111877116785,5328.197367827538 2496.3111877116785,5305.349834946756 2501.3715829253265,5259.654769185194 2501.8511413366173,5213.959703423629 2490.013470315053,5168.264637662067 2476.6857428012636,5122.569571900503 2496.222039032657,5076.87450613894 2514.764964269233,5065.5518349767835 2541.368255979732,5031.179440377377 2558.2489784616887,4985.484374615813 2560.460030030796,4978.956508078448 2576.910253704959,4939.7893088542505 2584.2134122328425,4894.094243092687 2566.7973019247356,4848.3991773311245 2560.460030030796,4840.647335818001 2514.764964269233,4816.03183908335 2497.7054730515824,4802.704111569561 2493.5114453103665,4757.009045807998 2514.764964269233,4726.029340206938 2525.754916794166,4711.313980046434 2534.5097457711427,4665.618914284872 2514.764964269233,4640.629425196516 2490.671202322227,4619.923848523308 2469.0698985076697,4599.4398535267455 2430.589843129512,4574.228782761746 2423.3748327461067,4569.581826921586 2377.679766984543,4554.427587598401 2331.98470122298,4544.808671928958 2308.6891775013987,4528.533717000181 2286.2896354614168,4518.424189176827 2240.5945696998538,4525.464645419181 2234.5466933490584,4528.533717000181 2194.8995039382903,4556.617142832809 2158.9267925940817,4574.228782761746 2158.3434513290404,4619.923848523308 2161.545441338609,4665.618914284872 2161.40871039876,4711.313980046434 2165.881469476568,4757.009045807998 2175.1547224363803,4802.704111569561 2194.899503005738,4848.3991773311245 2194.8995039382903,4848.39918190063 2202.0393579635347,4894.094243092687 2194.8995039382903,4898.709906300926 2155.4154179889783,4939.7893088542505 2157.552575190859,4985.484374615813 2194.8995039382903,5024.717511885842 2200.367289584973,5031.179440377377 2198.08753178212,5076.87450613894 2196.6238460425006,5122.569571900503 2194.8995039382903,5131.708585052816 2180.27708289459,5168.264637662067 2186.2331983628214,5213.959703423629 2155.7323047140935,5259.654769185194 2149.2044381767273,5267.651405693467 2125.268927539718,5305.349834946756 2125.268927539718,5328.197367827538" class="contours" style="fill:none;stroke:white;stroke-width:1px;stroke-linejoin:round"/><polyline points="3634.294075427532,4516.348366130432 3611.44654254675,4516.348366130432 3565.751476785187,4505.686180855468 3520.0564110236237,4505.686181834647 3474.3613452620607,4504.342211597002 3428.666285212379,4482.838651238618 3428.6662795004977,4482.83864616139 3428.6662566529876,4482.838651238618 3382.971213738934,4505.686172695639 3364.693187434309,4528.533717000181 3367.7395251517464,4574.228782761746 3375.355369445341,4619.923848523308 3365.835564078348,4665.618914284872 3360.1236751462707,4711.313980046434 3344.891992270965,4757.009045807998 3344.891992270965,4802.704111569561 3337.2761479773712,4814.127878009952 3309.8591085204325,4848.3991773311245 3306.8127708029956,4894.094243092687 3337.2761479773712,4908.154263327015 3382.971213738934,4906.556533754932 3402.2112414280136,4939.7893088542505 3388.6830969591297,4985.484374615813 3384.355912701406,5031.179440377377 3394.68789726754,5076.87450613894 3394.3949801793246,5122.569571900503 3382.971213738934,5168.264633092561 3382.9712117521926,5168.264637662067 3370.50892307669,5213.959703423629 3360.12367951418,5259.654769185194 3344.891992270965,5305.349834946756 3344.891992270965,5328.197367827538" class="contours" style="fill:none;stroke:white;stroke-width:1px;stroke-linejoin:round"/><polyline points="2585.712566372713,5328.197367827538 2585.712566372713,5305.349834946756 2590.5225732949825,5259.654769185194 2597.016082640047,5213.959703423629 2599.627229254994,5168.264637662067 2598.3216559475204,5122.569571900503 2581.349202950368,5076.87450613894 2579.4410573471378,5031.179440377377 2588.466683239496,4985.484374615813 2597.016082640047,4939.7893088542505 2601.9277989597917,4894.094243092687 2596.1488770124556,4848.3991773311245 2560.460030030796,4804.744069862488 2556.9450249722145,4802.704111569561 2551.9406109905044,4757.009045807998 2560.460030030796,4744.120693926531 2580.7689481470466,4711.313980046434 2586.750341838819,4665.618914284872 2583.307564180885,4619.923848523308 2560.460030030796,4591.561393912683 2540.3542010957085,4574.228782761746 2514.764964269233,4545.150104549841 2495.5249365801537,4528.533717000181 2469.0698985076697,4511.778859554275 2423.3748327461067,4495.89438431335 2377.679770248476,4482.838651238618 2377.679766984543,4482.838650376448 2331.98470122298,4477.462761149022 2286.2896354614168,4482.838649894646 2286.289634226415,4482.838651238618 2240.5945696998538,4495.455945516065 2194.8995039382903,4514.436303095019 2149.2044381767273,4519.500971442663 2134.2656666777543,4528.533717000181 2107.272495477881,4574.228782761746 2115.301647450406,4619.923848523308 2120.4334708453725,4665.618914284872 2122.14814923896,4711.313980046434 2122.4903997315055,4757.009045807998 2111.5732075495575,4802.704111569561 2106.7733056838474,4848.3991773311245 2116.3611096606037,4894.094243092687 2110.77904196814,4939.7893088542505 2110.279011787248,4985.484374615813 2121.227867302301,5031.179440377377 2121.787398719789,5076.87450613894 2103.5093724151643,5105.16192780086 2086.5065572480707,5122.569571900503 2086.14524742577,5168.264637662067 2095.5624044566316,5213.959703423629 2057.814306653601,5257.370015897115 2056.429607691129,5259.654769185194 2047.0625264744097,5305.349834946756 2047.0625264744097,5328.197367827538" class="contours" style="fill:none;stroke:white;stroke-width:1px;stroke-linejoin:round"/><polyline points="2585.712566372713,5328.197367827538 2585.712566372713,5305.349834946756 2590.5225732949825,5259.654769185194 2597.016082640047,5213.959703423629 2599.627229254994,5168.264637662067 2598.3216559475204,5122.569571900503 2581.349202950368,5076.87450613894 2579.4410573471378,5031.179440377377 2588.466683239496,4985.484374615813 2597.016082640047,4939.7893088542505 2601.9277989597917,4894.094243092687 2596.1488770124556,4848.3991773311245 2560.460030030796,4804.744069862488 2556.9450249722145,4802.704111569561 2551.9406109905044,4757.009045807998 2560.460030030796,4744.120693926531 2580.7689481470466,4711.313980046434 2586.750341838819,4665.618914284872 2583.307564180885,4619.923848523308 2560.460030030796,4591.561393912683 2540.3542010957085,4574.228782761746 2514.764964269233,4545.150104549841 2495.5249365801537,4528.533717000181 2469.0698985076697,4511.778859554275 2423.3748327461067,4495.89438431335 2377.679770248476,4482.838651238618 2377.679766984543,4482.838650376448 2331.98470122298,4477.462761149022 2286.2896354614168,4482.838649894646 2286.289634226415,4482.838651238618 2240.5945696998538,4495.455945516065 2194.8995039382903,4514.436303095019 2149.2044381767273,4519.500971442663 2134.2656666777543,4528.533717000181 2107.272495477881,4574.228782761746 2115.301647450406,4619.923848523308 2120.4334708453725,4665.618914284872 2122.14814923896,4711.313980046434 2122.4903997315055,4757.009045807998 2111.5732075495575,4802.704111569561 2106.7733056838474,4848.3991773311245 2116.3611096606037,4894.094243092687 2110.77904196814,4939.7893088542505 2110.279011787248,4985.484374615813 2121.227867302301,5031.179440377377 2121.787398719789,5076.87450613894 2103.5093724151643,5105.16192780086 2086.5065572480707,5122.569571900503 2086.14524742577,5168.264637662067 2095.5624044566316,5213.959703423629 2057.814306653601,5257.370015897115 2056.429607691129,5259.654769185194 2047.0625264744097,5305.349834946756 2047.0625264744097,5328.197367827538" class="contours" style="fill:none;stroke:white;stroke-width:1px;stroke-linejoin:round"/><polyline points="3154.495884931118,4430.61571893969 3159.573114460181,4437.143585477055 3184.9592621054935,4482.838651238618 3191.0519375403687,4528.533717000181 3172.7739112357435,4574.228782761746 3154.495884931118,4604.69215993612 3139.2641963439305,4619.923848523308 3117.9398323218675,4665.618914284872 3108.800819169555,4680.850602872059 3063.105753407992,4711.313964814756 3017.4106876464284,4699.890213606043 2971.715621884865,4680.850602872059 2960.2918554444745,4665.618914284872 2956.4839332976776,4619.923848523308 2971.715621884865,4597.076327066287 2994.5631661894076,4574.228782761746 3017.4106876464284,4528.533739847691 3017.4107104939385,4528.533717000181 3063.105753407992,4482.838674086129 3063.1057625470007,4482.838651238618 3090.5227928649297,4437.143585477055 3108.800819169555,4428.004572324743 3154.495884931118,4430.61571893969" class="contours" style="fill:none;stroke:white;stroke-width:1px;stroke-linejoin:round"/><polyline points="3634.294075427532,4482.83864616139 3611.44654254675,4482.83864616139 3565.751476785187,4470.653300368868 3520.0564110236237,4479.79231352118 3474.3613452620607,4470.376360576374 3437.8052926528103,4437.143585477055 3428.6662795004977,4428.835391702226 3382.971213738934,4414.296046884392 3337.2761479773712,4414.296041172513 3314.428603672829,4437.143585477055 3306.8127708029956,4482.838651238618 3300.7200953681204,4528.533717000181 3301.735541273933,4574.228782761746 3303.0048486561986,4619.923848523308 3298.1089487531735,4665.618914284872 3291.5810822158073,4680.850602872059 3278.525349141075,4711.313980046434 3265.469616066343,4757.009045807998 3245.886016454245,4791.28034512917 3234.462250013854,4802.704111569561 3200.1909506926813,4825.551636834501 3154.495884931118,4840.78333303753 3108.800819169555,4825.551633026582 3101.770809052391,4848.3991773311245 3108.800819169555,4863.630865918312 3154.4958735073574,4894.094243092687 3154.495884931118,4894.094265940198 3172.7739112357435,4939.7893088542505 3200.1909506926813,4967.206348311189 3245.886016454245,4974.060608175422 3291.5810822158073,4948.928322006564 3337.2761479773712,4955.020997441438 3352.5078365645586,4985.484374615813 3347.8211631531162,5031.179440377377 3375.355369445341,5076.87450613894 3378.401707162778,5122.569571900503 3361.1170518529693,5168.264637662067 3355.2772344895016,5213.959703423629 3345.339983111764,5259.654769185194 3337.2761479773712,5284.579350509683 3304.63681529054,5305.349834946756 3304.63681529054,5328.197367827538" class="contours" style="fill:none;stroke:white;stroke-width:1px;stroke-linejoin:round"/><polyline points="1395.2358531109342,4358.215744616173 1418.0833859917159,4358.215744616173 1463.778451753279,4372.408908981507 1489.164599398592,4391.448519715492 1499.319058456717,4437.143585477055 1509.4735175148423,4459.991129781597 1527.7515438194675,4482.838651238618 1555.1685832764056,4493.383666414364 1600.8636490379688,4489.868661355782 1646.5587147995318,4505.686186404153 1692.253780561095,4513.793373206129 1727.403831146913,4528.533717000181 1737.9488463226583,4539.078732175927 1768.412223497034,4574.228782761746 1783.6439120842215,4586.921856584401 1829.3389778457847,4591.803808054653 1861.9783105326155,4574.228782761746 1875.034043607348,4568.51689954155 1893.3120699119734,4574.228782761746 1891.6504311570072,4619.923848523308 1875.034043607348,4646.035314672772 1861.325523878879,4665.618914284872 1850.4290081972756,4711.313980046434 1845.6586441892,4757.009045807998 1853.9440132558573,4802.704111569561 1875.034043607348,4841.871310793757 1877.572658371879,4848.3991773311245 1875.034043607348,4859.822943771515 1855.4504439952495,4894.094243092687 1829.3389778457847,4924.557620267063 1821.0307840709552,4939.7893088542505 1808.5684934087105,4985.484374615813 1783.6439120842215,5019.755673936987 1737.9488463226583,5010.870522261126 1715.101307729995,5031.179440377377 1692.253780561095,5054.026967546277 1666.1423144116304,5076.87450613894 1646.5587147995318,5086.66630594499 1600.8636490379688,5107.337883313316 1585.631960450781,5122.569571900503 1555.1685832764056,5157.719622486322 1509.4735175148423,5129.09743843787 1492.337867854256,5122.569571900503 1463.778451753279,5099.722034450216 1418.0833951307254,5076.87450613894 1418.0833859917159,5076.874503962985 1395.2358531109342,5076.874503962985" class="contours" style="fill:none;stroke:white;stroke-width:1px;stroke-linejoin:round"/><polyline points="1859.8023550201601,4391.448519715492 1829.3389778457847,4362.369841503588 1783.6439120842215,4391.448517539537 1783.6439108817199,4391.448519715492 1783.6439120842215,4391.448526243356 1829.3389778457847,4431.431702256859 1859.8023550201601,4391.448519715492" class="contours" style="fill:none;stroke:white;stroke-width:1px;stroke-linejoin:round"/><polyline points="1395.2358531109342,4297.0120504749275 1418.0833859917159,4297.0120504749275 1425.6992302853096,4300.058388192366 1463.778451753279,4315.290076779553 1509.4735175148423,4342.707116236492 1517.0893618084363,4345.753453953929 1551.9046500077225,4391.448519715492 1555.1685832764056,4414.296075443784 1578.016093309677,4437.143585477055 1600.8636490379688,4439.999527087153 1646.5587147995318,4458.233615828545 1675.6373930114357,4482.838651238618 1692.253780561095,4488.734788756239 1737.9488463226583,4505.686185751367 1771.618894778547,4528.533717000181 1783.6439120842215,4541.973442224172 1829.3389778457847,4545.368741228126 1861.325523878879,4528.533717000181 1875.034043607348,4522.005850462816 1920.7291093689112,4499.158317582034 1950.104508787059,4528.533717000181 1956.2697160723492,4574.228782761746 1946.1152570142242,4619.923848523308 1926.1049994585067,4665.618914284872 1920.7291093689112,4696.082291459247 1916.5750124814965,4711.313980046434 1903.1540840760024,4757.009045807998 1906.4494013184228,4802.704111569561 1920.7291068302968,4848.3991773311245 1912.6652742345177,4894.094243092687 1875.034043607348,4939.789305590318 1875.0340405610107,4939.7893088542505 1865.8950304550353,4985.484374615813 1875.034043607348,5019.755673936987 1879.1881404947626,5031.179440377377 1875.034043607348,5038.795284670971 1849.6478959620351,5076.87450613894 1829.3389778457847,5113.430558748191 1783.6439120842215,5101.799087463429 1737.9488463226583,5113.430558748191 1734.1409241758613,5122.569571900503 1711.2933912950798,5168.264637662067 1692.253780561095,5200.903970348897 1646.5587239385413,5168.264637662067 1646.5587147995318,5168.264630046225 1646.5587090876502,5168.264637662067 1600.8636490379688,5186.542663966692 1555.1685832764056,5191.112168910882 1512.51985523228,5168.264637662067 1509.4735175148423,5166.0886821496115 1463.778451753279,5154.824912438077 1418.0833859917159,5168.264633854144 1395.2358531109342,5168.264633854144" class="contours" style="fill:none;stroke:white;stroke-width:1px;stroke-linejoin:round"/><polyline points="1395.2358531109342,4263.502335583115 1418.0833859917159,4263.502335583115 1463.778451753279,4277.210859119506 1494.2418289276545,4300.058388192366 1509.4735175148423,4309.197401344678 1555.1685832764056,4331.323433187119 1582.5856227333434,4345.753453953929 1600.8636490379688,4364.031480258554 1646.5587147995318,4381.6567199094425 1654.1745590931257,4391.448519715492 1656.9439570180689,4437.143585477055 1692.253780561095,4469.510923724829 1724.2403265941894,4482.838651238618 1737.9488463226583,4487.734551141643 1783.6439120842215,4520.225523225352 1829.3389778457847,4522.637579482561 1875.034043607348,4498.0703398258065 1899.6390790174205,4482.838651238618 1920.7291093689112,4470.376360576374 1966.4241751304746,4444.759429770648 1978.4491924361491,4482.838651238618 1974.2576149753138,4528.533717000181 1974.8416872444466,4574.228782761746 1970.993681706631,4619.923848523308 1966.4241751304746,4639.507448135407 1955.672394951283,4665.618914284872 1955.8791599547292,4711.313980046434 1936.856779637698,4757.009045807998 1932.6495613067104,4802.704111569561 1935.0904157511168,4848.3991773311245 1930.8835684270364,4894.094243092687 1920.7291093689112,4934.712079325189 1916.9211872221142,4939.7893088542505 1920.7291036570296,4985.484374615813 1920.7291093689112,4985.484420310788 1924.883206256326,5031.179440377377 1920.7291093689112,5037.707306914743 1897.8815726802081,5076.87450613894 1887.2193944770981,5122.569571900503 1875.034043607348,5136.629592134831 1829.3389778457847,5168.264633092561 1783.6439120842215,5153.032949074878 1764.060312472123,5168.264637662067 1737.9488463226583,5198.7280148364425 1729.6406525478285,5213.959703423629 1692.253780561095,5255.085262609036 1646.5587147995318,5233.543303035728 1607.3915155753348,5213.959703423629 1600.8636490379688,5211.674950135552 1555.1685832764056,5209.063803520606 1509.4735175148423,5190.02419278662 1463.778451753279,5181.973157390536 1418.0833859917159,5194.719675734551 1395.2358531109342,5194.719675734551" class="contours" style="fill:none;stroke:white;stroke-width:1px;stroke-linejoin:round"/><polyline points="3075.0262053457905,4254.363322430802 3063.105753407992,4231.515785742099 3017.4106876464284,4209.9375640515045 2981.87008094299,4254.363322430802 2991.9064648957888,4300.058388192366 3017.4106876464284,4335.435213298092 3052.9512943498667,4345.753453953929 3063.105753407992,4349.907550841343 3068.4816434975874,4345.753453953929 3086.8671876040044,4300.058388192366 3075.0262053457905,4254.363322430802" class="contours" style="fill:none;stroke:white;stroke-width:1px;stroke-linejoin:round"/><polyline points="3045.773142257054,4254.363322430802 3017.4106876464284,4231.515788280713 2999.132661341803,4254.363322430802 3009.9719560108256,4300.058388192366 3017.4106876464284,4310.376628848202 3046.4893658583323,4300.058388192366 3045.773142257054,4254.363322430802" class="contours" style="fill:none;stroke:white;stroke-width:1px;stroke-linejoin:round"/><polyline points="3073.0394633561577,4208.668256669239 3063.105753407992,4193.436568082051 3017.4106876464284,4195.22853144525 3005.385670340754,4208.668256669239 2971.715621884865,4252.78763050799 2970.6529459369217,4254.363322430802 2971.715621884865,4259.440551959865 2980.217029468412,4300.058388192366 3011.3180122115537,4345.753453953929 3017.4106876464284,4355.3734677984685 3063.105753407992,4372.755083722125 3098.0490389903634,4345.753453953929 3106.973016539093,4300.058388192366 3096.880367231756,4254.363322430802 3073.0394633561577,4208.668256669239" class="contours" style="fill:none;stroke:white;stroke-width:1px;stroke-linejoin:round"/><polyline points="2971.715621884865,4142.202706470602 2983.139388325256,4162.973190907675 2971.715621884865,4177.252898958164 2938.2059069930524,4208.668256669239 2929.2085839671317,4254.363322430802 2926.020556123302,4300.058372960687 2919.1662962590676,4254.363322430802 2916.8815429709894,4208.668256669239 2926.020556123302,4194.608236434911 2955.39595554145,4162.973190907675 2971.715621884865,4142.202706470602" class="contours" style="fill:none;stroke:white;stroke-width:1px;stroke-linejoin:round"/><polyline points="3634.294075427532,4434.287643866957 3611.44654254675,4434.287643866957 3565.751476785187,4437.143583719553 3565.7514615535088,4437.143585477055 3520.0564110236237,4446.282598629368 3497.2088857586837,4437.143585477055 3474.3613452620607,4409.726546020118 3451.5138238050395,4391.448519715492 3428.6662795004977,4385.355844280617 3382.971213738934,4368.600983570777 3337.2761479773712,4354.0616477287585 3291.5811050633174,4345.753453953929 3291.5810822158073,4345.753449384423 3245.886016454245,4345.753444814919 3200.1909598316906,4300.058388192366 3200.1909506926813,4300.05838362286 3154.495884931118,4288.634621751974 3129.5713036066295,4254.363322430802 3108.800819169555,4235.323711696818 3094.8936252421227,4208.668256669239 3064.9335560384543,4162.973190907675 3063.105753407992,4160.986448918043 3059.8418201393088,4162.973190907675 3017.4106876464284,4180.444833698862 2992.158151304512,4208.668256669239 2971.715621884865,4235.455019357052 2958.963510509545,4254.363322430802 2967.293518746649,4300.058388192366 2971.715621884865,4307.67423248596 2994.563153242478,4345.753453953929 3017.4106876464284,4381.8285058709525 3047.874064820804,4391.448519715492 3063.105753407992,4400.587532867804 3081.3837797126166,4391.448519715492 3108.800819169555,4377.739999987023 3154.495884931118,4353.369298247522 3200.1909415536716,4391.448519715492 3200.1909506926813,4391.448534947171 3219.7745503047795,4437.143585477055 3245.886016454245,4473.699638086306 3250.455523030401,4482.838651238618 3254.194210229074,4528.533717000181 3250.455523030401,4574.228782761746 3245.886016454245,4619.9238028283335 3245.886008838402,4619.923848523308 3218.468976997306,4665.618914284872 3200.1909506926813,4711.313957198925 3200.1909415536716,4711.313980046434 3177.3434063881386,4757.009045807998 3154.495884931118,4768.432812248388 3108.800819169555,4768.432812248388 3074.5295198483823,4802.704111569561 3063.105753407992,4848.399162099446 3063.10574960007,4848.3991773311245 3057.3938701877964,4894.094243092687 3063.105753407992,4899.171472621751 3108.8008134576735,4939.7893088542505 3108.800819169555,4939.789313008347 3147.465874813955,4985.484374615813 3154.495884931118,4993.100218909408 3200.1909506926813,5014.859774033962 3225.577098337994,5031.179440377377 3245.886016454245,5057.290906526841 3265.469616066343,5076.87450613894 3286.503852686745,5122.569571900503 3291.5810822158073,5137.801260487691 3337.2761479773712,5153.032949074878 3339.2628899670044,5168.264637662067 3340.045545902314,5213.959703423629 3337.2761479773712,5227.015436498363 3299.1969265094017,5259.654769185194 3291.5810822158073,5264.224275761349 3245.886016454245,5276.271156734852 3200.1909506926813,5265.366652405389 3154.495884931118,5267.270613478787 3108.800819169555,5305.349823522996 3108.800803937877,5305.349834946756 3108.800803937877,5328.197367827538" class="contours" style="fill:none;stroke:white;stroke-width:1px;stroke-linejoin:round"/><polyline points="1395.2358531109342,4160.203792982733 1418.0833859917159,4160.203792982733 1444.1948521411805,4162.973190907675 1463.778451753279,4178.204879494864 1494.2418289276545,4208.668256669239 1496.41778444011,4254.363322430802 1509.4735175148423,4263.502335583115 1546.0295701240927,4300.058388192366 1555.1685832764056,4304.868395114636 1600.8636490379688,4333.4509362488925 1646.5587082716675,4345.753453953929 1646.5587147995318,4345.753457217861 1682.09932150297,4391.448519715492 1679.7914898988504,4437.143585477055 1692.253780561095,4448.567351917446 1737.9488463226583,4473.465304415734 1753.180534909846,4482.838651238618 1783.6439120842215,4504.993834638165 1829.3389778457847,4506.423201309102 1865.8950304550353,4482.838651238618 1875.034043607348,4478.269144662462 1920.7291093689112,4447.528827695592 1935.960797956099,4437.143585477055 1963.2727912848493,4391.448519715492 1966.4241751304746,4389.323167819605 2012.1192408920379,4388.2604918716615 2034.9667661569774,4391.448519715492 2022.2736999501626,4437.143585477055 2012.1192408920379,4463.255051626519 2004.904230508633,4482.838651238618 1988.6189213575192,4528.533717000181 1988.0692062806886,4574.228782761746 1987.7485391525372,4619.923848523308 1977.8479415708653,4665.618914284872 1977.8479415708653,4711.313980046434 1966.4241751304746,4757.009040096115 1966.4241724425294,4757.009045807998 1954.5037231926754,4802.704111569561 1949.4517221333224,4848.3991773311245 1944.8459496319583,4894.094243092687 1955.8791599547292,4939.7893088542505 1966.4241751304746,4956.924958514836 1974.0400194240683,4985.484374615813 1967.4868510784177,5031.179440377377 1966.4241751304746,5035.333537264792 1935.960797956099,5076.87450613894 1920.7291093689112,5122.569562761494 1920.729106322574,5122.569571900503 1879.6035501835045,5168.264637662067 1875.034043607348,5171.920242922992 1829.3389778457847,5199.6799953731415 1783.6439120842215,5204.820690271317 1775.335718309392,5213.959703423629 1758.2577644389087,5259.654769185194 1737.9488463226583,5305.349823522996 1692.253780561095,5301.195738059341 1646.5587147995318,5265.885914516315 1634.0964241372874,5259.654769185194 1600.8636490379688,5239.3458510689425 1555.1685832764056,5226.14505429338 1509.473523226724,5213.959703423629 1509.4735175148423,5213.959701247674 1463.778451753279,5207.105443559396 1440.9309112566557,5213.959703423629 1418.0833859917159,5225.38346986402 1395.2358531109342,5225.38346986402" class="contours" style="fill:none;stroke:white;stroke-width:1px;stroke-linejoin:round"/><polyline points="1395.2358531109342,4152.587948689139 1418.0833859917159,4152.587948689139 1463.778451753279,4156.880515472801 1509.4735118029605,4162.973190907675 1509.4735175148423,4162.973196619558 1535.584983664307,4208.668256669239 1533.6650229180227,4254.363322430802 1555.1685832764056,4275.866882789185 1579.360088679586,4300.058388192366 1600.8636490379688,4314.118408426692 1646.5587147995318,4324.8098821465455 1692.253780561095,4331.214114847977 1704.5562982661315,4345.753453953929 1701.9466732983965,4391.448519715492 1701.3927937134079,4437.143585477055 1737.9488463226583,4460.576952534267 1774.1241067172293,4482.838651238618 1783.6439120842215,4489.762146050976 1829.3389778457847,4490.208823135645 1840.7627442861756,4482.838651238618 1875.034043607348,4465.703001578032 1911.8849030924796,4437.143585477055 1920.7291093689112,4424.68129481481 1945.9401801339116,4391.448519715492 1966.4241751304746,4377.633732392228 2012.1192408920379,4376.571056444285 2057.814306653601,4381.8285058709525 2103.5093724151643,4390.020548910443 2106.1973174599616,4391.448519715492 2103.5093724151643,4393.853523176627 2057.814306653601,4424.68129481481 2050.198462360007,4437.143585477055 2026.1792611263647,4482.838651238618 2012.1192408920379,4507.209352978119 2002.980227739725,4528.533717000181 2001.2967253169304,4574.228782761746 2004.503396598444,4619.923848523308 1995.7995745486223,4665.618914284872 1993.5556204264026,4711.313980046434 1978.9903182149042,4757.009045807998 1971.737554870191,4802.704111569561 1966.4241751304746,4835.343444256392 1963.8130285155278,4848.3991773311245 1958.8083308368803,4894.094243092687 1966.4241751304746,4913.677842704786 1989.2717051553147,4939.7893088542505 1990.7948768699746,4985.484374615813 1979.1762865057945,5031.179440377377 1967.512152886702,5076.87450613894 1966.4241751304746,5081.028603026355 1944.6646200059204,5122.569571900503 1920.7291093689112,5150.494334310348 1904.735836352364,5168.264637662067 1875.034043607348,5192.026071858079 1844.5706664329723,5213.959703423629 1829.3389778457847,5233.543303035728 1803.22751169632,5259.654769185194 1794.0291543027586,5305.349834946756 1794.0291543027586,5328.197367827538" class="contours" style="fill:none;stroke:white;stroke-width:1px;stroke-linejoin:round"/><polyline points="1395.2358531109342,4140.81800750813 1418.0833859917159,4140.81800750813 1463.778451753279,4143.933580173692 1509.4735175148423,4147.741502320488 1555.1685832764056,4151.5494244672855 1582.5856227333434,4162.973190907675 1584.7359787691817,4208.668256669239 1579.360088679586,4254.363322430802 1600.8636490379688,4275.866882789185 1646.5587147995318,4283.442000642706 1692.253780561095,4293.0283780752015 1696.6056915860058,4300.058388192366 1734.4338412640764,4345.753453953929 1725.4865556604136,4391.448519715492 1732.4654384312707,4437.143585477055 1737.9488463226583,4440.658590535637 1783.6439120842215,4472.293636062873 1829.3389778457847,4473.2186373940785 1875.034043607348,4446.282598629368 1886.82631864259,4437.143585477055 1919.6145955698485,4391.448519715492 1920.7291093689112,4389.872827792679 1966.4241751304746,4359.568241277192 2012.1192408920379,4358.505565329249 2057.814306653601,4361.385976451306 2103.5093724151643,4365.745045224613 2149.2044381767273,4388.18458644681 2152.060379786825,4391.448519715492 2149.2044381767273,4395.25644186229 2103.5093724151643,4434.738582015921 2100.4630346977265,4437.143585477055 2057.814306653601,4479.79231352118 2056.05680412431,4482.838651238618 2024.1442581977124,4528.533717000181 2019.8971244259205,4574.228782761746 2024.5815315542823,4619.923848523308 2019.9208374854754,4665.618914284872 2016.80591430348,4711.313980046434 2012.1192408920379,4722.737746486825 1998.4107211635685,4757.009045807998 1989.8030459852278,4802.704111569561 1984.9492017905675,4848.3991773311245 1985.756702952674,4894.094243092687 2012.1192408920379,4922.653659193665 2019.0896746522762,4939.7893088542505 2014.1962893357452,4985.484374615813 2012.1192408920379,4993.548209750207 1997.2417776208313,5031.179440377377 1986.007774742573,5076.87450613894 1972.8214843370934,5122.569571900503 1966.4241751304746,5134.87208960554 1936.4860285970365,5168.264637662067 1920.7291093689112,5185.188736092275 1885.419285825885,5213.959703423629 1875.034043607348,5224.839480985906 1845.7892015199475,5259.654769185194 1829.3389778457847,5305.349829869529 1829.3389757687364,5305.349834946756 1829.3389757687364,5328.197367827538" class="contours" style="fill:none;stroke:white;stroke-width:1px;stroke-linejoin:round"/><polyline points="3634.294075427532,4174.396957348066 3611.44654254675,4174.396957348066 3565.751522480161,4162.973190907675 3565.751476785187,4162.973145212702 3520.056456718598,4117.278125146113 3565.751476785187,4094.430615112841 3611.44654254675,4094.4306036890916 3634.294075427532,4094.4306036890916" class="contours" style="fill:none;stroke:white;stroke-width:1px;stroke-linejoin:round"/><polyline points="2693.8896220545607,5328.197367827538 2693.8896220545607,5305.349834946756 2695.7877247861948,5259.654769185194 2690.405373290241,5213.959703423629 2688.137419658694,5168.264637662067 2684.105502091497,5122.569571900503 2677.553636044802,5076.87450613894 2666.472582597623,5031.179440377377 2651.8501615539226,4994.623387768126 2648.335156495341,4985.484374615813 2640.160726126546,4939.7893088542505 2640.9379070436985,4894.094243092687 2639.2446261714226,4848.3991773311245 2638.141641825454,4802.704111569561 2651.8501615539226,4757.009050885225 2651.8501635406647,4757.009045807998 2658.8801716710864,4711.313980046434 2657.3335694453103,4665.618914284872 2669.6204649056417,4619.923848523308 2672.6206459909968,4574.228782761746 2665.9101817882497,4528.533717000181 2651.8501629818934,4482.838651238618 2651.8501615539226,4482.8386488336155 2632.1182013387024,4437.143585477055 2617.0821767353423,4391.448519715492 2606.1550957923596,4371.342690780404 2579.499640764781,4345.753453953929 2560.460030030796,4321.70341934258 2547.6082927853563,4300.058388192366 2514.764964269233,4258.018927691728 2511.7186265517958,4254.363322430802 2469.0698985076697,4220.693273974914 2445.0198638963207,4208.668256669239 2423.3748327461067,4194.487029363926 2377.679766984543,4173.518206083421 2331.98470122298,4168.050420436739 2318.928968148248,4162.973190907675 2286.2896354614168,4146.65352456426 2256.9142360432693,4117.278125146113 2240.5945696998538,4103.838399922123 2202.5153482318847,4117.278125146113 2194.8995039382903,4121.086047292909 2156.234448293891,4162.973190907675 2149.2044381767273,4173.127649965801 2103.5093724151643,4193.436568082051 2057.814306653601,4186.734625103689 2012.1192408920379,4179.100861176463 1992.5356412799392,4162.973190907675 1966.4241751304746,4150.787840037926 1920.7291093689112,4145.021557929918 1882.0640537245115,4162.973190907675 1875.034043607348,4172.1122040599885 1834.4162073748473,4208.668256669239 1829.3389778457847,4212.476178816036 1783.6439120842215,4254.36331671892 1783.64390922828,4254.363322430802 1783.6439120842215,4254.363325286743 1829.3389778457847,4287.873037322615 1852.1865050146846,4300.058388192366 1875.034043607348,4320.367306308616 1920.7291093689112,4315.815307420491 1966.4241751304746,4312.697448934926 2012.1192408920379,4305.770271412562 2057.814306653601,4307.859984785803 2103.5093724151643,4309.850187998414 2149.2044381767273,4306.9126480566 2194.8995039382903,4301.172901991428 2206.323270378681,4300.058388192366 2240.5945696998538,4282.922738531779 2286.2896354614168,4269.59501101799 2300.349655695744,4300.058388192366 2331.98470122298,4320.621167785069 2359.9094636328246,4345.753453953929 2377.679766984543,4368.600990098643 2399.0041310066063,4391.448519715492 2377.679766984543,4403.751037420528 2331.98470122298,4405.508539949819 2286.2896354614168,4399.3954876740245 2240.5945696998538,4413.559035406571 2221.3545420107744,4437.143585477055 2194.8995039382903,4471.808807778931 2149.2044381767273,4479.323646180036 2141.5885938831334,4482.838651238618 2103.5093724151643,4496.0199202082995 2073.3179896798456,4528.533717000181 2062.821985093224,4574.228782761746 2068.6940842158774,4619.923848523308 2068.6149585608796,4665.618914284872 2068.1603592788606,4711.313980046434 2060.6702482636983,4757.009045807998 2057.814306653601,4764.6248901015915 2041.0965996676632,4802.704111569561 2039.9820858686005,4848.3991773311245 2046.124871226224,4894.094243092687 2055.4908287335215,4939.7893088542505 2046.7367149538281,4985.484374615813 2042.8934688539068,5031.179440377377 2043.0306089072126,5076.87450613894 2015.849450341961,5122.569571900503 2012.1192408920379,5148.681038049967 2007.6971377538216,5168.264637662067 2012.1192408920379,5195.681677119004 2014.657855656569,5213.959703423629 2012.1192408920379,5223.0987165759425 1998.5799621478707,5259.654769185194 1966.4241751304746,5299.118689615634 1957.8563503001812,5305.349834946756 1957.8563503001812,5328.197367827538" class="contours" style="fill:none;stroke:white;stroke-width:1px;stroke-linejoin:round"/><polyline points="1395.2358531109342,4127.663367364649 1418.0833859917159,4127.663367364649 1463.778451753279,4129.463476015862 1509.4735175148423,4130.717850370102 1555.1685832764056,4127.432584204238 1588.4013583757242,4117.278125146113 1571.6188069505683,4071.5830593845494 1555.1685832764056,4061.7912595784996 1509.4735175148423,4034.8041040154862 1463.778451753279,4050.2586953624864 1425.394596513566,4071.5830593845494 1418.0833859917159,4081.203073229089 1395.2358531109342,4081.203073229089" class="contours" style="fill:none;stroke:white;stroke-width:1px;stroke-linejoin:round"/><polyline points="1518.9933228818345,4071.5830593845494 1509.4735175148423,4066.0104903892366 1490.4339067808576,4071.5830593845494 1509.4735175148423,4084.276133207206 1518.9933228818345,4071.5830593845494" class="contours" style="fill:none;stroke:white;stroke-width:1px;stroke-linejoin:round"/><polyline points="1687.1765510320324,3934.49786209986 1646.5587147995318,3904.6561865004714 1609.0653275079928,3934.49786209986 1641.182824709936,3980.1929278614225 1646.5587147995318,3983.516205371355 1669.4062533921951,3980.1929278614225 1687.1765510320324,3934.49786209986" class="contours" style="fill:none;stroke:white;stroke-width:1px;stroke-linejoin:round"/><polyline points="1783.6439120842215,3870.5247700336713 1814.1072892585971,3888.8027963382965 1783.6439120842215,3891.849134055734 1776.0280677906276,3888.8027963382965 1783.6439120842215,3870.5247700336713" class="contours" style="fill:none;stroke:white;stroke-width:1px;stroke-linejoin:round"/><polyline points="1609.4314738682617,3843.1077305767335 1600.8636490379688,3829.3992108482644 1584.413425363806,3843.1077305767335 1581.0624538746247,3888.8027963382965 1580.8720577672848,3934.49786209986 1600.8636490379688,3976.219443882156 1603.5515940827663,3980.1929278614225 1646.5587147995318,4006.779147940878 1692.253780561095,4016.748980470674 1731.4209797852923,3980.1929278614225 1712.1934456206864,3934.49786209986 1692.253780561095,3916.8094495469963 1656.8167907868215,3888.8027963382965 1646.5587147995318,3878.7498818707527 1609.4314738682617,3843.1077305767335" class="contours" style="fill:none;stroke:white;stroke-width:1px;stroke-linejoin:round"/><polyline points="1856.7560173027227,3797.41266481517 1829.3389778457847,3793.4959448927502 1783.6439120842215,3794.8740500506387 1779.0744055080652,3797.41266481517 1783.6439120842215,3803.1245480353655 1829.3389778457847,3808.836431255561 1856.7560173027227,3797.41266481517" class="contours" style="fill:none;stroke:white;stroke-width:1px;stroke-linejoin:round"/><polyline points="2073.0459952407887,3797.41266481517 2057.814306653601,3793.4391808359037 2034.9667623490586,3797.41266481517 2057.814306653601,3810.4683978899025 2073.0459952407887,3797.41266481517" class="contours" style="fill:none;stroke:white;stroke-width:1px;stroke-linejoin:round"/><polyline points="2743.2402948345516,5328.197367827538 2743.2402948345516,5305.349834946756 2743.2402930770495,5305.349789251782 2741.608326442708,5259.654769185194 2735.080459905341,5213.959703423629 2730.634757694549,5168.264637662067 2725.9076819261113,5122.569571900503 2722.1502627255586,5076.87450613894 2721.480737952495,5031.179440377377 2743.2402930770495,4989.638471503229 2745.7789078415803,4985.484374615813 2743.2402930770495,4979.772491395618 2697.545227315486,4956.924958514836 2690.6909674512517,4939.7893088542505 2675.691065429521,4894.094243092687 2675.691065429521,4848.3991773311245 2695.260474027408,4802.704111569561 2697.545227315486,4795.088267275967 2707.930469534023,4757.009045807998 2711.2537470439547,4711.313980046434 2711.2537470439547,4665.618914284872 2710.6009603902185,4619.923848523308 2705.8534210903154,4574.228782761746 2699.8299806035643,4528.533717000181 2697.545227315486,4519.394703847869 2691.8333440952906,4482.838651238618 2670.543597547289,4437.143585477055 2651.8501615539226,4411.440110986176 2644.8965645902067,4391.448519715492 2626.791577104033,4345.753453953929 2606.1550957923596,4313.7669079208345 2595.188280009584,4300.058388192366 2560.460030030796,4258.715233455713 2557.1960967621135,4254.363322430802 2514.764964269233,4210.36066651226 2512.3599608080985,4208.668256669239 2469.0698985076697,4178.204879494864 2444.8783931044895,4162.973190907675 2423.3748327461067,4136.8617247582115 2392.911455571731,4117.278125146113 2414.235819593794,4071.5830593845494 2423.3748327461067,4063.9672150909555 2446.222370196394,4025.8879936229864 2469.0698985076697,3980.1929370004323 2469.0699050355342,3980.1929278614225 2484.301587094858,3934.49786209986 2514.764964269233,3904.0344849254843 2523.9039774215457,3888.8027963382965 2560.460030030796,3843.1077420004935 2606.1550957923596,3854.531497017124 2651.8501615539226,3870.8017098261657 2697.545227315486,3869.8944932645463 2738.4302861547794,3843.1077305767335 2727.5734133873702,3797.41266481517 2697.545227315486,3776.392934564851 2651.8501615539226,3778.9872350726046 2611.050995695384,3797.41266481517 2606.1550957923596,3816.996264427268 2578.7380563354213,3797.41266481517 2560.460030030796,3794.46459605636 2514.764964269233,3779.4610318374134 2469.0698985076697,3755.871695941022 2461.454054214076,3751.717599053607 2423.3748327461067,3746.1450300582937 2404.335222012122,3751.717599053607 2419.5669105993097,3797.41266481517 2423.3748327461067,3808.836431255561 2440.5104824066925,3843.1077305767335 2423.3748327461067,3858.3394191639213 2377.679766984543,3862.691330188832 2338.5125677603464,3843.1077305767335 2331.98470122298,3839.8437973080504 2286.2896354614168,3827.1144575601866 2250.749028757979,3843.1077305767335 2260.9034878161037,3888.8027963382965 2277.150622309104,3934.49786209986 2272.0099274109284,3980.1929278614225 2286.2896354614168,4008.7523439624 2320.5609347825894,4025.8879936229864 2286.2896354614168,4041.119682210174 2240.5945696998538,4035.027006775299 2214.483103550389,4025.8879936229864 2194.8995039382903,4019.656848291864 2149.2044381767273,4019.118354250903 2112.6483855674765,4025.8879936229864 2103.5093724151643,4030.042090510401 2080.6618623818927,4025.8879936229864 2057.814306653601,4023.349378858455 2012.1192408920379,4025.8879907670453 2012.1192367379415,4025.8879936229864 1994.5442155991286,4071.5830593845494 1966.4241751304746,4097.694525534014 1920.7291093689112,4090.823087073629 1884.1730567596605,4071.5830593845494 1875.034043607348,4067.0135528083933 1829.3389778457847,4071.583057556747 1829.33897515784,4071.5830593845494 1783.6439120842215,4099.326492168356 1760.7963771263917,4117.278125146113 1740.3538497837933,4162.973190907675 1737.9488463226583,4168.685074127871 1713.343810912586,4208.668256669239 1710.5318068657205,4254.363322430802 1737.948844146703,4300.058388192366 1737.9488463226583,4300.05839088031 1770.3161845704321,4345.753453953929 1749.9738636283328,4391.448519715492 1757.708874760091,4437.143585477055 1783.6439120842215,4455.597362034609 1829.3389778457847,4457.986948806891 1861.4490240566129,4437.143585477055 1875.034043607348,4421.435906621518 1898.4388333876607,4391.448519715492 1920.7291093689112,4359.934681259241 1948.146148825849,4345.753453953929 1966.4241751304746,4339.920041303516 2012.1192408920379,4337.7568174456555 2057.814306653601,4339.0663711595535 2103.5093724151643,4340.313565172791 2149.2044381767273,4338.899194089694 2194.8995039382903,4332.379288365179 2225.362881112666,4345.753453953929 2205.651284117482,4391.448519715492 2194.8995039382903,4409.726546020118 2175.315904326192,4437.143585477055 2149.2044381767273,4446.51693229994 2103.5093724151643,4463.67620430635 2084.3469254828956,4482.838651238618 2057.814306653601,4513.302028412994 2046.9917910784936,4528.533717000181 2038.369597818893,4574.228782761746 2044.3134917695027,4619.923848523308 2041.0965996676632,4665.618914284872 2039.0676130078314,4711.313980046434 2022.1150365273797,4757.009045807998 2012.1192408920379,4792.549652511435 2009.993888996151,4802.704111569561 2008.4142355600188,4848.3991773311245 2012.1192408920379,4867.982776943223 2016.3699446838111,4894.094243092687 2033.8050348127795,4939.7893088542505 2027.3509294792252,4985.484374615813 2016.7820027044422,5031.179440377377 2012.1192408920379,5054.026968688653 2006.679352110899,5076.87450613894 1990.1856093264873,5122.569571900503 1966.4241751304746,5168.264635904565 1966.4241735547826,5168.264637662067 1926.4409925891066,5213.959703423629 1920.7291093689112,5224.114162481756 1888.742563335817,5259.654769185194 1875.034043607348,5273.363288913662 1862.7315259023117,5305.349834946756 1862.7315259023117,5328.197367827538" class="contours" style="fill:none;stroke:white;stroke-width:1px;stroke-linejoin:round"/><polyline points="2334.061749666688,3706.0225332920436 2331.98470122298,3703.737780003966 2309.1371454946884,3706.0225332920436 2331.98470122298,3710.1766301794582 2334.061749666688,3706.0225332920436" class="contours" style="fill:none;stroke:white;stroke-width:1px;stroke-linejoin:round"/><polyline points="2776.632841133576,5328.197367827538 2776.632841133576,5305.349834946756 2773.7036702514247,5259.654769185194 2769.8957481046277,5213.959703423629 2766.0878280348793,5168.264637662067 2760.647937176692,5122.569571900503 2759.233566093596,5076.87450613894 2764.885324227263,5031.179440377377 2788.935358838612,4993.100218909408 2791.7047567635555,4985.484374615813 2788.935358838612,4970.252686028626 2777.511592398221,4939.7893088542505 2743.2402930770495,4910.929267320631 2721.915929054986,4894.094243092687 2721.915929054986,4848.3991773311245 2736.712426539683,4802.704111569561 2743.2402930770495,4775.287072112623 2749.3329685119247,4757.009045807998 2757.5200011275374,4711.313980046434 2756.680018301038,4665.618914284872 2754.66405951744,4619.923848523308 2746.0962346871465,4574.228782761746 2743.2402959329906,4528.533717000181 2750.856137370643,4482.838651238618 2743.2402930770495,4459.991110741996 2728.008604489861,4437.143585477055 2697.545227315486,4416.053555125564 2680.7102030875417,4391.448519715492 2656.660168476192,4345.753453953929 2651.8501642418673,4300.058388192366 2651.8501615539226,4300.058380576524 2606.1550957923596,4257.627255699485 2603.6164810278283,4254.363322430802 2571.8837964711865,4208.668256669239 2560.460030030796,4185.820716172616 2543.32438037021,4162.973190907675 2514.764964269233,4134.413774806699 2491.917439004293,4117.278125146113 2498.148576719573,4071.5830593845494 2514.764964269233,4048.7355322156495 2537.6125028618962,4025.8879936229864 2560.460030030796,4011.827973388659 2606.1550957923596,4012.1794738945173 2651.8501615539226,3980.1929430931013 2651.850166631151,3980.1929278614225 2651.8501672658044,3934.49786209986 2697.545227315486,3910.1271603603595 2733.0858340189243,3888.8027963382965 2743.2402930770495,3883.992789416027 2780.231536788791,3843.1077305767335 2756.0349114902874,3797.41266481517 2743.2402930770495,3789.7968205215766 2697.545227315486,3759.028809575457 2651.8501615539226,3764.983908468254 2606.1550957923596,3781.5187288981047 2560.460030030796,3766.4579428476595 2522.380808562827,3751.717599053607 2514.764964269233,3746.907592131337 2469.0698985076697,3718.8171517052815 2423.3748327461067,3724.969267876106 2377.679766984543,3712.5503998294093 2373.5256700971286,3706.0225332920436 2331.9847035077332,3660.3274675304806 2331.98470122298,3660.327465702678 2286.2896354614168,3649.447689968203 2272.849910237428,3660.3274675304806 2252.0183361402446,3706.0225332920436 2266.706035849318,3751.717599053607 2258.872596004479,3797.41266481517 2240.5945696998538,3806.1164868649917 2199.7095108605604,3843.1077305767335 2211.027174207077,3888.8027963382965 2226.8860499713846,3934.49786209986 2194.8995039382903,3980.1929213335584 2194.89949251453,3980.1929278614225 2149.2044381767273,3986.9625672335064 2103.5093724151643,3984.7624344375795 2080.661850958143,3980.1929278614225 2057.814306653601,3976.385005714626 2012.1192408920379,3975.623421285267 1989.2717003954144,3980.1929278614225 1966.4241751304746,3992.655218523668 1925.8063388979735,4025.8879936229864 1920.7291093689112,4029.695915769783 1897.8815993356395,4025.8879936229864 1875.034043607348,4024.1304910936956 1868.506177069982,4025.8879936229864 1829.3389778457847,4036.8548094057614 1783.6439120842215,4060.1592929441586 1753.180534909846,4071.5830593845494 1737.9488463226583,4076.660288913612 1728.8098331703457,4071.5830593845494 1737.9488463226583,4067.4289624971343 1766.5082624236352,4025.8879936229864 1762.4283458377815,3980.1929278614225 1737.9488463226583,3954.8067802161104 1727.9790137928626,3934.49786209986 1692.253780561095,3902.806122942646 1674.5352856739582,3888.8027963382965 1646.5587147995318,3861.3857568813587 1627.5191040655473,3843.1077305767335 1600.8636490379688,3800.4590025326074 1590.7091899798436,3797.41266481517 1555.1685832764056,3793.0309461804995 1548.2149863126892,3797.41266481517 1551.9046500077225,3843.1077305767335 1551.3606611296084,3888.8027963382965 1555.1685832764056,3897.941809490609 1562.7844275699993,3934.49786209986 1581.916914453906,3980.1929278614225 1600.8636490379688,4006.086798459642 1646.5587147995318,4022.5647161130546 1657.3104949787232,4025.8879936229864 1666.1423144116304,4071.5830593845494 1646.5587147995318,4080.722072536862 1623.7111895345922,4071.5830593845494 1600.8636490379688,4063.015234554256 1555.1685832764056,4041.119682210174 1529.57934644993,4025.8879936229864 1509.4735175148423,4012.9996417415196 1478.0581598037677,4025.8879936229864 1463.778451753279,4030.9652231520486 1418.0833859917159,4061.038044208804 1395.2358531109342,4061.038044208804" class="contours" style="fill:none;stroke:white;stroke-width:1px;stroke-linejoin:round"/><polyline points="3634.294075427532,3980.192922149541 3611.44654254675,3980.192922149541 3565.751476785187,3970.0384688032977 3520.0564110236237,3957.345390411136 3474.36135440107,3934.49786209986 3474.3613452620607,3934.497859053522 3428.6662795004977,3917.8814745502 3382.971213738934,3911.650324649572 3337.2761479773712,3911.650323507197 3291.5810822158073,3904.0344849254843 3261.1177050414326,3888.8027963382965 3245.886016454245,3879.663783185984 3200.1909506926813,3861.3857568813587 3169.727573518306,3843.1077305767335 3154.495884931118,3827.8760419895457 3136.217858626493,3797.41266481517 3108.800819169555,3774.5651243185466 3081.3837797126166,3751.717599053607 3063.105753407992,3738.6618659788746 3017.4106876464284,3716.176992350169 2994.5631661894076,3706.0225332920436 2971.715621884865,3687.7445069874184 2937.4443225636933,3660.3274675304806 2926.020556123302,3652.7116232368867 2880.3254995007487,3614.632401768917 2880.3254903617385,3614.6323865372387 2846.0541910405664,3568.937336007354 2846.0541910405664,3546.089803126573" class="contours" style="fill:none;stroke:white;stroke-width:1px;stroke-linejoin:round"/><polyline points="1733.975362343392,3546.089803126573 1733.975362343392,3568.937336007354 1737.9488463226583,3575.030011442229 1783.6439085692168,3614.632401768917 1783.6439120842215,3614.632408296782 1808.248947494294,3660.3274675304806 1783.6439120842215,3692.314013563575 1773.0988969084763,3706.0225332920436 1737.9488463226583,3717.4462997324345 1692.253780561095,3727.7276895287864 1646.5587147995318,3737.0951780099062 1600.8636490379688,3733.0665518039896 1555.1685832764056,3712.792172664127 1527.0485428077511,3706.0225332920436 1509.4735175148423,3693.329459469387 1503.4610088620047,3706.0225332920436 1468.0291555450522,3751.717599053607 1463.778451753279,3759.3334433472005 1436.8990013053005,3797.41266481517 1418.0833859917159,3824.0681198427483 1395.2358531109342,3824.0681198427483" class="contours" style="fill:none;stroke:white;stroke-width:1px;stroke-linejoin:round"/><polyline points="3634.294075427532,4357.600322855074 3611.44654254675,4357.600322855074 3582.367864334846,4345.753453953929 3565.751476785187,4319.6419878044635 3548.615827124601,4300.058388192366 3520.0564110236237,4279.287903755291 3474.3613452620607,4257.627255699485 3462.93757882167,4254.363322430802 3428.6662795004977,4241.901031768558 3382.971213738934,4219.213271844985 3363.387614126836,4208.668256669239 3337.2761479773712,4192.051869119579 3291.5810822158073,4167.127287795091 3283.9652379222134,4162.973190907675 3245.886016454245,4137.587043262363 3209.329963844994,4117.278125146113 3200.1909506926813,4108.1391119938 3154.495884931118,4076.660288913612 3143.0721184907275,4071.5830593845494 3116.4166634631492,4025.8879936229864 3108.800819169555,4003.0404378946946 3101.184974875961,3980.1929278614225 3063.105753407992,3942.1137063934534 3056.577886870625,3934.49786209986 3022.487917175491,3888.8027963382965 3017.4106876464284,3877.3790298979056 3002.178999059241,3843.1077305767335 2971.7156284127295,3797.41266481517 2971.715621884865,3797.4126606610735 2926.020556123302,3766.949287640795 2903.1730289544016,3751.717599053607 2880.3254903617385,3740.293832613216 2834.630424600176,3718.0475505977183 2811.7828962889,3706.0225332920436 2788.935358838612,3688.4475079991344 2766.087828813772,3660.3274675304806 2743.2402930770495,3632.2074270618264 2720.3927647657733,3614.632401768917 2697.545227315486,3595.592791034932 2651.850168081787,3568.937336007354 2651.850168081787,3546.089803126573" class="contours" style="fill:none;stroke:white;stroke-width:1px;stroke-linejoin:round"/><polyline points="1783.6439099082663,3546.089803126573 1783.6439099082663,3568.937336007354 1783.6439120842215,3568.937337994096 1829.3389778457847,3568.9373385459685 1875.034043607348,3584.169024594542 1884.488195144223,3614.632401768917 1881.5619101447141,3660.3274675304806 1875.034043607348,3683.17499279542 1862.5717529451033,3706.0225332920436 1829.3389778457847,3730.3932350315445 1783.6439120842215,3742.5785859012944 1737.9488463226583,3743.7209625453334 1702.4082396192202,3751.717599053607 1697.9656637812905,3797.41266481517 1692.253780561095,3808.836431255561 1686.5418973408996,3797.41266481517 1646.5587147995318,3770.7572097875914 1600.8636490379688,3753.2407679123257 1595.591141450096,3751.717599053607 1555.1685832764056,3732.254885858867 1509.4735175148423,3730.214038695224 1492.470702347749,3751.717599053607 1466.364964909594,3797.41266481517 1463.778451753279,3806.551677967483 1441.8448201877286,3843.1077305767335 1418.0833859917159,3861.1088170888643 1395.2358531109342,3861.1088170888643" class="contours" style="fill:none;stroke:white;stroke-width:1px;stroke-linejoin:round"/><polyline points="3634.294075427532,4394.30446132559 3611.44654254675,4394.30446132559 3588.5990210897294,4391.448519715492 3565.751476785187,4386.879013139336 3520.0564110236237,4350.830683482991 3509.9019519654985,4345.753453953929 3474.3613452620607,4325.761862683245 3428.6662795004977,4307.67423248596 3405.818754235557,4300.058388192366 3382.971213738934,4290.919375040053 3337.2761479773712,4266.548673300553 3311.1646818279064,4254.363322430802 3291.5810822158073,4245.22430927849 3245.886016454245,4222.947964719728 3217.3266003532676,4208.668256669239 3200.1909506926813,4198.87645686319 3154.495884931118,4177.033211142003 3131.648357762218,4162.973190907675 3108.800819169555,4150.787840037926 3079.2334236767792,4117.278125146113 3063.105753407992,4100.142475485527 3021.564784533843,4071.5830593845494 3017.4106876464284,4060.1592929441586 3004.948396984184,4025.8879936229864 2980.854635037178,3980.1929278614225 2971.715621884865,3967.137194786691 2954.140596591956,3934.49786209986 2936.565571299047,3888.8027963382965 2926.020556123302,3873.5711077511087 2908.8849064627157,3843.1077305767335 2880.3254903617385,3805.0285091087644 2875.973579336828,3797.41266481517 2834.630424600176,3765.256877797774 2808.5189584507107,3751.717599053607 2788.935358838612,3739.797147115808 2756.5680205908384,3706.0225332920436 2743.2402930770495,3690.790844704856 2703.2571105356815,3660.3274675304806 2697.545227315486,3655.5174606082105 2679.267201010861,3660.3274675304806 2651.8501615539226,3666.855334067847 2606.1550957923596,3679.911067142579 2586.571496180261,3660.3274675304806 2560.460030030796,3627.094692431162 2552.8441857372027,3614.632401768917 2527.820697343965,3568.937336007354 2527.820697343965,3546.089803126573" class="contours" style="fill:none;stroke:white;stroke-width:1px;stroke-linejoin:round"/><polyline points="1918.4443560808331,3546.089803126573 1918.4443560808331,3568.937336007354 1919.1534174460985,3614.632401768917 1920.7291093689112,3623.7714149212297 1932.1528758093018,3660.3274675304806 1966.4241751304746,3702.507528233462 1972.1360583506698,3706.0225332920436 1966.4241751304746,3709.286466560727 1920.7291093689112,3742.5785859012944 1911.5900962165986,3751.717599053607 1875.034043607348,3767.6115349706724 1829.3389778457847,3771.3011986657057 1783.6439120842215,3773.295824552123 1740.2335996107365,3797.41266481517 1776.4289017008168,3843.1077305767335 1737.9488463226583,3871.2277710453877 1692.253780561095,3852.8460232800176 1682.353182979423,3843.1077305767335 1646.5587147995318,3798.364645351869 1645.866365318296,3797.41266481517 1600.8636490379688,3764.4106728762636 1556.9260858056964,3751.717599053607 1555.1685832764056,3750.8713941320966 1548.6407167390391,3751.717599053607 1509.4735175148423,3759.7814341880007 1485.332728055903,3797.41266481517 1475.8034690589536,3843.1077305767335 1463.778451753279,3860.0318290069417 1422.8933929139855,3888.8027963382965 1418.0833859917159,3897.1109901131263 1395.2358531109342,3897.1109901131263" class="contours" style="fill:none;stroke:white;stroke-width:1px;stroke-linejoin:round"/><polyline points="3634.294075427532,4418.57996501142 3611.44654254675,4418.57996501142 3565.751476785187,4417.811057654855 3520.0564110236237,4396.525749244554 3515.4869044474676,4391.448519715492 3474.3613452620607,4369.803488565278 3428.6662795004977,4351.846129388804 3413.43459091331,4345.753453953929 3382.971213738934,4335.598994895804 3337.2761479773712,4318.33641449699 3298.1089487531735,4300.058388192366 3291.5810822158073,4297.0120504749275 3245.886016454245,4277.2108515036625 3206.718817230047,4254.363322430802 3200.1909506926813,4251.316984713365 3154.495884931118,4236.788297137893 3124.0325077567422,4208.668256669239 3108.800819169555,4197.916476490048 3085.0393849735415,4162.973190907675 3063.105753407992,4139.132287032077 3023.938554183794,4162.973190907675 3017.4106876464284,4165.661135952473 2978.9306322682696,4208.668256669239 2971.715621884865,4218.122408206114 2947.2740750821686,4254.363322430802 2951.079140573191,4300.058388192366 2971.715621884865,4335.598994895804 2977.80829731974,4345.753453953929 2996.0863236243654,4391.448519715492 2971.715621884865,4428.004572324743 2958.659888810132,4437.143585477055 2926.020556123302,4456.183196211039 2880.3254995007487,4437.143585477055 2880.3254903617385,4437.143562629545 2870.1710313036137,4391.448519715492 2862.7504650688293,4345.753453953929 2866.6169706332703,4300.058388192366 2880.3254903617385,4254.363337662481 2880.325492646492,4254.363322430802 2880.3254903617385,4254.363276735829 2876.171393474324,4208.668256669239 2880.3254903617385,4185.820746635967 2885.4027198908016,4162.973190907675 2926.020556123302,4132.5098137333 2938.2059069930524,4117.278125146113 2942.636943672961,4071.5830593845494 2934.3287498981317,4025.8879936229864 2926.020556123302,4007.6099673183608 2913.558265461057,3980.1929278614225 2894.3855105960656,3934.49786209986 2880.3254936256712,3888.8027963382965 2880.3254903617385,3888.802789810432 2866.4182964343063,3843.1077305767335 2838.9823356250863,3797.41266481517 2834.630424600176,3794.0278451291283 2788.935358838612,3763.4070344809834 2769.602831016412,3751.717599053607 2743.2402930770495,3724.300559596669 2722.469808639975,3706.0225332920436 2697.545227315486,3685.713615175793 2651.8501615539226,3703.846577779588 2647.2806549777665,3706.0225332920436 2606.1550957923596,3720.2037605973564 2580.4516213014804,3706.0225332920436 2560.460030030796,3686.03094202136 2549.0362635904053,3660.3274675304806 2514.764964269233,3617.783785614542 2501.7092311945007,3614.632401768917 2469.0698985076697,3586.0729856679404 2423.3748327461067,3595.048802156819 2377.679766984543,3572.7452581541506 2375.5038114720883,3568.937336007354 2375.5038114720883,3546.089803126573" class="contours" style="fill:none;stroke:white;stroke-width:1px;stroke-linejoin:round"/><polyline points="1961.3469456014118,3546.089803126573 1961.3469456014118,3568.937336007354 1961.3469456014118,3614.632401768917 1966.4241751304746,3627.68813484365 1985.4637858644592,3660.3274675304806 2012.1192408920379,3679.1430828440657 2057.814306653601,3687.7445069874184 2103.5093724151643,3692.9668002173116 2111.1252167087578,3706.0225332920436 2103.5093724151643,3710.8325402143137 2057.814306653601,3721.254221879232 2012.1192408920379,3738.6618659788746 1989.2717022993743,3751.717599053607 1966.4241751304746,3759.028809575457 1920.7291093689112,3782.873325709218 1885.1885026654732,3797.41266481517 1899.4047453468484,3843.1077305767335 1920.7291093689112,3875.0942766098274 1943.5766346338512,3888.8027963382965 1920.7291093689112,3896.86663147269 1875.034043607348,3907.0808226429217 1829.3389778457847,3922.0355714376155 1783.6439120842215,3917.743004653953 1737.9488463226583,3895.9109176789843 1729.531334208686,3888.8027963382965 1692.253780561095,3865.5807137381576 1669.406248441898,3843.1077305767335 1646.5587147995318,3814.5483144757563 1634.0964241372874,3797.41266481517 1600.8636490379688,3773.0419630756696 1555.1685832764056,3761.7329559328537 1509.4735175148423,3782.628967068782 1499.9896359416878,3797.41266481517 1496.2459984786003,3843.1077305767335 1463.778451753279,3888.802794645887 1463.7784493482757,3888.8027963382965 1463.7784460413973,3934.49786209986 1434.91841021966,3980.1929278614225 1418.0833859917159,4025.8879870951214 1395.2358531109342,4025.8879870951214" class="contours" style="fill:none;stroke:white;stroke-width:1px;stroke-linejoin:round"/><polyline points="2926.0205713549803,5328.197367827538 2926.0205713549803,5305.349834946756 2926.020556123302,5305.349829234875 2880.3254903617385,5279.2383687972915 2869.7804751859935,5259.654769185194 2862.0474640571133,5213.959703423629 2865.093801774551,5168.264637662067 2867.269757287006,5122.569571900503 2869.7804751859935,5076.87450613894 2870.533690555689,5031.179440377377 2865.093801774551,4985.484374615813 2867.8631996994945,4939.7893088542505 2871.186477209426,4894.094243092687 2880.3254903617385,4848.399200178635 2880.3255017854995,4848.3991773311245 2898.603516666364,4802.704111569561 2903.173030858362,4757.009045807998 2893.381223436471,4711.313980046434 2889.4645035140516,4665.618914284872 2896.9418779113985,4619.923848523308 2908.8849064627157,4574.228782761746 2926.020556123302,4546.811743304806 2939.0762891980344,4528.533717000181 2926.020556123302,4513.302028412994 2880.3254903617385,4499.9743008992045 2866.6169706332703,4482.838651238618 2844.422224406225,4437.143585477055 2834.630424600176,4417.559985864957 2821.574691525443,4391.448519715492 2815.0468249880773,4345.753453953929 2788.935370262373,4300.058388192366 2788.935358838612,4300.058365344856 2778.7808997804873,4254.363322430802 2788.935358838612,4241.30758935607 2827.0145803065816,4208.668256669239 2834.630424600176,4197.244490228848 2845.175439775921,4162.973190907675 2880.3254903617385,4117.278129715618 2880.325496889603,4117.278125146113 2894.0340100902076,4071.5830593845494 2880.325495438967,4025.8879936229864 2880.3254903617385,4025.8879783913076 2865.093801774551,3980.1929278614225 2848.3389443286446,3934.49786209986 2846.815775469926,3888.8027963382965 2844.564134548342,3843.1077305767335 2834.630424600176,3826.7880642333175 2820.9219048717064,3797.41266481517 2788.935358838612,3775.09646990836 2750.270303194213,3751.717599053607 2743.2402930770495,3744.406388531757 2699.622275759193,3706.0225332920436 2697.545227315486,3704.3301234490227 2693.391130428071,3706.0225332920436 2651.8501615539226,3720.7628770860965 2606.1550957923596,3737.536371748294 2560.460030030796,3711.5613291419304 2553.430019913633,3706.0225332920436 2535.0738823854836,3660.3274675304806 2514.764964269233,3635.1163967654797 2469.0698985076697,3625.1774169446626 2423.3748327461067,3642.7524422375714 2377.679772696425,3614.632401768917 2377.679766984543,3614.632397960996 2351.568300835079,3568.937336007354 2351.568300835079,3546.089803126573" class="contours" style="fill:none;stroke:white;stroke-width:1px;stroke-linejoin:round"/><polyline points="1992.1276496213538,3546.089803126573 1992.1276496213538,3568.937336007354 2000.6954744516468,3614.632401768917 2012.1192408920379,3634.2160013810158 2057.814306653601,3654.2347920956054 2103.5093724151643,3629.864090356105 2130.926411872102,3660.3274675304806 2149.2044381767273,3696.883520139731 2152.719443235309,3706.0225332920436 2149.2044381767273,3709.5375383506253 2103.5093724151643,3737.2875782867977 2057.814306653601,3749.1789842890753 2052.1024234334054,3751.717599053607 2012.1192408920379,3763.564467954753 1966.4241751304746,3779.134638510545 1933.7848424436436,3797.41266481517 1933.7848424436436,3843.1077305767335 1966.4241751304746,3868.4938782220465 2012.1192408920379,3880.234971508003 2021.2582540443502,3888.8027963382965 2012.1192408920379,3897.941809490609 1966.4241751304746,3910.3063566966794 1920.7291093689112,3926.4340269654663 1875.034043607348,3932.2131088117817 1867.4181993137543,3934.49786209986 1829.3389778457847,3948.7775701503483 1783.643921223231,3934.49786209986 1783.6439120842215,3934.497860576691 1737.9488463226583,3907.0808226429217 1716.3038151724443,3888.8027963382965 1692.253780561095,3873.820807564013 1661.0288189573603,3843.1077305767335 1646.5587147995318,3825.020100379448 1626.4805798436935,3797.41266481517 1600.8636490379688,3778.6269155576383 1555.1685832764056,3768.618513787336 1509.4735175148423,3797.412663471198 1509.4735166526712,3797.41266481517 1509.4735163123405,3843.1077305767335 1481.730084731036,3888.8027963382965 1491.7032141631232,3934.49786209986 1463.778451753279,3976.385005714626 1461.373448292144,3980.1929278614225 1429.2532909556535,4025.8879936229864 1418.0833859917159,4033.621004751866 1395.2358531109342,4033.621004751866" class="contours" style="fill:none;stroke:white;stroke-width:1px;stroke-linejoin:round"/><polyline points="2844.7848836583007,5328.197367827538 2844.7848836583007,5305.349834946756 2834.630424600176,5274.886457772381 2832.3456713120972,5259.654769185194 2830.060918024019,5213.959703423629 2832.0918098356447,5168.264637662067 2831.774482990078,5122.569571900503 2831.774482990078,5076.87450613894 2834.630424600176,5031.179486072351 2834.6304278641082,5031.179440377377 2834.630424600176,5031.179425145699 2830.476327712761,4985.484374615813 2829.5531950711124,4939.7893088542505 2822.1681339379306,4894.094243092687 2816.3523982955503,4848.3991773311245 2822.1681339379306,4802.704111569561 2834.630424600176,4775.287072112623 2843.7694377524886,4757.009045807998 2846.0541910405664,4711.313980046434 2846.0541910405664,4665.618914284872 2851.2468121498346,4619.923848523308 2849.8621131873633,4574.228782761746 2834.630432216017,4528.533717000181 2834.630424600176,4528.53370557642 2823.878644420984,4482.838651238618 2811.7828945753354,4437.143585477055 2788.935358838612,4396.525749244554 2784.7812619511974,4391.448519715492 2743.2402930770495,4353.369298247522 2736.2102829598857,4345.753453953929 2727.112622808262,4300.058388192366 2731.054942207299,4254.363322430802 2734.1012799247364,4208.668256669239 2743.2402930770495,4162.97323660265 2743.2403387720233,4162.973190907675 2788.935358838612,4117.278170841087 2788.9353664544537,4117.278125146113 2816.3523982955503,4071.5830593845494 2815.0468249880773,4025.8879936229864 2801.991091913345,3980.1929278614225 2798.074371990925,3934.49786209986 2814.638833329492,3888.8027963382965 2825.491411447863,3843.1077305767335 2804.1670474258,3797.41266481517 2788.935358838612,3786.785905335737 2743.2402930770495,3759.3334433472005 2731.393424175903,3751.717599053607 2697.545227315486,3721.254221879232 2651.8501615539226,3736.9772552595546 2613.770940085954,3751.717599053607 2606.1550957923596,3753.7043410432398 2601.585589216203,3751.717599053607 2560.460030030796,3726.793017729118 2534.097492091433,3706.0225332920436 2521.111501180561,3660.3274675304806 2514.764964269233,3652.449007916418 2469.0698985076697,3644.5099447668626 2441.652859050732,3660.3274675304806 2423.3748327461067,3676.4551377992675 2403.7912331340085,3660.3274675304806 2377.679766984543,3641.087439841401 2341.7765010290295,3614.632401768917 2331.98470122298,3587.2153623119793 2320.5609347825894,3568.937336007354 2320.5609347825894,3546.089803126573" class="contours" style="fill:none;stroke:white;stroke-width:1px;stroke-linejoin:round"/><polyline points="2027.3509294792252,3546.089803126573 2027.3509294792252,3568.937336007354 2048.6752935012883,3614.632401768917 2057.814306653601,3620.7250772037924 2066.9533198059135,3614.632401768917 2083.9257728030657,3568.937336007354 2083.9257728030657,3546.089803126573" class="contours" style="fill:none;stroke:white;stroke-width:1px;stroke-linejoin:round"/><polyline points="2124.599402766655,3546.089803126573 2124.599402766655,3568.937336007354 2144.1272086476647,3614.632401768917 2149.2044381767273,3620.3442849891126 2175.859893204306,3660.3274675304806 2191.3844988797086,3706.0225332920436 2149.2044381767273,3748.202593995025 2141.5885938831334,3751.717599053607 2103.5093724151643,3770.7572097875914 2057.814306653601,3771.585018949939 2012.1192408920379,3782.1809762279822 1970.993681706631,3797.41266481517 1981.6558637176622,3843.1077305767335 2012.1192408920379,3848.8196137969285 2054.7679689361635,3888.8027963382965 2012.1192408920379,3931.4515243824226 1996.88755230485,3934.49786209986 1966.4241751304746,3937.8826817859017 1920.7291093689112,3953.737889788939 1875.034043607348,3969.6479126856775 1829.3389778457847,3980.1929250054814 1783.6439120842215,3953.83038992206 1765.0274038109922,3934.49786209986 1737.9488463226583,3918.2507276068595 1703.0762961362022,3888.8027963382965 1692.253780561095,3882.060901389869 1652.651390234407,3843.1077305767335 1646.5587147995318,3835.491886283139 1618.8647355500998,3797.41266481517 1600.8636490379688,3784.2118680396075 1555.1685832764056,3775.504071641818 1520.4005984578248,3797.41266481517 1521.4412728333468,3843.1077305767335 1509.4735175148423,3872.675126069509 1499.6817177087928,3888.8027963382965 1509.4735175148423,3916.2198357952343 1517.0893618084363,3934.49786209986 1509.4735175148423,3980.1929164376625 1509.4735129453366,3980.1929278614225 1463.778451753279,3994.039917486139 1440.4231959195913,4025.8879936229864 1418.0833859917159,4041.354015880746 1395.2358531109342,4041.354015880746" class="contours" style="fill:none;stroke:white;stroke-width:1px;stroke-linejoin:round"/><polyline points="2812.9853934499615,5328.197367827538 2812.9853934499615,5305.349834946756 2807.2133851432372,5259.654769185194 2804.92863185516,5213.959703423629 2804.1670474258,5168.264637662067 2800.359125279003,5122.569571900503 2800.359125279003,5076.87450613894 2806.705662190331,5031.179440377377 2815.244639125573,4985.484374615813 2810.9366867978833,4939.7893088542505 2788.935358838612,4902.66206792298 2778.3903436628666,4894.094243092687 2773.7036702514247,4848.3991773311245 2780.871523704219,4802.704111569561 2788.935358838612,4783.120511957462 2802.9953790729396,4757.009045807998 2808.5189584507107,4711.313980046434 2806.5103841315213,4665.618914284872 2807.9749695725973,4619.923848523308 2798.074371990925,4574.228782761746 2792.7432809854095,4528.533717000181 2794.3112489282075,4482.838651238618 2788.935358838612,4464.560624933993 2780.871523704219,4437.143585477055 2743.2402930770495,4394.494857432929 2739.086196189634,4391.448519715492 2697.5452308304903,4345.753453953929 2697.545230003431,4300.058388192366 2697.545230361823,4254.363322430802 2697.545227315486,4254.363315902938 2651.850168081787,4208.668256669239 2651.8501615539226,4208.66824753023 2626.46401390861,4162.973190907675 2621.386784379547,4117.278125146113 2651.8501615539226,4099.000098841488 2697.545227315486,4071.5830659124144 2697.5452349313273,4071.5830593845494 2730.184560002317,4025.8879936229864 2743.2402930770495,3980.1929507089335 2743.2402981542773,3980.1929278614225 2747.809799653205,3934.49786209986 2783.559468749017,3888.8027963382965 2788.935358838612,3882.7101209034213 2808.7365540019564,3843.1077305767335 2788.935358838612,3800.676598083853 2787.10755620815,3797.41266481517 2743.2402930770495,3771.3011986657057 2712.776915902674,3751.717599053607 2697.545227315486,3738.009079325138 2656.419668130079,3751.717599053607 2651.8501615539226,3752.4546162433094 2606.1550957923596,3764.6314219862224 2576.4533030473435,3751.717599053607 2560.460030030796,3742.0247063163056 2514.7649660267357,3706.0225332920436 2514.764964269233,3706.022525676202 2469.0698985076697,3667.943311824074 2423.3748327461067,3706.0225306040984 2377.679766984543,3667.943311824074 2370.825507120309,3660.3274675304806 2331.98470122298,3629.2548228126175 2291.3668649904794,3614.632401768917 2286.2896354614168,3607.016557475323 2273.5965616387602,3568.937336007354 2273.5965616387602,3546.089803126573" class="contours" style="fill:none;stroke:white;stroke-width:1px;stroke-linejoin:round"/><polyline points="2155.100575694348,3546.089803126573 2155.100575694348,3568.937336007354 2173.2544727880763,3614.632401768917 2194.8995039382903,3642.049441225855 2219.8240852627796,3660.3274675304806 2216.659059062845,3706.0225332920436 2211.219170281706,3751.717599053607 2194.8995039382903,3772.4880834906808 2160.628204617118,3797.41266481517 2160.628204617118,3843.1077305767335 2149.2044381767273,3871.66714667771 2103.5093724151643,3888.8027917687905 2103.5093678456583,3888.8027963382965 2090.453639340432,3934.49786209986 2057.814306653601,3944.0176674668523 2012.1192408920379,3949.7295506870473 1966.4241751304746,3956.4991900591313 1920.7291093689112,3980.1929254564197 1920.7291036570296,3980.1929278614225 1875.034043607348,3994.25294809575 1829.3389778457847,4003.040458665156 1795.8292629539717,3980.1929278614225 1783.6439120842215,3973.1629177442596 1746.4108955377626,3934.49786209986 1737.9488463226583,3929.4206325707974 1692.253780561095,3890.2768307177016 1690.3886758361332,3888.8027963382965 1646.5587147995318,3845.849434522427 1643.702773189434,3843.1077305767335 1611.2488912565057,3797.41266481517 1600.8636490379688,3789.7968205215766 1555.1685832764056,3782.3896294963 1531.3276794008075,3797.41266481517 1533.4090281518515,3843.1077305767335 1518.9933228818345,3888.8027963382965 1538.0329336158193,3934.49786209986 1555.1685832764056,3960.2013365907387 1562.9701798698432,3980.1929278614225 1555.1685832764056,4012.1794738945173 1509.4735175148423,3993.08127974289 1463.778451753279,4009.2716060733264 1451.593100883529,4025.8879936229864 1418.0833859917159,4049.087027009626 1395.2358531109342,4049.087027009626" class="contours" style="fill:none;stroke:white;stroke-width:1px;stroke-linejoin:round"/><polyline points="2180.159160144238,3546.089803126573 2180.159160144238,3568.937336007354 2194.8995039382903,3594.323483652667 2227.5388366251213,3568.937336007354 2227.5388366251213,3546.089803126573" class="contours" style="fill:none;stroke:white;stroke-width:1px;stroke-linejoin:round"/></g></g></svg>